{
.appVersion = "1356";
DisplayStrings = (
"nn/Placeholder no/Placeholder oo/space naranjo\012abcdefghinojk/space carajo/space hijo\012olmnopqrstouovowoxoyozo",
"/space noHOdx/ellipsis/nbspace",
"nn¹n²n³n/foursuperior nn1234",
"¹²³/foursuperior",
"uunnuµnntnphdlijnnnnn",
"+/minus ×÷=±¬<>/notequal ~/approxequal",
"nn/Placeholder no/Placeholder oo\012abcdennfnnnnghijkol/space formal\012mnopqrostouvowoxoyz",
"HH/trademark TOO/oe/OE",
"D/Dcaron",
"nnfonn\012nnfann\012nnovnn\012nnownn\012nnoxnn\012nnoynn\012HHATHH\012HHFAHH\012HHGRHH\012HHILHH\012HHLTHH\012HHLVHH\012HHLYHH\012nn://nn\012nn4.nn\012nnkynn\012nn9.nn\012nn.4nn\012nn.1nn\012nnronn\012nn7.nn\012nn7/divisionslash nn\012nn////nn\012nn/divisionslash 4nn\012nn/divisionslash 7nn\012nn/divisionslash 2nn\012nny.nn",
"/OE",
a,
b,
B,
"/ring",
"/dotaccent/dotbelowcomb",
"!",
"/summation",
"/caroncomb/caron",
"/dotaccent",
"/hungarumlaut",
"{",
"/dieresiscomb",
"/dotaccentcomb",
"/circumflexcomb/circumflexcomb_acutecomb",
"/gravecomb/circumflexcomb_gravecomb",
"/acutecomb.case/circumflexcomb_acutecomb.case",
"/acutecomb.case",
"/circumflexcomb.case/circumflexcomb_acutecomb.case",
"/circumflexcomb/circumflexcomb/circumflexcomb/circumflexcomb_acutecomb",
"/circumflexcomb/acutecomb/circumflexcomb_acutecomb",
"/circumflexcomb_acutecomb",
"/circumflexcomb_gravecomb",
"/hookabovecomb/circumflexcomb/circumflexcomb/hookabovecomb/circumflexcomb_hookabovecomb",
"/tildecomb/brevecomb_tildecomb",
"/brevecomb.case/brevecomb_acutecomb.case",
"/hookabovecomb.case/circumflexcomb.case/circumflexcomb_hookabovecomb.case",
"A/Abrevetilde",
"/hookabovecomb/brevecomb_hookabovecomb",
"/hookabovecomb.case/circumflexcomb_hookabovecomb.case",
"/divisionslash//",
"/gravecomb.case",
"/acutecomb.case/acutecomb.case/brevecomb.case/brevecomb_acutecomb.case",
"O/Ohorn/Ohorntilde",
"AÁ",
abcdefghijklmnopqrstuvwxyzABCDEFGHIJKLMNOPQRSTUVWXYZ,
A,
"A/acutecomb Á",
"/brevecomb/Abreve",
"a/abreve",
"A/dieresiscomb ¨Ä",
"/Amacron",
"a/aogonek",

glyphs = (
{
glyphname = a;
lastChange = "2021-06-09 21:01:08 +0000";
layers = (
{
anchors = (
{
name = bottom;
position = "{178, 0}";
},
{
name = ogonek;
position = "{349, 28}";
},
{
name = top;
position = "{321, 472}";
}
);
background = {
hints = (
{
horizontal = 1;
place = "{6, 21}";
target = up;
type = BottomGhost;
},
{
horizontal = 1;
place = "{256, 30}";
type = Stem;
},
{
horizontal = 1;
place = "{448, 33}";
type = Stem;
},
{
place = "{17, 36}";
type = Stem;
},
{
place = "{358, 35}";
type = Stem;
},
{
horizontal = 1;
place = "{-6, 32}";
type = Stem;
}
);
paths = (
{
closed = 1;
nodes = (
"-2 68 OFFCURVE",
"41 -6 OFFCURVE",
"166 -6 CURVE SMOOTH",
"218 -6 OFFCURVE",
"286 4 OFFCURVE",
"333 20 CURVE SMOOTH",
"345 24 OFFCURVE",
"347 31 OFFCURVE",
"348 37 CURVE SMOOTH",
"408 257 OFFCURVE",
"437 408 OFFCURVE",
"446 466 CURVE SMOOTH",
"446 468 OFFCURVE",
"444 470 OFFCURVE",
"442 470 CURVE SMOOTH",
"434 470 OFFCURVE",
"425 470 OFFCURVE",
"417 470 CURVE SMOOTH",
"415 470 OFFCURVE",
"413 468 OFFCURVE",
"413 466 CURVE SMOOTH",
"411 456 OFFCURVE",
"410 450 OFFCURVE",
"406 433 CURVE",
"385 450 OFFCURVE",
"327 472 OFFCURVE",
"275 472 CURVE SMOOTH",
"190 472 OFFCURVE",
"75 433 OFFCURVE",
"32 230 CURVE SMOOTH"
);
},
{
closed = 1;
nodes = (
"104 414 OFFCURVE",
"203 440 OFFCURVE",
"268 440 CURVE SMOOTH",
"301 440 OFFCURVE",
"361 425 OFFCURVE",
"386 407 CURVE SMOOTH",
"392 402 OFFCURVE",
"400 401 OFFCURVE",
"398 388 CURVE SMOOTH",
"393 354 OFFCURVE",
"349 153 OFFCURVE",
"323 63 CURVE",
"322 56 OFFCURVE",
"311 47 OFFCURVE",
"301 44 CURVE SMOOTH",
"287 40 OFFCURVE",
"223 23 OFFCURVE",
"181 23 CURVE SMOOTH",
"71 23 OFFCURVE",
"33 77 OFFCURVE",
"65 230 CURVE SMOOTH"
);
}
);
};
layerId = "707362F1-A677-446A-8636-E10BE3A7FAFF";
paths = (
{
closed = 1;
nodes = (
"230 -6 OFFCURVE",
"298 4 OFFCURVE",
"345 20 CURVE SMOOTH",
"357 24 OFFCURVE",
"359 31 OFFCURVE",
"360 37 CURVE SMOOTH",
"420 257 OFFCURVE",
"449 408 OFFCURVE",
"458 466 CURVE SMOOTH",
"458 468 OFFCURVE",
"456 470 OFFCURVE",
"454 470 CURVE SMOOTH",
"429 470 LINE SMOOTH",
"427 470 OFFCURVE",
"425 468 OFFCURVE",
"425 466 CURVE SMOOTH",
"418 433 LINE",
"397 450 OFFCURVE",
"339 472 OFFCURVE",
"287 472 CURVE SMOOTH",
"202 472 OFFCURVE",
"87 433 OFFCURVE",
"44 230 CURVE SMOOTH",
"10 68 OFFCURVE",
"53 -6 OFFCURVE",
"178 -6 CURVE SMOOTH"
);
},
{
closed = 1;
nodes = (
"83 23 OFFCURVE",
"45 77 OFFCURVE",
"77 230 CURVE SMOOTH",
"116 414 OFFCURVE",
"215 440 OFFCURVE",
"280 440 CURVE SMOOTH",
"332 440 OFFCURVE",
"369 423 OFFCURVE",
"398 407 CURVE SMOOTH",
"409 401 OFFCURVE",
"411 396 OFFCURVE",
"410 388 CURVE SMOOTH",
"405 354 OFFCURVE",
"361 153 OFFCURVE",
"337 67 CURVE SMOOTH",
"333 52 OFFCURVE",
"321 47 OFFCURVE",
"313 44 CURVE SMOOTH",
"299 40 OFFCURVE",
"235 23 OFFCURVE",
"193 23 CURVE SMOOTH"
);
}
);
width = 484;
},
{
anchors = (
{
name = bottom;
position = "{190, 0}";
},
{
name = ogonek;
position = "{374, 43}";
},
{
name = top;
position = "{317, 472}";
}
);
background = {
paths = (
{
closed = 1;
nodes = (
"-8 67 OFFCURVE",
"55 -6 OFFCURVE",
"189 -6 CURVE SMOOTH",
"257 -6 OFFCURVE",
"322 9 OFFCURVE",
"347 18 CURVE SMOOTH",
"381 28 OFFCURVE",
"386 35 OFFCURVE",
"394 52 CURVE SMOOTH",
"415 90 OFFCURVE",
"441 201 OFFCURVE",
"455 263 CURVE SMOOTH",
"495 433 OFFCURVE",
"495 448 OFFCURVE",
"497 461 CURVE SMOOTH",
"498 471 OFFCURVE",
"491 472 OFFCURVE",
"480 472 CURVE SMOOTH",
"443 472 OFFCURVE",
"407 472 OFFCURVE",
"370 472 CURVE SMOOTH",
"357 472 OFFCURVE",
"351 472 OFFCURVE",
"349 455 CURVE",
"342 464 OFFCURVE",
"319 476 OFFCURVE",
"291 476 CURVE SMOOTH",
"193 476 OFFCURVE",
"75 431 OFFCURVE",
"29 229 CURVE SMOOTH"
);
},
{
closed = 1;
nodes = (
"204 339 OFFCURVE",
"246 354 OFFCURVE",
"274 354 CURVE SMOOTH",
"287 354 OFFCURVE",
"305 348 OFFCURVE",
"318 343 CURVE",
"323 342 OFFCURVE",
"323 340 OFFCURVE",
"322 332 CURVE",
"305 263 OFFCURVE",
"289 195 OFFCURVE",
"271 126 CURVE SMOOTH",
"269 119 OFFCURVE",
"268 117 OFFCURVE",
"265 114 CURVE",
"251 110 OFFCURVE",
"233 106 OFFCURVE",
"216 106 CURVE SMOOTH",
"178 106 OFFCURVE",
"157 135 OFFCURVE",
"179 228 CURVE SMOOTH"
);
}
);
};
layerId = "D1BC8BBB-1669-4C46-BC21-42BF6808B2B9";
paths = (
{
closed = 1;
nodes = (
"257 -6 OFFCURVE",
"322 9 OFFCURVE",
"347 18 CURVE SMOOTH",
"381 28 OFFCURVE",
"386 35 OFFCURVE",
"394 52 CURVE SMOOTH",
"422 110 OFFCURVE",
"484 376 OFFCURVE",
"497 458 CURVE SMOOTH",
"498 468 OFFCURVE",
"493 472 OFFCURVE",
"482 472 CURVE SMOOTH",
"370 472 LINE SMOOTH",
"359 472 OFFCURVE",
"355 472 OFFCURVE",
"351 461 CURVE SMOOTH",
"349 455 LINE",
"342 464 OFFCURVE",
"319 476 OFFCURVE",
"291 476 CURVE SMOOTH",
"193 476 OFFCURVE",
"75 431 OFFCURVE",
"29 229 CURVE SMOOTH",
"-8 67 OFFCURVE",
"55 -6 OFFCURVE",
"189 -6 CURVE SMOOTH"
);
},
{
closed = 1;
nodes = (
"178 106 OFFCURVE",
"157 135 OFFCURVE",
"179 228 CURVE SMOOTH",
"204 339 OFFCURVE",
"246 354 OFFCURVE",
"274 354 CURVE SMOOTH",
"287 354 OFFCURVE",
"305 348 OFFCURVE",
"314 345 CURVE SMOOTH",
"321 343 OFFCURVE",
"323 338 OFFCURVE",
"321 329 CURVE SMOOTH",
"305 267 OFFCURVE",
"289 195 OFFCURVE",
"271 126 CURVE SMOOTH",
"268 117 OFFCURVE",
"265 113 OFFCURVE",
"259 112 CURVE SMOOTH",
"251 110 OFFCURVE",
"233 106 OFFCURVE",
"216 106 CURVE SMOOTH"
);
}
);
width = 479;
}
);
leftKerningGroup = a;
leftMetricsKey = o;
note = a;
rightKerningGroup = n;
rightMetricsKey = n;
unicode = 0061;
},
{
glyphname = b;
lastChange = "2021-06-09 21:23:28 +0000";
layers = (
{
background = {
paths = (
{
closed = 1;
nodes = (
"323 -6 OFFCURVE",
"410 63 OFFCURVE",
"444 224 CURVE SMOOTH",
"487 427 OFFCURVE",
"396 476 OFFCURVE",
"312 476 CURVE SMOOTH",
"262 476 OFFCURVE",
"206 465 OFFCURVE",
"180 457 CURVE SMOOTH",
"167 452 OFFCURVE",
"163 459 OFFCURVE",
"166 472 CURVE SMOOTH",
"168 481 OFFCURVE",
"209 650 OFFCURVE",
"224 700 CURVE SMOOTH",
"224 702 OFFCURVE",
"227 708 OFFCURVE",
"220 708 CURVE SMOOTH",
"199 708 LINE SMOOTH",
"194 708 OFFCURVE",
"192 703 OFFCURVE",
"191 701 CURVE SMOOTH",
"152 565 OFFCURVE",
"118 417 OFFCURVE",
"93 287 CURVE SMOOTH",
"76 203 OFFCURVE",
"59 99 OFFCURVE",
"56 66 CURVE SMOOTH",
"52 24 OFFCURVE",
"52 24 OFFCURVE",
"77 14 CURVE SMOOTH",
"85 11 OFFCURVE",
"139 -6 OFFCURVE",
"206 -6 CURVE SMOOTH"
);
},
{
closed = 1;
nodes = (
"162 22 OFFCURVE",
"122 33 OFFCURVE",
"100 41 CURVE SMOOTH",
"92 45 OFFCURVE",
"87 50 OFFCURVE",
"89 65 CURVE SMOOTH",
"106 191 OFFCURVE",
"143 373 OFFCURVE",
"154 407 CURVE SMOOTH",
"158 420 OFFCURVE",
"168 425 OFFCURVE",
"176 426 CURVE SMOOTH",
"191 428 OFFCURVE",
"267 446 OFFCURVE",
"300 446 CURVE SMOOTH",
"369 446 OFFCURVE",
"451 411 OFFCURVE",
"412 228 CURVE SMOOTH",
"379 74 OFFCURVE",
"300 22 OFFCURVE",
"210 22 CURVE SMOOTH"
);
}
);
};
layerId = "707362F1-A677-446A-8636-E10BE3A7FAFF";
paths = (
{
closed = 1;
nodes = (
"314 -6 OFFCURVE",
"401 63 OFFCURVE",
"435 224 CURVE SMOOTH",
"478 427 OFFCURVE",
"387 476 OFFCURVE",
"303 476 CURVE SMOOTH",
"253 476 OFFCURVE",
"197 465 OFFCURVE",
"171 457 CURVE SMOOTH",
"158 452 OFFCURVE",
"154 459 OFFCURVE",
"157 472 CURVE SMOOTH",
"159 481 OFFCURVE",
"200 650 OFFCURVE",
"215 700 CURVE SMOOTH",
"215 702 OFFCURVE",
"218 708 OFFCURVE",
"211 708 CURVE SMOOTH",
"190 708 LINE SMOOTH",
"185 708 OFFCURVE",
"183 703 OFFCURVE",
"182 701 CURVE SMOOTH",
"143 565 OFFCURVE",
"109 417 OFFCURVE",
"84 287 CURVE SMOOTH",
"67 203 OFFCURVE",
"50 99 OFFCURVE",
"47 66 CURVE SMOOTH",
"43 24 OFFCURVE",
"43 24 OFFCURVE",
"68 14 CURVE SMOOTH",
"76 11 OFFCURVE",
"130 -6 OFFCURVE",
"197 -6 CURVE SMOOTH"
);
},
{
closed = 1;
nodes = (
"153 22 OFFCURVE",
"113 33 OFFCURVE",
"91 41 CURVE SMOOTH",
"83 45 OFFCURVE",
"78 50 OFFCURVE",
"80 65 CURVE SMOOTH",
"97 191 OFFCURVE",
"134 373 OFFCURVE",
"145 407 CURVE SMOOTH",
"149 420 OFFCURVE",
"159 425 OFFCURVE",
"167 426 CURVE SMOOTH",
"182 428 OFFCURVE",
"258 446 OFFCURVE",
"291 446 CURVE SMOOTH",
"360 446 OFFCURVE",
"442 411 OFFCURVE",
"403 228 CURVE SMOOTH",
"370 74 OFFCURVE",
"291 22 OFFCURVE",
"201 22 CURVE SMOOTH"
);
}
);
width = 483;
},
{
background = {
paths = (
{
closed = 1;
nodes = (
"319 -6 OFFCURVE",
"415 67 OFFCURVE",
"449 229 CURVE SMOOTH",
"492 431 OFFCURVE",
"395 476 OFFCURVE",
"297 476 CURVE SMOOTH",
"283 476 OFFCURVE",
"259 470 OFFCURVE",
"247 468 CURVE SMOOTH",
"240 467 OFFCURVE",
"232 466 OFFCURVE",
"235 477 CURVE SMOOTH",
"248 538 OFFCURVE",
"275 621 OFFCURVE",
"298 681 CURVE SMOOTH",
"306 704 OFFCURVE",
"311 708 OFFCURVE",
"288 708 CURVE SMOOTH",
"179 708 LINE SMOOTH",
"168 708 OFFCURVE",
"160 707 OFFCURVE",
"156 697 CURVE SMOOTH",
"118 590 OFFCURVE",
"74 433 OFFCURVE",
"38 263 CURVE SMOOTH",
"25 201 OFFCURVE",
"3 90 OFFCURVE",
"6 52 CURVE SMOOTH",
"7 35 OFFCURVE",
"9 28 OFFCURVE",
"39 18 CURVE SMOOTH",
"60 9 OFFCURVE",
"117 -6 OFFCURVE",
"187 -6 CURVE SMOOTH"
);
},
{
closed = 1;
nodes = (
"191 106 OFFCURVE",
"175 110 OFFCURVE",
"165 114 CURVE",
"162 117 OFFCURVE",
"162 119 OFFCURVE",
"163 126 CURVE SMOOTH",
"176 195 OFFCURVE",
"189 263 OFFCURVE",
"204 332 CURVE SMOOTH",
"206 340 OFFCURVE",
"207 342 OFFCURVE",
"212 343 CURVE SMOOTH",
"227 348 OFFCURVE",
"249 354 OFFCURVE",
"263 354 CURVE SMOOTH",
"290 354 OFFCURVE",
"323 339 OFFCURVE",
"300 228 CURVE SMOOTH",
"280 135 OFFCURVE",
"246 106 OFFCURVE",
"210 106 CURVE SMOOTH"
);
}
);
};
layerId = "D1BC8BBB-1669-4C46-BC21-42BF6808B2B9";
paths = (
{
closed = 1;
nodes = (
"319 -6 OFFCURVE",
"415 67 OFFCURVE",
"449 229 CURVE SMOOTH",
"492 431 OFFCURVE",
"395 476 OFFCURVE",
"297 476 CURVE SMOOTH",
"283 476 OFFCURVE",
"259 470 OFFCURVE",
"247 468 CURVE SMOOTH",
"240 467 OFFCURVE",
"232 466 OFFCURVE",
"235 477 CURVE SMOOTH",
"248 538 OFFCURVE",
"275 621 OFFCURVE",
"298 681 CURVE SMOOTH",
"306 704 OFFCURVE",
"311 708 OFFCURVE",
"288 708 CURVE SMOOTH",
"179 708 LINE SMOOTH",
"168 708 OFFCURVE",
"160 707 OFFCURVE",
"156 697 CURVE SMOOTH",
"118 590 OFFCURVE",
"74 433 OFFCURVE",
"38 263 CURVE SMOOTH",
"25 201 OFFCURVE",
"3 90 OFFCURVE",
"6 52 CURVE SMOOTH",
"7 35 OFFCURVE",
"9 28 OFFCURVE",
"39 18 CURVE SMOOTH",
"60 9 OFFCURVE",
"117 -6 OFFCURVE",
"187 -6 CURVE SMOOTH"
);
},
{
closed = 1;
nodes = (
"191 106 OFFCURVE",
"175 110 OFFCURVE",
"165 114 CURVE",
"162 117 OFFCURVE",
"162 119 OFFCURVE",
"163 126 CURVE SMOOTH",
"176 195 OFFCURVE",
"189 263 OFFCURVE",
"204 332 CURVE SMOOTH",
"206 340 OFFCURVE",
"207 342 OFFCURVE",
"212 343 CURVE SMOOTH",
"227 348 OFFCURVE",
"249 354 OFFCURVE",
"263 354 CURVE SMOOTH",
"290 354 OFFCURVE",
"323 339 OFFCURVE",
"300 228 CURVE SMOOTH",
"280 135 OFFCURVE",
"246 106 OFFCURVE",
"210 106 CURVE SMOOTH"
);
}
);
width = 480;
}
);
leftKerningGroup = b;
leftMetricsKey = "=h-8";
note = b;
rightKerningGroup = o;
rightMetricsKey = o;
unicode = 0062;
},
{
glyphname = c;
lastChange = "2021-06-09 21:23:28 +0000";
layers = (
{
anchors = (
{
name = bottom;
position = "{192, 0}";
},
{
name = top;
position = "{287, 472}";
}
);
background = {
paths = (
{
closed = 1;
nodes = (
"265 -5 OFFCURVE",
"310 4 OFFCURVE",
"344 24 CURVE",
"347 25 OFFCURVE",
"349 27 OFFCURVE",
"349 31 CURVE",
"343 47 LINE",
"343 50 OFFCURVE",
"340 50 OFFCURVE",
"336 48 CURVE",
"306 35 OFFCURVE",
"268 25 OFFCURVE",
"220 25 CURVE SMOOTH",
"100 25 OFFCURVE",
"79 109 OFFCURVE",
"106 236 CURVE SMOOTH",
"127 335 OFFCURVE",
"185 452 OFFCURVE",
"310 452 CURVE SMOOTH",
"353 452 OFFCURVE",
"398 438 OFFCURVE",
"415 413 CURVE SMOOTH",
"418 409 OFFCURVE",
"423 408 OFFCURVE",
"424 415 CURVE SMOOTH",
"429 438 LINE SMOOTH",
"431 445 OFFCURVE",
"431 445 OFFCURVE",
"427 450 CURVE SMOOTH",
"405 471 OFFCURVE",
"370 483 OFFCURVE",
"317 483 CURVE SMOOTH",
"166 483 OFFCURVE",
"101 365 OFFCURVE",
"73 237 CURVE SMOOTH",
"44 100 OFFCURVE",
"59 -5 OFFCURVE",
"214 -5 CURVE SMOOTH"
);
}
);
};
layerId = "707362F1-A677-446A-8636-E10BE3A7FAFF";
paths = (
{
closed = 1;
nodes = (
"237 -5 OFFCURVE",
"282 4 OFFCURVE",
"316 24 CURVE",
"319 25 OFFCURVE",
"321 27 OFFCURVE",
"321 31 CURVE",
"315 47 LINE",
"315 50 OFFCURVE",
"312 50 OFFCURVE",
"308 48 CURVE",
"278 35 OFFCURVE",
"240 25 OFFCURVE",
"192 25 CURVE SMOOTH",
"72 25 OFFCURVE",
"51 109 OFFCURVE",
"78 236 CURVE SMOOTH",
"99 335 OFFCURVE",
"157 452 OFFCURVE",
"282 452 CURVE SMOOTH",
"325 452 OFFCURVE",
"370 438 OFFCURVE",
"387 413 CURVE SMOOTH",
"390 409 OFFCURVE",
"394 408 OFFCURVE",
"396 415 CURVE SMOOTH",
"401 438 LINE SMOOTH",
"403 445 OFFCURVE",
"403 445 OFFCURVE",
"399 450 CURVE SMOOTH",
"377 471 OFFCURVE",
"342 483 OFFCURVE",
"289 483 CURVE SMOOTH",
"138 483 OFFCURVE",
"73 365 OFFCURVE",
"45 237 CURVE SMOOTH",
"16 100 OFFCURVE",
"31 -5 OFFCURVE",
"186 -5 CURVE SMOOTH"
);
}
);
width = 389;
},
{
anchors = (
{
name = bottom;
position = "{199, 0}";
},
{
name = top;
position = "{299, 472}";
}
);
background = {
paths = (
{
closed = 1;
nodes = (
"250 -5 OFFCURVE",
"314 7 OFFCURVE",
"355 34 CURVE SMOOTH",
"367 41 OFFCURVE",
"370 46 OFFCURVE",
"367 58 CURVE SMOOTH",
"354 122 LINE SMOOTH",
"351 135 OFFCURVE",
"342 137 OFFCURVE",
"328 131 CURVE SMOOTH",
"287 114 OFFCURVE",
"259 106 OFFCURVE",
"231 106 CURVE SMOOTH",
"181 106 OFFCURVE",
"159 153 OFFCURVE",
"176 236 CURVE SMOOTH",
"190 302 OFFCURVE",
"234 360 OFFCURVE",
"294 360 CURVE SMOOTH",
"334 360 OFFCURVE",
"369 355 OFFCURVE",
"399 326 CURVE SMOOTH",
"405 320 OFFCURVE",
"415 320 OFFCURVE",
"418 332 CURVE SMOOTH",
"435 415 LINE SMOOTH",
"437 425 OFFCURVE",
"436 428 OFFCURVE",
"427 439 CURVE",
"398 467 OFFCURVE",
"357 478 OFFCURVE",
"299 478 CURVE SMOOTH",
"126 478 OFFCURVE",
"57 360 OFFCURVE",
"30 237 CURVE SMOOTH",
"2 105 OFFCURVE",
"20 -5 OFFCURVE",
"197 -5 CURVE SMOOTH"
);
}
);
};
layerId = "D1BC8BBB-1669-4C46-BC21-42BF6808B2B9";
paths = (
{
closed = 1;
nodes = (
"250 -5 OFFCURVE",
"314 7 OFFCURVE",
"355 34 CURVE SMOOTH",
"367 41 OFFCURVE",
"369 46 OFFCURVE",
"367 58 CURVE SMOOTH",
"354 122 LINE SMOOTH",
"351 135 OFFCURVE",
"342 137 OFFCURVE",
"328 131 CURVE SMOOTH",
"287 114 OFFCURVE",
"259 106 OFFCURVE",
"231 106 CURVE SMOOTH",
"181 106 OFFCURVE",
"159 153 OFFCURVE",
"176 236 CURVE SMOOTH",
"190 302 OFFCURVE",
"234 360 OFFCURVE",
"294 360 CURVE SMOOTH",
"334 360 OFFCURVE",
"369 355 OFFCURVE",
"399 326 CURVE SMOOTH",
"405 320 OFFCURVE",
"416 320 OFFCURVE",
"418 332 CURVE SMOOTH",
"435 415 LINE SMOOTH",
"437 425 OFFCURVE",
"436 428 OFFCURVE",
"427 439 CURVE",
"398 467 OFFCURVE",
"357 478 OFFCURVE",
"299 478 CURVE SMOOTH",
"126 478 OFFCURVE",
"57 360 OFFCURVE",
"30 237 CURVE SMOOTH",
"2 105 OFFCURVE",
"20 -5 OFFCURVE",
"197 -5 CURVE SMOOTH"
);
}
);
width = 418;
}
);
leftKerningGroup = o;
leftMetricsKey = o;
note = c;
rightKerningGroup = c;
unicode = 0063;
},
{
glyphname = d;
lastChange = "2021-06-09 21:23:28 +0000";
layers = (
{
anchors = (
{
name = bottom;
position = "{196, 0}";
},
{
name = center;
position = "{246, 236}";
},
{
name = top;
position = "{346, 708}";
},
{
name = topright;
position = "{564, 708}";
}
);
background = {
paths = (
{
closed = 1;
nodes = (
"33 142 OFFCURVE",
"38 78 OFFCURVE",
"65 39 CURVE SMOOTH",
"90 4 OFFCURVE",
"141 -9 OFFCURVE",
"196 -10 CURVE SMOOTH",
"251 -10 OFFCURVE",
"310 2 OFFCURVE",
"350 18 CURVE SMOOTH",
"364 24 OFFCURVE",
"368 31 OFFCURVE",
"369 37 CURVE SMOOTH",
"429 257 OFFCURVE",
"474 480 OFFCURVE",
"511 704 CURVE SMOOTH",
"511 707 OFFCURVE",
"509 708 OFFCURVE",
"508 708 CURVE SMOOTH",
"482 708 LINE SMOOTH",
"480 708 OFFCURVE",
"477 707 OFFCURVE",
"477 704 CURVE",
"477 704 OFFCURVE",
"444 520 OFFCURVE",
"432 465 CURVE SMOOTH",
"429 452 OFFCURVE",
"426 454 OFFCURVE",
"408 459 CURVE SMOOTH",
"383 465 OFFCURVE",
"340 472 OFFCURVE",
"294 472 CURVE SMOOTH",
"209 472 OFFCURVE",
"95 433 OFFCURVE",
"52 230 CURVE SMOOTH"
);
},
{
closed = 1;
nodes = (
"124 414 OFFCURVE",
"223 440 OFFCURVE",
"288 440 CURVE SMOOTH",
"321 440 OFFCURVE",
"371 433 OFFCURVE",
"408 424 CURVE",
"416 421 OFFCURVE",
"423 415 OFFCURVE",
"420 401 CURVE SMOOTH",
"415 367 OFFCURVE",
"366 145 OFFCURVE",
"339 55 CURVE SMOOTH",
"337 48 OFFCURVE",
"329 45 OFFCURVE",
"319 40 CURVE SMOOTH",
"251 12 OFFCURVE",
"137 7 OFFCURVE",
"98 57 CURVE SMOOTH",
"73 88 OFFCURVE",
"67 144 OFFCURVE",
"85 230 CURVE SMOOTH"
);
}
);
};
layerId = "707362F1-A677-446A-8636-E10BE3A7FAFF";
paths = (
{
closed = 1;
nodes = (
"25 142 OFFCURVE",
"30 78 OFFCURVE",
"57 39 CURVE SMOOTH",
"82 4 OFFCURVE",
"133 -9 OFFCURVE",
"188 -10 CURVE SMOOTH",
"243 -10 OFFCURVE",
"302 2 OFFCURVE",
"342 18 CURVE SMOOTH",
"356 24 OFFCURVE",
"360 31 OFFCURVE",
"361 37 CURVE SMOOTH",
"421 257 OFFCURVE",
"466 480 OFFCURVE",
"503 704 CURVE SMOOTH",
"503 707 OFFCURVE",
"501 708 OFFCURVE",
"500 708 CURVE SMOOTH",
"474 708 LINE SMOOTH",
"472 708 OFFCURVE",
"469 707 OFFCURVE",
"469 704 CURVE",
"469 704 OFFCURVE",
"436 520 OFFCURVE",
"424 465 CURVE SMOOTH",
"421 452 OFFCURVE",
"418 454 OFFCURVE",
"400 459 CURVE SMOOTH",
"375 465 OFFCURVE",
"332 472 OFFCURVE",
"286 472 CURVE SMOOTH",
"201 472 OFFCURVE",
"87 433 OFFCURVE",
"44 230 CURVE SMOOTH"
);
},
{
closed = 1;
nodes = (
"116 414 OFFCURVE",
"215 440 OFFCURVE",
"280 440 CURVE SMOOTH",
"313 440 OFFCURVE",
"363 433 OFFCURVE",
"400 424 CURVE",
"408 421 OFFCURVE",
"415 415 OFFCURVE",
"412 401 CURVE SMOOTH",
"407 367 OFFCURVE",
"358 145 OFFCURVE",
"331 55 CURVE SMOOTH",
"329 48 OFFCURVE",
"321 45 OFFCURVE",
"311 40 CURVE SMOOTH",
"243 12 OFFCURVE",
"129 7 OFFCURVE",
"90 57 CURVE SMOOTH",
"65 88 OFFCURVE",
"59 144 OFFCURVE",
"77 230 CURVE SMOOTH"
);
}
);
width = 492;
},
{
anchors = (
{
name = bottom;
position = "{191, 0}";
},
{
name = center;
position = "{241, 236}";
},
{
name = top;
position = "{337, 687}";
},
{
name = topright;
position = "{587, 687}";
}
);
background = {
paths = (
{
closed = 1;
nodes = (
"6 130 OFFCURVE",
"21 64 OFFCURVE",
"66 28 CURVE SMOOTH",
"94 5 OFFCURVE",
"136 -6 OFFCURVE",
"188 -6 CURVE SMOOTH",
"257 -6 OFFCURVE",
"321 9 OFFCURVE",
"347 18 CURVE SMOOTH",
"381 28 OFFCURVE",
"386 35 OFFCURVE",
"394 52 CURVE SMOOTH",
"437 129 OFFCURVE",
"514 528 OFFCURVE",
"528 676 CURVE SMOOTH",
"529 686 OFFCURVE",
"522 687 OFFCURVE",
"511 687 CURVE SMOOTH",
"401 687 LINE SMOOTH",
"386 687 OFFCURVE",
"381 687 OFFCURVE",
"380 660 CURVE SMOOTH",
"373 599 OFFCURVE",
"369 538 OFFCURVE",
"355 477 CURVE SMOOTH",
"352 466 OFFCURVE",
"346 467 OFFCURVE",
"339 468 CURVE SMOOTH",
"327 470 OFFCURVE",
"305 476 OFFCURVE",
"290 476 CURVE SMOOTH",
"192 476 OFFCURVE",
"76 431 OFFCURVE",
"29 229 CURVE SMOOTH"
);
},
{
closed = 1;
nodes = (
"204 339 OFFCURVE",
"246 354 OFFCURVE",
"274 354 CURVE SMOOTH",
"287 354 OFFCURVE",
"305 348 OFFCURVE",
"318 343 CURVE SMOOTH",
"323 342 OFFCURVE",
"324 340 OFFCURVE",
"322 332 CURVE SMOOTH",
"306 263 OFFCURVE",
"289 195 OFFCURVE",
"271 126 CURVE SMOOTH",
"270 119 OFFCURVE",
"267 117 OFFCURVE",
"265 114 CURVE",
"251 110 OFFCURVE",
"234 106 OFFCURVE",
"216 106 CURVE SMOOTH",
"178 106 OFFCURVE",
"157 135 OFFCURVE",
"179 228 CURVE SMOOTH"
);
}
);
};
layerId = "D1BC8BBB-1669-4C46-BC21-42BF6808B2B9";
paths = (
{
closed = 1;
nodes = (
"6 130 OFFCURVE",
"21 64 OFFCURVE",
"66 28 CURVE SMOOTH",
"94 5 OFFCURVE",
"136 -6 OFFCURVE",
"188 -6 CURVE SMOOTH",
"257 -6 OFFCURVE",
"321 9 OFFCURVE",
"347 18 CURVE SMOOTH",
"381 28 OFFCURVE",
"386 35 OFFCURVE",
"394 52 CURVE SMOOTH",
"437 129 OFFCURVE",
"514 528 OFFCURVE",
"528 676 CURVE SMOOTH",
"529 686 OFFCURVE",
"522 687 OFFCURVE",
"511 687 CURVE SMOOTH",
"401 687 LINE SMOOTH",
"386 687 OFFCURVE",
"381 687 OFFCURVE",
"380 660 CURVE SMOOTH",
"373 599 OFFCURVE",
"369 538 OFFCURVE",
"355 477 CURVE SMOOTH",
"352 466 OFFCURVE",
"346 467 OFFCURVE",
"339 468 CURVE SMOOTH",
"327 470 OFFCURVE",
"305 476 OFFCURVE",
"290 476 CURVE SMOOTH",
"192 476 OFFCURVE",
"76 431 OFFCURVE",
"29 229 CURVE SMOOTH"
);
},
{
closed = 1;
nodes = (
"204 339 OFFCURVE",
"246 354 OFFCURVE",
"274 354 CURVE SMOOTH",
"287 354 OFFCURVE",
"305 348 OFFCURVE",
"318 343 CURVE SMOOTH",
"323 342 OFFCURVE",
"324 340 OFFCURVE",
"322 332 CURVE SMOOTH",
"306 263 OFFCURVE",
"289 195 OFFCURVE",
"271 126 CURVE SMOOTH",
"270 119 OFFCURVE",
"267 117 OFFCURVE",
"265 114 CURVE",
"251 110 OFFCURVE",
"234 106 OFFCURVE",
"216 106 CURVE SMOOTH",
"178 106 OFFCURVE",
"157 135 OFFCURVE",
"179 228 CURVE SMOOTH"
);
}
);
width = 482;
}
);
leftKerningGroup = o;
leftMetricsKey = o;
note = d;
rightKerningGroup = d;
unicode = 0064;
},
{
color = 0;
glyphname = e;
lastChange = "2021-06-09 21:23:28 +0000";
layers = (
{
anchors = (
{
name = bottom;
position = "{191, 0}";
},
{
name = ogonek;
position = "{214, 10}";
},
{
name = top;
position = "{287, 472}";
}
);
background = {
paths = (
{
closed = 1;
nodes = (
"24 100 OFFCURVE",
"37 -5 OFFCURVE",
"194 -5 CURVE SMOOTH",
"260 -5 OFFCURVE",
"326 6 OFFCURVE",
"374 38 CURVE",
"379 40 OFFCURVE",
"379 42 OFFCURVE",
"379 45 CURVE SMOOTH",
"375 59 LINE SMOOTH",
"372 66 OFFCURVE",
"364 61 OFFCURVE",
"361 59 CURVE SMOOTH",
"314 33 OFFCURVE",
"248 25 OFFCURVE",
"200 25 CURVE SMOOTH",
"85 25 OFFCURVE",
"60 103 OFFCURVE",
"82 216 CURVE SMOOTH",
"85 229 OFFCURVE",
"94 229 OFFCURVE",
"96 229 CURVE SMOOTH",
"397 229 LINE SMOOTH",
"412 229 OFFCURVE",
"420 231 OFFCURVE",
"430 276 CURVE SMOOTH",
"451 374 OFFCURVE",
"453 483 OFFCURVE",
"297 483 CURVE SMOOTH",
"146 483 OFFCURVE",
"81 365 OFFCURVE",
"53 237 CURVE SMOOTH"
);
},
{
closed = 1;
nodes = (
"393 263 OFFCURVE",
"386 261 OFFCURVE",
"372 261 CURVE",
"283 261 OFFCURVE",
"194 261 OFFCURVE",
"105 261 CURVE SMOOTH",
"93 261 OFFCURVE",
"93 265 OFFCURVE",
"96 275 CURVE SMOOTH",
"115 349 OFFCURVE",
"172 452 OFFCURVE",
"290 452 CURVE SMOOTH",
"411 452 OFFCURVE",
"415 365 OFFCURVE",
"397 281 CURVE SMOOTH"
);
}
);
};
layerId = "707362F1-A677-446A-8636-E10BE3A7FAFF";
paths = (
{
closed = 1;
nodes = (
"16 100 OFFCURVE",
"29 -5 OFFCURVE",
"186 -5 CURVE SMOOTH",
"252 -5 OFFCURVE",
"318 6 OFFCURVE",
"366 38 CURVE",
"371 40 OFFCURVE",
"372 42 OFFCURVE",
"371 45 CURVE SMOOTH",
"367 59 LINE SMOOTH",
"365 66 OFFCURVE",
"356 61 OFFCURVE",
"353 59 CURVE SMOOTH",
"306 33 OFFCURVE",
"240 25 OFFCURVE",
"192 25 CURVE SMOOTH",
"77 25 OFFCURVE",
"52 103 OFFCURVE",
"74 216 CURVE SMOOTH",
"77 229 OFFCURVE",
"86 229 OFFCURVE",
"88 229 CURVE SMOOTH",
"389 229 LINE SMOOTH",
"404 229 OFFCURVE",
"412 231 OFFCURVE",
"422 276 CURVE SMOOTH",
"443 374 OFFCURVE",
"445 483 OFFCURVE",
"289 483 CURVE SMOOTH",
"138 483 OFFCURVE",
"73 365 OFFCURVE",
"45 237 CURVE SMOOTH"
);
},
{
closed = 1;
nodes = (
"385 263 OFFCURVE",
"378 261 OFFCURVE",
"364 261 CURVE",
"275 261 OFFCURVE",
"186 261 OFFCURVE",
"97 261 CURVE SMOOTH",
"85 261 OFFCURVE",
"85 265 OFFCURVE",
"88 275 CURVE SMOOTH",
"107 349 OFFCURVE",
"164 452 OFFCURVE",
"282 452 CURVE SMOOTH",
"403 452 OFFCURVE",
"407 365 OFFCURVE",
"389 281 CURVE SMOOTH"
);
}
);
width = 453;
},
{
anchors = (
{
name = bottom;
position = "{202, 0}";
},
{
name = ogonek;
position = "{250, 10}";
},
{
name = top;
position = "{299, 472}";
}
);
background = {
paths = (
{
closed = 1;
nodes = (
"2 105 OFFCURVE",
"19 -5 OFFCURVE",
"197 -5 CURVE SMOOTH",
"264 -5 OFFCURVE",
"343 8 OFFCURVE",
"397 41 CURVE SMOOTH",
"415 52 OFFCURVE",
"422 54 OFFCURVE",
"415 72 CURVE SMOOTH",
"401 119 LINE SMOOTH",
"394 143 OFFCURVE",
"386 137 OFFCURVE",
"365 126 CURVE SMOOTH",
"349 118 OFFCURVE",
"301 98 OFFCURVE",
"255 98 CURVE SMOOTH",
"194 98 OFFCURVE",
"166 138 OFFCURVE",
"172 186 CURVE",
"174 195 OFFCURVE",
"174 198 OFFCURVE",
"183 198 CURVE SMOOTH",
"398 198 LINE SMOOTH",
"426 198 OFFCURVE",
"444 214 OFFCURVE",
"456 271 CURVE SMOOTH",
"476 367 OFFCURVE",
"477 478 OFFCURVE",
"299 478 CURVE SMOOTH",
"126 478 OFFCURVE",
"57 360 OFFCURVE",
"30 237 CURVE SMOOTH"
);
},
{
closed = 1;
nodes = (
"310 277 OFFCURVE",
"310 275 OFFCURVE",
"301 275 CURVE SMOOTH",
"265 275 OFFCURVE",
"228 275 OFFCURVE",
"192 275 CURVE SMOOTH",
"186 275 OFFCURVE",
"185 278 OFFCURVE",
"192 300 CURVE SMOOTH",
"204 332 OFFCURVE",
"229 368 OFFCURVE",
"271 368 CURVE SMOOTH",
"308 368 OFFCURVE",
"323 345 OFFCURVE",
"313 295 CURVE SMOOTH"
);
}
);
};
layerId = "D1BC8BBB-1669-4C46-BC21-42BF6808B2B9";
paths = (
{
closed = 1;
nodes = (
"2 105 OFFCURVE",
"19 -5 OFFCURVE",
"197 -5 CURVE SMOOTH",
"264 -5 OFFCURVE",
"343 8 OFFCURVE",
"397 41 CURVE SMOOTH",
"415 52 OFFCURVE",
"421 53 OFFCURVE",
"415 72 CURVE SMOOTH",
"401 119 LINE SMOOTH",
"394 143 OFFCURVE",
"386 137 OFFCURVE",
"365 126 CURVE SMOOTH",
"349 118 OFFCURVE",
"301 98 OFFCURVE",
"255 98 CURVE SMOOTH",
"194 98 OFFCURVE",
"166 138 OFFCURVE",
"172 186 CURVE",
"174 195 OFFCURVE",
"174 198 OFFCURVE",
"183 198 CURVE SMOOTH",
"398 198 LINE SMOOTH",
"426 198 OFFCURVE",
"444 214 OFFCURVE",
"456 271 CURVE SMOOTH",
"476 367 OFFCURVE",
"477 478 OFFCURVE",
"299 478 CURVE SMOOTH",
"126 478 OFFCURVE",
"57 360 OFFCURVE",
"30 237 CURVE SMOOTH"
);
},
{
closed = 1;
nodes = (
"310 277 OFFCURVE",
"310 275 OFFCURVE",
"301 275 CURVE SMOOTH",
"265 275 OFFCURVE",
"228 275 OFFCURVE",
"192 275 CURVE SMOOTH",
"186 275 OFFCURVE",
"185 278 OFFCURVE",
"192 300 CURVE SMOOTH",
"204 332 OFFCURVE",
"229 368 OFFCURVE",
"271 368 CURVE SMOOTH",
"308 368 OFFCURVE",
"323 345 OFFCURVE",
"313 295 CURVE SMOOTH"
);
}
);
width = 480;
}
);
leftKerningGroup = o;
leftMetricsKey = o;
note = e;
rightKerningGroup = e;
unicode = 0065;
},
{
glyphname = f;
lastChange = "2021-06-09 20:23:19 +0000";
layers = (
{
background = {
hints = (
{
horizontal = 1;
place = "{4, 21}";
target = up;
type = BottomGhost;
},
{
horizontal = 1;
place = "{254, 28}";
type = Stem;
},
{
horizontal = 1;
place = "{442, 30}";
type = Stem;
},
{
horizontal = 1;
place = "{682, 30}";
type = Stem;
},
{
place = "{59, 34}";
type = Stem;
},
{
place = "{146, 33}";
type = Stem;
},
{
place = "{400, 33}";
type = Stem;
},
{
horizontal = 1;
place = "{446, 31}";
type = Stem;
}
);
paths = (
{
closed = 1;
nodes = (
"-308 -237 OFFCURVE",
"-266 -179 OFFCURVE",
"-247 -80 CURVE SMOOTH",
"-215 92 OFFCURVE",
"-179 288 OFFCURVE",
"-154 406 CURVE SMOOTH",
"-152 416 OFFCURVE",
"-150 425 OFFCURVE",
"-148 433 CURVE SMOOTH",
"-147 439 OFFCURVE",
"-142 442 OFFCURVE",
"-139 442 CURVE SMOOTH",
"-83 442 OFFCURVE",
"-28 442 OFFCURVE",
"28 442 CURVE SMOOTH",
"29 442 OFFCURVE",
"32 446 OFFCURVE",
"32 446 CURVE",
"34 453 OFFCURVE",
"35 461 OFFCURVE",
"37 468 CURVE",
"37 470 OFFCURVE",
"36 472 OFFCURVE",
"35 472 CURVE SMOOTH",
"-21 472 OFFCURVE",
"-77 472 OFFCURVE",
"-133 472 CURVE SMOOTH",
"-139 472 OFFCURVE",
"-140 476 OFFCURVE",
"-139 481 CURVE SMOOTH",
"-129 530 OFFCURVE",
"-118 578 OFFCURVE",
"-90 622 CURVE SMOOTH",
"-63 664 OFFCURVE",
"-20 681 OFFCURVE",
"51 681 CURVE SMOOTH",
"89 681 OFFCURVE",
"114 675 OFFCURVE",
"125 669 CURVE",
"128 668 OFFCURVE",
"130 668 OFFCURVE",
"130 670 CURVE",
"132 675 OFFCURVE",
"135 681 OFFCURVE",
"137 686 CURVE",
"137 687 OFFCURVE",
"140 689 OFFCURVE",
"136 691 CURVE SMOOTH",
"127 697 OFFCURVE",
"95 712 OFFCURVE",
"58 712 CURVE SMOOTH",
"-14 712 OFFCURVE",
"-70 691 OFFCURVE",
"-107 650 CURVE SMOOTH",
"-151 601 OFFCURVE",
"-162 537 OFFCURVE",
"-173 480 CURVE SMOOTH",
"-174 473 OFFCURVE",
"-177 472 OFFCURVE",
"-182 472 CURVE SMOOTH",
"-205 472 OFFCURVE",
"-228 472 OFFCURVE",
"-251 472 CURVE SMOOTH",
"-253 472 OFFCURVE",
"-256 468 OFFCURVE",
"-256 468 CURVE",
"-257 461 OFFCURVE",
"-259 453 OFFCURVE",
"-260 446 CURVE",
"-260 446 OFFCURVE",
"-260 442 OFFCURVE",
"-258 442 CURVE SMOOTH",
"-235 442 OFFCURVE",
"-213 442 OFFCURVE",
"-190 442 CURVE SMOOTH",
"-184 442 OFFCURVE",
"-182 438 OFFCURVE",
"-182 433 CURVE",
"-214 278 OFFCURVE",
"-246 104 OFFCURVE",
"-280 -80 CURVE SMOOTH",
"-295 -153 OFFCURVE",
"-330 -208 OFFCURVE",
"-406 -208 CURVE SMOOTH",
"-427 -208 OFFCURVE",
"-450 -203 OFFCURVE",
"-470 -195 CURVE",
"-475 -194 OFFCURVE",
"-476 -194 OFFCURVE",
"-477 -198 CURVE SMOOTH",
"-479 -205 OFFCURVE",
"-480 -211 OFFCURVE",
"-482 -218 CURVE",
"-483 -221 OFFCURVE",
"-483 -223 OFFCURVE",
"-481 -224 CURVE",
"-483 -224 OFFCURVE",
"-452 -237 OFFCURVE",
"-407 -237 CURVE SMOOTH"
);
}
);
};
layerId = "707362F1-A677-446A-8636-E10BE3A7FAFF";
paths = (
{
closed = 1;
nodes = (
"98 -237 OFFCURVE",
"140 -179 OFFCURVE",
"159 -80 CURVE SMOOTH",
"191 92 OFFCURVE",
"227 288 OFFCURVE",
"252 406 CURVE SMOOTH",
"254 416 OFFCURVE",
"256 425 OFFCURVE",
"258 433 CURVE SMOOTH",
"259 439 OFFCURVE",
"264 442 OFFCURVE",
"267 442 CURVE SMOOTH",
"323 442 OFFCURVE",
"378 442 OFFCURVE",
"434 442 CURVE SMOOTH",
"435 442 OFFCURVE",
"438 446 OFFCURVE",
"438 446 CURVE",
"440 453 OFFCURVE",
"441 461 OFFCURVE",
"443 468 CURVE",
"443 470 OFFCURVE",
"442 472 OFFCURVE",
"441 472 CURVE SMOOTH",
"385 472 OFFCURVE",
"329 472 OFFCURVE",
"273 472 CURVE SMOOTH",
"267 472 OFFCURVE",
"266 476 OFFCURVE",
"267 481 CURVE SMOOTH",
"277 530 OFFCURVE",
"288 578 OFFCURVE",
"316 622 CURVE SMOOTH",
"343 664 OFFCURVE",
"386 681 OFFCURVE",
"457 681 CURVE SMOOTH",
"495 681 OFFCURVE",
"520 675 OFFCURVE",
"531 669 CURVE",
"534 668 OFFCURVE",
"536 668 OFFCURVE",
"536 670 CURVE",
"538 675 OFFCURVE",
"541 681 OFFCURVE",
"543 686 CURVE",
"543 687 OFFCURVE",
"546 689 OFFCURVE",
"542 691 CURVE SMOOTH",
"533 697 OFFCURVE",
"501 712 OFFCURVE",
"464 712 CURVE SMOOTH",
"392 712 OFFCURVE",
"336 691 OFFCURVE",
"299 650 CURVE SMOOTH",
"255 601 OFFCURVE",
"244 537 OFFCURVE",
"233 480 CURVE SMOOTH",
"232 473 OFFCURVE",
"229 472 OFFCURVE",
"224 472 CURVE SMOOTH",
"201 472 OFFCURVE",
"178 472 OFFCURVE",
"155 472 CURVE SMOOTH",
"153 472 OFFCURVE",
"150 468 OFFCURVE",
"150 468 CURVE",
"149 461 OFFCURVE",
"147 453 OFFCURVE",
"146 446 CURVE",
"146 446 OFFCURVE",
"146 442 OFFCURVE",
"148 442 CURVE SMOOTH",
"171 442 OFFCURVE",
"193 442 OFFCURVE",
"216 442 CURVE SMOOTH",
"222 442 OFFCURVE",
"224 438 OFFCURVE",
"224 433 CURVE",
"192 278 OFFCURVE",
"160 104 OFFCURVE",
"126 -80 CURVE SMOOTH",
"111 -153 OFFCURVE",
"76 -208 OFFCURVE",
"0 -208 CURVE SMOOTH",
"-21 -208 OFFCURVE",
"-44 -203 OFFCURVE",
"-64 -195 CURVE",
"-69 -194 OFFCURVE",
"-70 -194 OFFCURVE",
"-71 -198 CURVE SMOOTH",
"-73 -205 OFFCURVE",
"-74 -211 OFFCURVE",
"-76 -218 CURVE",
"-77 -221 OFFCURVE",
"-77 -223 OFFCURVE",
"-75 -224 CURVE",
"-77 -224 OFFCURVE",
"-46 -237 OFFCURVE",
"-1 -237 CURVE SMOOTH"
);
}
);
width = 404;
},
{
background = {
paths = (
{
closed = 1;
nodes = (
"157 -230 OFFCURVE",
"224 -157 OFFCURVE",
"247 -28 CURVE SMOOTH",
"278 145 OFFCURVE",
"278 178 OFFCURVE",
"302 296 CURVE SMOOTH",
"304 306 OFFCURVE",
"313 348 OFFCURVE",
"314 356 CURVE SMOOTH",
"315 362 OFFCURVE",
"322 366 OFFCURVE",
"325 366 CURVE SMOOTH",
"381 366 OFFCURVE",
"381 366 OFFCURVE",
"437 366 CURVE SMOOTH",
"452 366 OFFCURVE",
"456 367 OFFCURVE",
"458 382 CURVE",
"463 406 OFFCURVE",
"471 446 OFFCURVE",
"473 453 CURVE",
"477 471 OFFCURVE",
"473 472 OFFCURVE",
"463 472 CURVE SMOOTH",
"407 472 OFFCURVE",
"361 472 OFFCURVE",
"347 472 CURVE SMOOTH",
"341 472 OFFCURVE",
"340 476 OFFCURVE",
"341 481 CURVE SMOOTH",
"343 491 OFFCURVE",
"350 524 OFFCURVE",
"354 537 CURVE SMOOTH",
"369 583 OFFCURVE",
"400 608 OFFCURVE",
"437 608 CURVE SMOOTH",
"468 608 OFFCURVE",
"498 596 OFFCURVE",
"516 583 CURVE",
"524 576 OFFCURVE",
"528 577 OFFCURVE",
"538 595 CURVE",
"549 616 OFFCURVE",
"561 637 OFFCURVE",
"572 658 CURVE SMOOTH",
"578 670 OFFCURVE",
"577 676 OFFCURVE",
"561 685 CURVE SMOOTH",
"544 695 OFFCURVE",
"508 712 OFFCURVE",
"466 712 CURVE SMOOTH",
"367 712 OFFCURVE",
"303 681 OFFCURVE",
"266 640 CURVE SMOOTH",
"222 591 OFFCURVE",
"205 537 OFFCURVE",
"197 480 CURVE SMOOTH",
"196 473 OFFCURVE",
"193 472 OFFCURVE",
"188 472 CURVE SMOOTH",
"180 472 OFFCURVE",
"185 472 OFFCURVE",
"149 472 CURVE SMOOTH",
"135 472 OFFCURVE",
"131 473 OFFCURVE",
"128 455 CURVE",
"122 430 OFFCURVE",
"117 406 OFFCURVE",
"111 381 CURVE",
"108 366 OFFCURVE",
"114 366 OFFCURVE",
"123 366 CURVE SMOOTH",
"135 366 OFFCURVE",
"149 366 OFFCURVE",
"162 366 CURVE SMOOTH",
"168 366 OFFCURVE",
"171 363 OFFCURVE",
"169 355 CURVE",
"137 200 OFFCURVE",
"139 154 OFFCURVE",
"105 -30 CURVE SMOOTH",
"90 -103 OFFCURVE",
"54 -129 OFFCURVE",
"8 -129 CURVE SMOOTH",
"-13 -129 OFFCURVE",
"-24 -130 OFFCURVE",
"-44 -122 CURVE",
"-52 -119 OFFCURVE",
"-54 -117 OFFCURVE",
"-57 -129 CURVE SMOOTH",
"-59 -136 OFFCURVE",
"-70 -191 OFFCURVE",
"-72 -198 CURVE",
"-74 -207 OFFCURVE",
"-72 -216 OFFCURVE",
"-65 -219 CURVE",
"-67 -219 OFFCURVE",
"-43 -230 OFFCURVE",
"2 -230 CURVE SMOOTH"
);
}
);
};
layerId = "D1BC8BBB-1669-4C46-BC21-42BF6808B2B9";
paths = (
{
closed = 1;
nodes = (
"157 -230 OFFCURVE",
"224 -157 OFFCURVE",
"247 -28 CURVE SMOOTH",
"278 145 OFFCURVE",
"278 178 OFFCURVE",
"302 296 CURVE SMOOTH",
"304 306 OFFCURVE",
"313 348 OFFCURVE",
"314 356 CURVE SMOOTH",
"315 362 OFFCURVE",
"322 366 OFFCURVE",
"325 366 CURVE SMOOTH",
"381 366 OFFCURVE",
"381 366 OFFCURVE",
"437 366 CURVE SMOOTH",
"452 366 OFFCURVE",
"456 367 OFFCURVE",
"458 382 CURVE",
"463 406 OFFCURVE",
"471 446 OFFCURVE",
"473 453 CURVE",
"477 471 OFFCURVE",
"473 472 OFFCURVE",
"463 472 CURVE SMOOTH",
"407 472 OFFCURVE",
"361 472 OFFCURVE",
"347 472 CURVE SMOOTH",
"341 472 OFFCURVE",
"340 476 OFFCURVE",
"341 481 CURVE SMOOTH",
"343 491 OFFCURVE",
"350 524 OFFCURVE",
"354 537 CURVE SMOOTH",
"369 583 OFFCURVE",
"400 608 OFFCURVE",
"437 608 CURVE SMOOTH",
"468 608 OFFCURVE",
"498 596 OFFCURVE",
"516 583 CURVE",
"524 576 OFFCURVE",
"528 577 OFFCURVE",
"538 595 CURVE",
"549 616 OFFCURVE",
"561 637 OFFCURVE",
"572 658 CURVE SMOOTH",
"578 670 OFFCURVE",
"577 676 OFFCURVE",
"561 685 CURVE SMOOTH",
"544 695 OFFCURVE",
"508 712 OFFCURVE",
"466 712 CURVE SMOOTH",
"367 712 OFFCURVE",
"303 681 OFFCURVE",
"266 640 CURVE SMOOTH",
"222 591 OFFCURVE",
"205 537 OFFCURVE",
"197 480 CURVE SMOOTH",
"196 473 OFFCURVE",
"193 472 OFFCURVE",
"188 472 CURVE SMOOTH",
"180 472 OFFCURVE",
"185 472 OFFCURVE",
"149 472 CURVE SMOOTH",
"135 472 OFFCURVE",
"131 473 OFFCURVE",
"128 455 CURVE",
"122 430 OFFCURVE",
"117 406 OFFCURVE",
"111 381 CURVE",
"108 366 OFFCURVE",
"114 366 OFFCURVE",
"123 366 CURVE SMOOTH",
"135 366 OFFCURVE",
"149 366 OFFCURVE",
"162 366 CURVE SMOOTH",
"168 366 OFFCURVE",
"171 363 OFFCURVE",
"169 355 CURVE",
"137 200 OFFCURVE",
"139 154 OFFCURVE",
"105 -30 CURVE SMOOTH",
"90 -103 OFFCURVE",
"54 -129 OFFCURVE",
"8 -129 CURVE SMOOTH",
"-13 -129 OFFCURVE",
"-24 -130 OFFCURVE",
"-44 -122 CURVE",
"-52 -119 OFFCURVE",
"-54 -117 OFFCURVE",
"-57 -129 CURVE SMOOTH",
"-59 -136 OFFCURVE",
"-70 -191 OFFCURVE",
"-72 -198 CURVE",
"-74 -207 OFFCURVE",
"-72 -216 OFFCURVE",
"-65 -219 CURVE",
"-67 -219 OFFCURVE",
"-43 -230 OFFCURVE",
"2 -230 CURVE SMOOTH"
);
}
);
width = 444;
}
);
leftKerningGroup = f;
note = f;
rightKerningGroup = f;
unicode = 0066;
},
{
color = 0;
glyphname = g;
lastChange = "2021-06-09 21:23:28 +0000";
layers = (
{
anchors = (
{
name = bottom;
position = "{172, -122}";
},
{
name = top;
position = "{298, 472}";
}
);
background = {
paths = (
{
closed = 1;
nodes = (
"-3 104 OFFCURVE",
"29 9 OFFCURVE",
"166 9 CURVE SMOOTH",
"207 9 OFFCURVE",
"254 19 OFFCURVE",
"291 29 CURVE SMOOTH",
"302 32 OFFCURVE",
"311 35 OFFCURVE",
"308 26 CURVE SMOOTH",
"308 23 OFFCURVE",
"306 20 OFFCURVE",
"306 18 CURVE SMOOTH",
"270 -74 OFFCURVE",
"200 -112 OFFCURVE",
"127 -112 CURVE SMOOTH",
"72 -112 OFFCURVE",
"33 -93 OFFCURVE",
"-1 -73 CURVE SMOOTH",
"-3 -72 OFFCURVE",
"-7 -71 OFFCURVE",
"-9 -74 CURVE",
"-13 -79 OFFCURVE",
"-17 -85 OFFCURVE",
"-21 -90 CURVE",
"-23 -93 OFFCURVE",
"-24 -94 OFFCURVE",
"-17 -100 CURVE SMOOTH",
"16 -129 OFFCURVE",
"70 -140 OFFCURVE",
"115 -140 CURVE SMOOTH",
"229 -140 OFFCURVE",
"303 -91 OFFCURVE",
"340 22 CURVE SMOOTH",
"394 183 OFFCURVE",
"416 327 OFFCURVE",
"425 415 CURVE SMOOTH",
"428 439 OFFCURVE",
"424 450 OFFCURVE",
"413 454 CURVE SMOOTH",
"379 470 OFFCURVE",
"327 478 OFFCURVE",
"276 478 CURVE SMOOTH",
"122 478 OFFCURVE",
"57 374 OFFCURVE",
"28 242 CURVE SMOOTH"
);
},
{
closed = 1;
nodes = (
"87 364 OFFCURVE",
"148 448 OFFCURVE",
"272 448 CURVE SMOOTH",
"312 448 OFFCURVE",
"358 441 OFFCURVE",
"376 432 CURVE SMOOTH",
"393 423 OFFCURVE",
"391 407 OFFCURVE",
"390 397 CURVE SMOOTH",
"381 323 OFFCURVE",
"357 178 OFFCURVE",
"329 87 CURVE SMOOTH",
"326 76 OFFCURVE",
"310 64 OFFCURVE",
"290 57 CURVE SMOOTH",
"258 46 OFFCURVE",
"218 41 OFFCURVE",
"181 41 CURVE SMOOTH",
"58 41 OFFCURVE",
"36 123 OFFCURVE",
"61 242 CURVE SMOOTH"
);
}
);
};
layerId = "707362F1-A677-446A-8636-E10BE3A7FAFF";
paths = (
{
closed = 1;
nodes = (
"15 104 OFFCURVE",
"47 9 OFFCURVE",
"184 9 CURVE SMOOTH",
"225 9 OFFCURVE",
"272 19 OFFCURVE",
"309 29 CURVE SMOOTH",
"320 32 OFFCURVE",
"329 35 OFFCURVE",
"326 26 CURVE SMOOTH",
"326 23 OFFCURVE",
"324 20 OFFCURVE",
"324 18 CURVE SMOOTH",
"288 -74 OFFCURVE",
"218 -112 OFFCURVE",
"145 -112 CURVE SMOOTH",
"90 -112 OFFCURVE",
"51 -93 OFFCURVE",
"17 -73 CURVE SMOOTH",
"15 -72 OFFCURVE",
"11 -71 OFFCURVE",
"9 -74 CURVE",
"5 -79 OFFCURVE",
"1 -85 OFFCURVE",
"-3 -90 CURVE",
"-5 -93 OFFCURVE",
"-6 -94 OFFCURVE",
"1 -100 CURVE SMOOTH",
"34 -129 OFFCURVE",
"88 -140 OFFCURVE",
"133 -140 CURVE SMOOTH",
"247 -140 OFFCURVE",
"321 -91 OFFCURVE",
"358 22 CURVE SMOOTH",
"412 183 OFFCURVE",
"434 327 OFFCURVE",
"443 415 CURVE SMOOTH",
"446 439 OFFCURVE",
"442 450 OFFCURVE",
"431 454 CURVE SMOOTH",
"397 470 OFFCURVE",
"345 478 OFFCURVE",
"294 478 CURVE SMOOTH",
"140 478 OFFCURVE",
"75 374 OFFCURVE",
"46 242 CURVE SMOOTH"
);
},
{
closed = 1;
nodes = (
"105 364 OFFCURVE",
"166 448 OFFCURVE",
"290 448 CURVE SMOOTH",
"330 448 OFFCURVE",
"376 441 OFFCURVE",
"394 432 CURVE SMOOTH",
"411 423 OFFCURVE",
"409 407 OFFCURVE",
"408 397 CURVE SMOOTH",
"399 323 OFFCURVE",
"375 178 OFFCURVE",
"347 87 CURVE SMOOTH",
"344 76 OFFCURVE",
"328 64 OFFCURVE",
"308 57 CURVE SMOOTH",
"276 46 OFFCURVE",
"236 41 OFFCURVE",
"199 41 CURVE SMOOTH",
"76 41 OFFCURVE",
"54 123 OFFCURVE",
"79 242 CURVE SMOOTH"
);
}
);
width = 495;
},
{
anchors = (
{
name = bottom;
position = "{146, -122}";
},
{
name = top;
position = "{305, 472}";
}
);
background = {
paths = (
{
closed = 1;
nodes = (
"2 105 OFFCURVE",
"93 45 OFFCURVE",
"195 45 CURVE SMOOTH",
"210 45 OFFCURVE",
"227 46 OFFCURVE",
"234 47 CURVE SMOOTH",
"247 49 OFFCURVE",
"247 40 OFFCURVE",
"245 31 CURVE SMOOTH",
"244 29 OFFCURVE",
"243 28 OFFCURVE",
"243 27 CURVE SMOOTH",
"227 -17 OFFCURVE",
"178 -21 OFFCURVE",
"155 -21 CURVE SMOOTH",
"132 -21 OFFCURVE",
"76 1 OFFCURVE",
"61 14 CURVE SMOOTH",
"47 25 OFFCURVE",
"45 24 OFFCURVE",
"30 6 CURVE SMOOTH",
"21 -5 OFFCURVE",
"-5 -38 OFFCURVE",
"-13 -48 CURVE SMOOTH",
"-23 -59 OFFCURVE",
"-17 -71 OFFCURVE",
"-13 -75 CURVE SMOOTH",
"34 -115 OFFCURVE",
"95 -127 OFFCURVE",
"146 -127 CURVE SMOOTH",
"272 -127 OFFCURVE",
"359 -74 OFFCURVE",
"399 42 CURVE SMOOTH",
"437 153 OFFCURVE",
"464 281 OFFCURVE",
"475 394 CURVE SMOOTH",
"478 430 OFFCURVE",
"481 440 OFFCURVE",
"446 454 CURVE SMOOTH",
"410 469 OFFCURVE",
"358 478 OFFCURVE",
"305 478 CURVE SMOOTH",
"129 478 OFFCURVE",
"60 378 OFFCURVE",
"31 242 CURVE SMOOTH"
);
},
{
closed = 1;
nodes = (
"205 335 OFFCURVE",
"229 383 OFFCURVE",
"277 383 CURVE SMOOTH",
"298 383 OFFCURVE",
"307 380 OFFCURVE",
"317 375 CURVE SMOOTH",
"321 373 OFFCURVE",
"322 360 OFFCURVE",
"320 354 CURVE SMOOTH",
"317 328 OFFCURVE",
"297 221 OFFCURVE",
"284 176 CURVE SMOOTH",
"281 165 OFFCURVE",
"277 160 OFFCURVE",
"269 157 CURVE SMOOTH",
"257 152 OFFCURVE",
"243 151 OFFCURVE",
"228 151 CURVE SMOOTH",
"178 151 OFFCURVE",
"176 201 OFFCURVE",
"190 267 CURVE SMOOTH"
);
}
);
};
layerId = "D1BC8BBB-1669-4C46-BC21-42BF6808B2B9";
paths = (
{
closed = 1;
nodes = (
"2 105 OFFCURVE",
"93 45 OFFCURVE",
"195 45 CURVE SMOOTH",
"210 45 OFFCURVE",
"227 46 OFFCURVE",
"234 47 CURVE SMOOTH",
"247 49 OFFCURVE",
"247 40 OFFCURVE",
"245 31 CURVE SMOOTH",
"244 29 OFFCURVE",
"243 28 OFFCURVE",
"243 27 CURVE SMOOTH",
"227 -17 OFFCURVE",
"178 -21 OFFCURVE",
"155 -21 CURVE SMOOTH",
"132 -21 OFFCURVE",
"76 1 OFFCURVE",
"61 14 CURVE SMOOTH",
"47 25 OFFCURVE",
"45 24 OFFCURVE",
"30 6 CURVE SMOOTH",
"21 -5 OFFCURVE",
"-5 -38 OFFCURVE",
"-13 -48 CURVE SMOOTH",
"-23 -59 OFFCURVE",
"-17 -71 OFFCURVE",
"-13 -75 CURVE SMOOTH",
"34 -115 OFFCURVE",
"95 -127 OFFCURVE",
"146 -127 CURVE SMOOTH",
"272 -127 OFFCURVE",
"359 -74 OFFCURVE",
"399 42 CURVE SMOOTH",
"437 153 OFFCURVE",
"464 281 OFFCURVE",
"475 394 CURVE SMOOTH",
"478 430 OFFCURVE",
"481 440 OFFCURVE",
"446 454 CURVE SMOOTH",
"410 469 OFFCURVE",
"358 478 OFFCURVE",
"305 478 CURVE SMOOTH",
"129 478 OFFCURVE",
"60 378 OFFCURVE",
"31 242 CURVE SMOOTH"
);
},
{
closed = 1;
nodes = (
"205 335 OFFCURVE",
"229 383 OFFCURVE",
"277 383 CURVE SMOOTH",
"298 383 OFFCURVE",
"307 380 OFFCURVE",
"317 375 CURVE SMOOTH",
"321 373 OFFCURVE",
"322 360 OFFCURVE",
"320 354 CURVE SMOOTH",
"317 328 OFFCURVE",
"297 221 OFFCURVE",
"284 176 CURVE SMOOTH",
"281 165 OFFCURVE",
"277 160 OFFCURVE",
"269 157 CURVE SMOOTH",
"257 152 OFFCURVE",
"243 151 OFFCURVE",
"228 151 CURVE SMOOTH",
"178 151 OFFCURVE",
"176 201 OFFCURVE",
"190 267 CURVE SMOOTH"
);
}
);
width = 483;
}
);
leftKerningGroup = o;
leftMetricsKey = o;
note = g;
rightKerningGroup = g;
rightMetricsKey = d;
unicode = 0067;
},
{
glyphname = h;
lastChange = "2021-06-09 21:23:28 +0000";
layers = (
{
background = {
paths = (
{
closed = 1;
nodes = (
"22 1 OFFCURVE",
"23 0 OFFCURVE",
"26 0 CURVE SMOOTH",
"51 0 LINE SMOOTH",
"54 0 OFFCURVE",
"55 1 OFFCURVE",
"56 4 CURVE SMOOTH",
"140 401 LINE SMOOTH",
"144 419 OFFCURVE",
"154 424 OFFCURVE",
"164 426 CURVE SMOOTH",
"204 435 OFFCURVE",
"254 444 OFFCURVE",
"287 444 CURVE SMOOTH",
"352 444 OFFCURVE",
"420 414 OFFCURVE",
"381 230 CURVE SMOOTH",
"365 157 OFFCURVE",
"345 74 OFFCURVE",
"324 7 CURVE SMOOTH",
"323 1 OFFCURVE",
"324 0 OFFCURVE",
"330 0 CURVE SMOOTH",
"335 0 OFFCURVE",
"341 0 OFFCURVE",
"346 0 CURVE SMOOTH",
"352 0 OFFCURVE",
"355 1 OFFCURVE",
"356 5 CURVE SMOOTH",
"376 70 OFFCURVE",
"398 156 OFFCURVE",
"414 230 CURVE SMOOTH",
"457 433 OFFCURVE",
"379 476 OFFCURVE",
"294 476 CURVE SMOOTH",
"248 476 OFFCURVE",
"205 465 OFFCURVE",
"163 454 CURVE SMOOTH",
"152 451 OFFCURVE",
"152 455 OFFCURVE",
"153 463 CURVE SMOOTH",
"170 543 OFFCURVE",
"188 624 OFFCURVE",
"205 704 CURVE SMOOTH",
"205 707 OFFCURVE",
"204 708 OFFCURVE",
"201 708 CURVE SMOOTH",
"193 708 OFFCURVE",
"184 708 OFFCURVE",
"176 708 CURVE SMOOTH",
"173 708 OFFCURVE",
"172 707 OFFCURVE",
"172 704 CURVE SMOOTH",
"122 471 OFFCURVE",
"72 237 OFFCURVE",
"23 4 CURVE SMOOTH"
);
}
);
};
layerId = "707362F1-A677-446A-8636-E10BE3A7FAFF";
paths = (
{
closed = 1;
nodes = (
"30 1 OFFCURVE",
"31 0 OFFCURVE",
"34 0 CURVE SMOOTH",
"59 0 LINE SMOOTH",
"62 0 OFFCURVE",
"63 1 OFFCURVE",
"64 4 CURVE SMOOTH",
"148 401 LINE SMOOTH",
"152 419 OFFCURVE",
"162 424 OFFCURVE",
"172 426 CURVE SMOOTH",
"212 435 OFFCURVE",
"262 444 OFFCURVE",
"295 444 CURVE SMOOTH",
"360 444 OFFCURVE",
"428 414 OFFCURVE",
"389 230 CURVE SMOOTH",
"373 157 OFFCURVE",
"353 74 OFFCURVE",
"332 7 CURVE SMOOTH",
"331 1 OFFCURVE",
"332 0 OFFCURVE",
"338 0 CURVE SMOOTH",
"343 0 OFFCURVE",
"349 0 OFFCURVE",
"354 0 CURVE SMOOTH",
"360 0 OFFCURVE",
"363 1 OFFCURVE",
"364 5 CURVE SMOOTH",
"384 70 OFFCURVE",
"406 156 OFFCURVE",
"422 230 CURVE SMOOTH",
"465 433 OFFCURVE",
"387 476 OFFCURVE",
"302 476 CURVE SMOOTH",
"256 476 OFFCURVE",
"213 465 OFFCURVE",
"171 454 CURVE SMOOTH",
"160 451 OFFCURVE",
"160 455 OFFCURVE",
"161 463 CURVE SMOOTH",
"178 543 OFFCURVE",
"196 624 OFFCURVE",
"213 704 CURVE SMOOTH",
"213 707 OFFCURVE",
"212 708 OFFCURVE",
"209 708 CURVE SMOOTH",
"201 708 OFFCURVE",
"192 708 OFFCURVE",
"184 708 CURVE SMOOTH",
"181 708 OFFCURVE",
"180 707 OFFCURVE",
"180 704 CURVE SMOOTH",
"130 471 OFFCURVE",
"80 237 OFFCURVE",
"31 4 CURVE SMOOTH"
);
}
);
width = 495;
},
{
background = {
paths = (
{
closed = 1;
nodes = (
"-9 6 OFFCURVE",
"-4 0 OFFCURVE",
"6 0 CURVE SMOOTH",
"123 0 LINE SMOOTH",
"131 0 OFFCURVE",
"138 6 OFFCURVE",
"140 14 CURVE SMOOTH",
"211 347 LINE SMOOTH",
"213 358 OFFCURVE",
"220 365 OFFCURVE",
"228 368 CURVE SMOOTH",
"235 371 OFFCURVE",
"242 372 OFFCURVE",
"249 372 CURVE SMOOTH",
"317 372 OFFCURVE",
"300 294 OFFCURVE",
"276 190 CURVE SMOOTH",
"263 135 OFFCURVE",
"247 78 OFFCURVE",
"230 27 CURVE",
"219 0 OFFCURVE",
"217 0 OFFCURVE",
"241 0 CURVE SMOOTH",
"277 0 OFFCURVE",
"313 0 OFFCURVE",
"349 0 CURVE SMOOTH",
"360 0 OFFCURVE",
"367 1 OFFCURVE",
"370 11 CURVE",
"392 65 OFFCURVE",
"423 163 OFFCURVE",
"438 249 CURVE SMOOTH",
"466 407 OFFCURVE",
"441 479 OFFCURVE",
"312 479 CURVE SMOOTH",
"290 479 OFFCURVE",
"257 473 OFFCURVE",
"250 471 CURVE SMOOTH",
"243 468 OFFCURVE",
"236 468 OFFCURVE",
"239 480 CURVE SMOOTH",
"254 551 OFFCURVE",
"269 623 OFFCURVE",
"285 694 CURVE SMOOTH",
"286 702 OFFCURVE",
"281 708 OFFCURVE",
"273 708 CURVE SMOOTH",
"234 708 OFFCURVE",
"195 708 OFFCURVE",
"156 708 CURVE SMOOTH",
"146 708 OFFCURVE",
"139 702 OFFCURVE",
"138 694 CURVE SMOOTH",
"89 467 OFFCURVE",
"41 241 OFFCURVE",
"-7 14 CURVE SMOOTH"
);
}
);
};
layerId = "D1BC8BBB-1669-4C46-BC21-42BF6808B2B9";
paths = (
{
closed = 1;
nodes = (
"-9 6 OFFCURVE",
"-4 0 OFFCURVE",
"6 0 CURVE SMOOTH",
"123 0 LINE SMOOTH",
"131 0 OFFCURVE",
"138 6 OFFCURVE",
"140 14 CURVE SMOOTH",
"211 347 LINE SMOOTH",
"213 358 OFFCURVE",
"220 365 OFFCURVE",
"228 368 CURVE SMOOTH",
"235 371 OFFCURVE",
"242 372 OFFCURVE",
"249 372 CURVE SMOOTH",
"317 372 OFFCURVE",
"300 294 OFFCURVE",
"276 190 CURVE SMOOTH",
"263 135 OFFCURVE",
"247 78 OFFCURVE",
"230 27 CURVE",
"219 0 OFFCURVE",
"217 0 OFFCURVE",
"241 0 CURVE SMOOTH",
"277 0 OFFCURVE",
"313 0 OFFCURVE",
"349 0 CURVE SMOOTH",
"360 0 OFFCURVE",
"367 1 OFFCURVE",
"370 11 CURVE",
"392 65 OFFCURVE",
"423 163 OFFCURVE",
"438 249 CURVE SMOOTH",
"466 407 OFFCURVE",
"441 479 OFFCURVE",
"312 479 CURVE SMOOTH",
"290 479 OFFCURVE",
"257 473 OFFCURVE",
"250 471 CURVE SMOOTH",
"243 468 OFFCURVE",
"236 468 OFFCURVE",
"239 480 CURVE SMOOTH",
"254 551 OFFCURVE",
"269 623 OFFCURVE",
"285 694 CURVE SMOOTH",
"286 702 OFFCURVE",
"281 708 OFFCURVE",
"273 708 CURVE SMOOTH",
"234 708 OFFCURVE",
"195 708 OFFCURVE",
"156 708 CURVE SMOOTH",
"146 708 OFFCURVE",
"139 702 OFFCURVE",
"138 694 CURVE SMOOTH",
"89 467 OFFCURVE",
"41 241 OFFCURVE",
"-7 14 CURVE SMOOTH"
);
}
);
width = 464;
}
);
leftKerningGroup = h;
leftMetricsKey = n;
note = h;
rightKerningGroup = n;
rightMetricsKey = n;
unicode = 0068;
},
{
glyphname = i;
lastChange = "2021-06-09 21:23:28 +0000";
layers = (
{
anchors = (
{
name = bottom;
position = "{48, 0}";
}
);
background = {
paths = (
{
closed = 1;
nodes = (
"167 617 OFFCURVE",
"167 624 OFFCURVE",
"147 624 CURVE SMOOTH",
"128 624 OFFCURVE",
"122 617 OFFCURVE",
"119 603 CURVE SMOOTH",
"116 588 OFFCURVE",
"119 582 OFFCURVE",
"138 582 CURVE SMOOTH",
"158 582 OFFCURVE",
"161 588 OFFCURVE",
"164 603 CURVE SMOOTH"
);
},
{
closed = 1;
nodes = (
"130 468 LINE SMOOTH",
"131 471 OFFCURVE",
"129 472 OFFCURVE",
"128 472 CURVE SMOOTH",
"102 472 LINE SMOOTH",
"99 472 OFFCURVE",
"98 471 OFFCURVE",
"97 468 CURVE SMOOTH",
"-1 4 LINE SMOOTH",
"-2 1 OFFCURVE",
"-1 0 OFFCURVE",
"2 0 CURVE SMOOTH",
"28 0 LINE SMOOTH",
"29 0 OFFCURVE",
"31 1 OFFCURVE",
"32 4 CURVE SMOOTH"
);
}
);
};
layerId = "707362F1-A677-446A-8636-E10BE3A7FAFF";
paths = (
{
closed = 1;
nodes = (
"201 617 OFFCURVE",
"201 624 OFFCURVE",
"181 624 CURVE SMOOTH",
"162 624 OFFCURVE",
"156 617 OFFCURVE",
"153 603 CURVE SMOOTH",
"150 588 OFFCURVE",
"153 582 OFFCURVE",
"172 582 CURVE SMOOTH",
"192 582 OFFCURVE",
"195 588 OFFCURVE",
"198 603 CURVE SMOOTH"
);
},
{
closed = 1;
nodes = (
"164 468 LINE SMOOTH",
"165 471 OFFCURVE",
"163 472 OFFCURVE",
"162 472 CURVE SMOOTH",
"136 472 LINE SMOOTH",
"133 472 OFFCURVE",
"132 471 OFFCURVE",
"131 468 CURVE SMOOTH",
"33 4 LINE SMOOTH",
"32 1 OFFCURVE",
"33 0 OFFCURVE",
"36 0 CURVE SMOOTH",
"62 0 LINE SMOOTH",
"63 0 OFFCURVE",
"65 1 OFFCURVE",
"66 4 CURVE SMOOTH"
);
}
);
width = 195;
},
{
anchors = (
{
name = bottom;
position = "{60, 0}";
}
);
background = {
paths = (
{
closed = 1;
nodes = (
"274 640 OFFCURVE",
"269 667 OFFCURVE",
"204 667 CURVE SMOOTH",
"145 667 OFFCURVE",
"121 640 OFFCURVE",
"113 601 CURVE SMOOTH",
"103 556 OFFCURVE",
"116 532 OFFCURVE",
"175 532 CURVE SMOOTH",
"236 532 OFFCURVE",
"256 556 OFFCURVE",
"266 601 CURVE SMOOTH"
);
},
{
closed = 1;
nodes = (
"232 458 LINE SMOOTH",
"234 466 OFFCURVE",
"228 472 OFFCURVE",
"220 472 CURVE SMOOTH",
"103 472 LINE SMOOTH",
"95 472 OFFCURVE",
"88 466 OFFCURVE",
"86 458 CURVE SMOOTH",
"-8 14 LINE SMOOTH",
"-10 6 OFFCURVE",
"-5 0 OFFCURVE",
"3 0 CURVE SMOOTH",
"120 0 LINE SMOOTH",
"128 0 OFFCURVE",
"136 6 OFFCURVE",
"138 14 CURVE SMOOTH"
);
}
);
};
layerId = "D1BC8BBB-1669-4C46-BC21-42BF6808B2B9";
paths = (
{
closed = 1;
nodes = (
"274 640 OFFCURVE",
"269 667 OFFCURVE",
"204 667 CURVE SMOOTH",
"145 667 OFFCURVE",
"121 640 OFFCURVE",
"113 601 CURVE SMOOTH",
"103 556 OFFCURVE",
"116 532 OFFCURVE",
"175 532 CURVE SMOOTH",
"236 532 OFFCURVE",
"256 556 OFFCURVE",
"266 601 CURVE SMOOTH"
);
},
{
closed = 1;
nodes = (
"232 458 LINE SMOOTH",
"234 466 OFFCURVE",
"228 472 OFFCURVE",
"220 472 CURVE SMOOTH",
"103 472 LINE SMOOTH",
"95 472 OFFCURVE",
"88 466 OFFCURVE",
"86 458 CURVE SMOOTH",
"-8 14 LINE SMOOTH",
"-10 6 OFFCURVE",
"-5 0 OFFCURVE",
"3 0 CURVE SMOOTH",
"120 0 LINE SMOOTH",
"128 0 OFFCURVE",
"136 6 OFFCURVE",
"138 14 CURVE SMOOTH"
);
}
);
width = 215;
}
);
leftKerningGroup = i;
leftMetricsKey = "=n-5";
note = i;
rightKerningGroup = i;
rightMetricsKey = "=d-5";
unicode = 0069;
},
{
color = 0;
glyphname = j;
lastChange = "2021-06-09 21:23:28 +0000";
layers = (
{
background = {
paths = (
{
closed = 1;
nodes = (
"-260 -127 OFFCURVE",
"-221 -70 OFFCURVE",
"-200 30 CURVE SMOOTH",
"-106 468 LINE SMOOTH",
"-105 471 OFFCURVE",
"-108 472 OFFCURVE",
"-109 472 CURVE SMOOTH",
"-135 472 LINE SMOOTH",
"-137 472 OFFCURVE",
"-138 471 OFFCURVE",
"-139 468 CURVE SMOOTH",
"-233 30 LINE SMOOTH",
"-251 -53 OFFCURVE",
"-277 -98 OFFCURVE",
"-359 -98 CURVE SMOOTH",
"-381 -98 OFFCURVE",
"-406 -93 OFFCURVE",
"-424 -85 CURVE SMOOTH",
"-428 -83 OFFCURVE",
"-430 -84 OFFCURVE",
"-433 -88 CURVE SMOOTH",
"-442 -101 LINE SMOOTH",
"-445 -106 OFFCURVE",
"-444 -109 OFFCURVE",
"-436 -114 CURVE SMOOTH",
"-422 -123 OFFCURVE",
"-384 -127 OFFCURVE",
"-361 -127 CURVE SMOOTH"
);
},
{
closed = 1;
nodes = (
"-78 582 OFFCURVE",
"-74 588 OFFCURVE",
"-71 603 CURVE SMOOTH",
"-68 617 OFFCURVE",
"-69 624 OFFCURVE",
"-89 624 CURVE SMOOTH",
"-108 624 OFFCURVE",
"-113 617 OFFCURVE",
"-116 603 CURVE SMOOTH",
"-119 588 OFFCURVE",
"-117 582 OFFCURVE",
"-98 582 CURVE SMOOTH"
);
}
);
};
layerId = "707362F1-A677-446A-8636-E10BE3A7FAFF";
paths = (
{
closed = 1;
nodes = (
"11 -127 OFFCURVE",
"50 -70 OFFCURVE",
"71 30 CURVE SMOOTH",
"165 468 LINE SMOOTH",
"166 471 OFFCURVE",
"163 472 OFFCURVE",
"162 472 CURVE SMOOTH",
"136 472 LINE SMOOTH",
"134 472 OFFCURVE",
"133 471 OFFCURVE",
"132 468 CURVE SMOOTH",
"38 30 LINE SMOOTH",
"20 -53 OFFCURVE",
"-6 -98 OFFCURVE",
"-88 -98 CURVE SMOOTH",
"-110 -98 OFFCURVE",
"-135 -93 OFFCURVE",
"-153 -85 CURVE SMOOTH",
"-157 -83 OFFCURVE",
"-159 -84 OFFCURVE",
"-162 -88 CURVE SMOOTH",
"-171 -101 LINE SMOOTH",
"-174 -106 OFFCURVE",
"-173 -109 OFFCURVE",
"-165 -114 CURVE SMOOTH",
"-151 -123 OFFCURVE",
"-113 -127 OFFCURVE",
"-90 -127 CURVE SMOOTH"
);
},
{
closed = 1;
nodes = (
"193 582 OFFCURVE",
"197 588 OFFCURVE",
"200 603 CURVE SMOOTH",
"203 617 OFFCURVE",
"202 624 OFFCURVE",
"182 624 CURVE SMOOTH",
"163 624 OFFCURVE",
"158 617 OFFCURVE",
"155 603 CURVE SMOOTH",
"152 588 OFFCURVE",
"154 582 OFFCURVE",
"173 582 CURVE SMOOTH"
);
}
);
width = 182;
},
{
background = {
paths = (
{
closed = 1;
nodes = (
"81 -127 OFFCURVE",
"135 -63 OFFCURVE",
"157 43 CURVE SMOOTH",
"245 458 LINE SMOOTH",
"247 466 OFFCURVE",
"241 472 OFFCURVE",
"233 472 CURVE SMOOTH",
"116 472 LINE SMOOTH",
"108 472 OFFCURVE",
"101 466 OFFCURVE",
"99 458 CURVE SMOOTH",
"10 43 LINE SMOOTH",
"1 -1 OFFCURVE",
"-32 -27 OFFCURVE",
"-53 -29 CURVE SMOOTH",
"-62 -30 OFFCURVE",
"-73 -27 OFFCURVE",
"-83 -21 CURVE SMOOTH",
"-92 -16 OFFCURVE",
"-99 -12 OFFCURVE",
"-107 -23 CURVE SMOOTH",
"-144 -71 LINE SMOOTH",
"-154 -85 OFFCURVE",
"-153 -89 OFFCURVE",
"-132 -104 CURVE SMOOTH",
"-109 -119 OFFCURVE",
"-72 -127 OFFCURVE",
"-35 -127 CURVE SMOOTH"
);
},
{
closed = 1;
nodes = (
"247 532 OFFCURVE",
"267 556 OFFCURVE",
"277 601 CURVE SMOOTH",
"285 640 OFFCURVE",
"280 667 OFFCURVE",
"215 667 CURVE SMOOTH",
"156 667 OFFCURVE",
"132 640 OFFCURVE",
"124 601 CURVE SMOOTH",
"114 556 OFFCURVE",
"127 532 OFFCURVE",
"186 532 CURVE SMOOTH"
);
},
{
closed = 1;
nodes = (
"81 -127 OFFCURVE",
"135 -63 OFFCURVE",
"157 43 CURVE SMOOTH",
"245 458 LINE SMOOTH",
"247 466 OFFCURVE",
"241 472 OFFCURVE",
"233 472 CURVE SMOOTH",
"116 472 LINE SMOOTH",
"108 472 OFFCURVE",
"101 466 OFFCURVE",
"99 458 CURVE SMOOTH",
"10 43 LINE SMOOTH",
"1 -1 OFFCURVE",
"-32 -27 OFFCURVE",
"-53 -29 CURVE SMOOTH",
"-62 -30 OFFCURVE",
"-73 -27 OFFCURVE",
"-83 -21 CURVE SMOOTH",
"-92 -16 OFFCURVE",
"-99 -12 OFFCURVE",
"-107 -23 CURVE SMOOTH",
"-144 -71 LINE SMOOTH",
"-154 -85 OFFCURVE",
"-153 -89 OFFCURVE",
"-132 -104 CURVE SMOOTH",
"-109 -119 OFFCURVE",
"-72 -127 OFFCURVE",
"-35 -127 CURVE SMOOTH"
);
},
{
closed = 1;
nodes = (
"247 532 OFFCURVE",
"267 556 OFFCURVE",
"277 601 CURVE SMOOTH",
"285 640 OFFCURVE",
"280 667 OFFCURVE",
"215 667 CURVE SMOOTH",
"156 667 OFFCURVE",
"132 640 OFFCURVE",
"124 601 CURVE SMOOTH",
"114 556 OFFCURVE",
"127 532 OFFCURVE",
"186 532 CURVE SMOOTH"
);
}
);
};
layerId = "D1BC8BBB-1669-4C46-BC21-42BF6808B2B9";
paths = (
{
closed = 1;
nodes = (
"79 -126 OFFCURVE",
"131 -62 OFFCURVE",
"153 44 CURVE SMOOTH",
"241 458 LINE SMOOTH",
"243 466 OFFCURVE",
"237 472 OFFCURVE",
"229 472 CURVE SMOOTH",
"112 472 LINE SMOOTH",
"104 472 OFFCURVE",
"97 466 OFFCURVE",
"95 458 CURVE SMOOTH",
"7 44 LINE SMOOTH",
"-2 0 OFFCURVE",
"-34 -26 OFFCURVE",
"-55 -28 CURVE SMOOTH",
"-64 -29 OFFCURVE",
"-75 -26 OFFCURVE",
"-85 -20 CURVE SMOOTH",
"-94 -15 OFFCURVE",
"-101 -11 OFFCURVE",
"-109 -22 CURVE SMOOTH",
"-145 -71 LINE SMOOTH",
"-156 -84 OFFCURVE",
"-155 -88 OFFCURVE",
"-134 -103 CURVE SMOOTH",
"-111 -118 OFFCURVE",
"-74 -126 OFFCURVE",
"-37 -126 CURVE SMOOTH"
);
},
{
closed = 1;
nodes = (
"244 532 OFFCURVE",
"264 556 OFFCURVE",
"274 601 CURVE SMOOTH",
"282 640 OFFCURVE",
"277 667 OFFCURVE",
"212 667 CURVE SMOOTH",
"153 667 OFFCURVE",
"129 640 OFFCURVE",
"121 601 CURVE SMOOTH",
"111 556 OFFCURVE",
"124 532 OFFCURVE",
"183 532 CURVE SMOOTH"
);
}
);
width = 226;
}
);
leftKerningGroup = j;
note = j;
rightKerningGroup = j;
unicode = 006A;
},
{
glyphname = k;
lastChange = "2021-06-09 21:23:28 +0000";
layers = (
{
anchors = (
{
name = bottom;
position = "{191, 0}";
},
{
name = top;
position = "{312, 708}";
}
);
background = {
paths = (
{
closed = 1;
nodes = (
"22 1 OFFCURVE",
"23 0 OFFCURVE",
"26 0 CURVE SMOOTH",
"51 0 LINE SMOOTH",
"54 0 OFFCURVE",
"55 1 OFFCURVE",
"56 4 CURVE SMOOTH",
"106 240 LINE SMOOTH",
"107 243 OFFCURVE",
"110 247 OFFCURVE",
"114 247 CURVE SMOOTH",
"199 247 OFFCURVE",
"210 246 OFFCURVE",
"220 230 CURVE SMOOTH",
"266 164 OFFCURVE",
"290 7 OFFCURVE",
"290 7 CURVE",
"293 -1 OFFCURVE",
"293 0 OFFCURVE",
"298 0 CURVE SMOOTH",
"307 0 OFFCURVE",
"316 0 OFFCURVE",
"325 0 CURVE SMOOTH",
"330 0 OFFCURVE",
"331 4 OFFCURVE",
"330 8 CURVE SMOOTH",
"328 14 OFFCURVE",
"291 195 OFFCURVE",
"248 255 CURVE SMOOTH",
"247 257 OFFCURVE",
"244 260 OFFCURVE",
"243 262 CURVE",
"248 267 OFFCURVE",
"253 272 OFFCURVE",
"259 277 CURVE SMOOTH",
"333 351 OFFCURVE",
"407 466 OFFCURVE",
"407 466 CURVE",
"410 471 OFFCURVE",
"408 472 OFFCURVE",
"404 472 CURVE SMOOTH",
"378 472 LINE SMOOTH",
"374 472 OFFCURVE",
"372 471 OFFCURVE",
"369 465 CURVE",
"338 415 OFFCURVE",
"281 335 OFFCURVE",
"226 286 CURVE SMOOTH",
"213 275 OFFCURVE",
"209 275 OFFCURVE",
"196 275 CURVE SMOOTH",
"170 275 OFFCURVE",
"145 275 OFFCURVE",
"119 275 CURVE SMOOTH",
"114 275 OFFCURVE",
"114 278 OFFCURVE",
"115 281 CURVE SMOOTH",
"205 704 LINE SMOOTH",
"205 707 OFFCURVE",
"204 708 OFFCURVE",
"201 708 CURVE SMOOTH",
"176 708 LINE SMOOTH",
"173 708 OFFCURVE",
"172 707 OFFCURVE",
"172 704 CURVE SMOOTH",
"23 4 LINE SMOOTH"
);
}
);
};
layerId = "707362F1-A677-446A-8636-E10BE3A7FAFF";
paths = (
{
closed = 1;
nodes = (
"30 1 OFFCURVE",
"31 0 OFFCURVE",
"34 0 CURVE SMOOTH",
"59 0 LINE SMOOTH",
"62 0 OFFCURVE",
"63 1 OFFCURVE",
"64 4 CURVE SMOOTH",
"114 240 LINE SMOOTH",
"115 243 OFFCURVE",
"118 247 OFFCURVE",
"122 247 CURVE SMOOTH",
"207 247 OFFCURVE",
"218 246 OFFCURVE",
"228 230 CURVE SMOOTH",
"274 164 OFFCURVE",
"298 7 OFFCURVE",
"298 7 CURVE",
"301 -1 OFFCURVE",
"301 0 OFFCURVE",
"306 0 CURVE SMOOTH",
"315 0 OFFCURVE",
"324 0 OFFCURVE",
"333 0 CURVE SMOOTH",
"338 0 OFFCURVE",
"339 4 OFFCURVE",
"338 8 CURVE SMOOTH",
"336 14 OFFCURVE",
"299 195 OFFCURVE",
"256 255 CURVE SMOOTH",
"255 257 OFFCURVE",
"252 260 OFFCURVE",
"251 262 CURVE",
"256 267 OFFCURVE",
"261 272 OFFCURVE",
"267 277 CURVE SMOOTH",
"341 351 OFFCURVE",
"415 466 OFFCURVE",
"415 466 CURVE",
"418 471 OFFCURVE",
"416 472 OFFCURVE",
"412 472 CURVE SMOOTH",
"386 472 LINE SMOOTH",
"382 472 OFFCURVE",
"380 471 OFFCURVE",
"377 465 CURVE",
"346 415 OFFCURVE",
"289 335 OFFCURVE",
"234 286 CURVE SMOOTH",
"221 275 OFFCURVE",
"217 275 OFFCURVE",
"204 275 CURVE SMOOTH",
"178 275 OFFCURVE",
"153 275 OFFCURVE",
"127 275 CURVE SMOOTH",
"122 275 OFFCURVE",
"122 278 OFFCURVE",
"123 281 CURVE SMOOTH",
"213 704 LINE SMOOTH",
"214 707 OFFCURVE",
"212 708 OFFCURVE",
"209 708 CURVE SMOOTH",
"184 708 LINE SMOOTH",
"181 708 OFFCURVE",
"181 707 OFFCURVE",
"180 704 CURVE SMOOTH",
"31 4 LINE SMOOTH"
);
}
);
width = 423;
},
{
anchors = (
{
name = bottom;
position = "{193, 0}";
},
{
name = top;
position = "{324, 687}";
}
);
background = {
paths = (
{
closed = 1;
nodes = (
"-10 1 OFFCURVE",
"-9 0 OFFCURVE",
"-6 0 CURVE SMOOTH",
"133 0 LINE SMOOTH",
"136 0 OFFCURVE",
"137 1 OFFCURVE",
"138 4 CURVE SMOOTH",
"176 185 LINE SMOOTH",
"178 193 OFFCURVE",
"179 198 OFFCURVE",
"182 201 CURVE SMOOTH",
"193 214 OFFCURVE",
"205 183 OFFCURVE",
"209 168 CURVE SMOOTH",
"216 144 OFFCURVE",
"261 7 OFFCURVE",
"261 7 CURVE",
"264 -1 OFFCURVE",
"264 0 OFFCURVE",
"269 0 CURVE SMOOTH",
"278 0 OFFCURVE",
"398 0 OFFCURVE",
"407 0 CURVE SMOOTH",
"412 0 OFFCURVE",
"413 4 OFFCURVE",
"412 8 CURVE SMOOTH",
"410 14 OFFCURVE",
"376 197 OFFCURVE",
"330 255 CURVE SMOOTH",
"329 257 OFFCURVE",
"321 260 OFFCURVE",
"320 262 CURVE",
"325 267 OFFCURVE",
"328 270 OFFCURVE",
"336 277 CURVE SMOOTH",
"405 343 OFFCURVE",
"469 441 OFFCURVE",
"477 455 CURVE",
"480 460 OFFCURVE",
"485 472 OFFCURVE",
"472 472 CURVE SMOOTH",
"354 472 LINE SMOOTH",
"335 472 OFFCURVE",
"330 472 OFFCURVE",
"321 458 CURVE SMOOTH",
"291 408 OFFCURVE",
"273 383 OFFCURVE",
"240 343 CURVE SMOOTH",
"229 330 OFFCURVE",
"225 326 OFFCURVE",
"214 317 CURVE SMOOTH",
"212 315 OFFCURVE",
"207 312 OFFCURVE",
"205 312 CURVE SMOOTH",
"203 312 OFFCURVE",
"205 320 OFFCURVE",
"206 323 CURVE SMOOTH",
"280 674 LINE SMOOTH",
"281 677 OFFCURVE",
"280 678 OFFCURVE",
"277 678 CURVE SMOOTH",
"138 678 LINE SMOOTH",
"135 678 OFFCURVE",
"134 677 OFFCURVE",
"133 674 CURVE SMOOTH",
"-9 4 LINE SMOOTH"
);
}
);
};
layerId = "D1BC8BBB-1669-4C46-BC21-42BF6808B2B9";
paths = (
{
closed = 1;
nodes = (
"-10 1 OFFCURVE",
"-9 0 OFFCURVE",
"-6 0 CURVE SMOOTH",
"133 0 LINE SMOOTH",
"136 0 OFFCURVE",
"137 1 OFFCURVE",
"138 4 CURVE SMOOTH",
"176 185 LINE SMOOTH",
"178 193 OFFCURVE",
"179 198 OFFCURVE",
"182 201 CURVE SMOOTH",
"193 214 OFFCURVE",
"205 183 OFFCURVE",
"209 168 CURVE SMOOTH",
"216 144 OFFCURVE",
"261 7 OFFCURVE",
"261 7 CURVE",
"264 -1 OFFCURVE",
"264 0 OFFCURVE",
"269 0 CURVE SMOOTH",
"278 0 OFFCURVE",
"398 0 OFFCURVE",
"407 0 CURVE SMOOTH",
"412 0 OFFCURVE",
"413 4 OFFCURVE",
"412 8 CURVE SMOOTH",
"410 14 OFFCURVE",
"376 197 OFFCURVE",
"330 255 CURVE SMOOTH",
"329 257 OFFCURVE",
"321 260 OFFCURVE",
"320 262 CURVE",
"325 267 OFFCURVE",
"328 270 OFFCURVE",
"336 277 CURVE SMOOTH",
"405 343 OFFCURVE",
"469 441 OFFCURVE",
"477 455 CURVE",
"480 460 OFFCURVE",
"485 472 OFFCURVE",
"472 472 CURVE SMOOTH",
"354 472 LINE SMOOTH",
"335 472 OFFCURVE",
"330 472 OFFCURVE",
"321 458 CURVE SMOOTH",
"291 408 OFFCURVE",
"273 383 OFFCURVE",
"240 343 CURVE SMOOTH",
"229 330 OFFCURVE",
"225 326 OFFCURVE",
"214 317 CURVE SMOOTH",
"212 315 OFFCURVE",
"207 312 OFFCURVE",
"205 312 CURVE SMOOTH",
"203 312 OFFCURVE",
"205 320 OFFCURVE",
"206 323 CURVE SMOOTH",
"280 674 LINE SMOOTH",
"281 677 OFFCURVE",
"280 678 OFFCURVE",
"277 678 CURVE SMOOTH",
"138 678 LINE SMOOTH",
"135 678 OFFCURVE",
"134 677 OFFCURVE",
"133 674 CURVE SMOOTH",
"-9 4 LINE SMOOTH"
);
}
);
width = 456;
}
);
leftKerningGroup = l;
leftMetricsKey = n;
note = k;
rightKerningGroup = k;
unicode = 006B;
},
{
glyphname = l;
lastChange = "2021-06-09 21:23:28 +0000";
layers = (
{
anchors = (
{
name = bottom;
position = "{47, 0}";
},
{
name = center;
position = "{122, 354}";
},
{
name = top;
position = "{197, 708}";
},
{
name = topright;
position = "{274, 708}";
}
);
background = {
paths = (
{
closed = 1;
nodes = (
"-18 1 OFFCURVE",
"-17 0 OFFCURVE",
"-15 0 CURVE SMOOTH",
"11 0 LINE SMOOTH",
"13 0 OFFCURVE",
"15 1 OFFCURVE",
"16 4 CURVE SMOOTH",
"165 704 LINE SMOOTH",
"165 707 OFFCURVE",
"163 708 OFFCURVE",
"161 708 CURVE SMOOTH",
"135 708 LINE SMOOTH",
"133 708 OFFCURVE",
"132 707 OFFCURVE",
"132 704 CURVE SMOOTH",
"-17 4 LINE SMOOTH"
);
}
);
};
layerId = "707362F1-A677-446A-8636-E10BE3A7FAFF";
paths = (
{
closed = 1;
nodes = (
"30 1 OFFCURVE",
"31 0 OFFCURVE",
"33 0 CURVE SMOOTH",
"59 0 LINE SMOOTH",
"61 0 OFFCURVE",
"63 1 OFFCURVE",
"64 4 CURVE SMOOTH",
"213 704 LINE SMOOTH",
"213 707 OFFCURVE",
"211 708 OFFCURVE",
"209 708 CURVE SMOOTH",
"183 708 LINE SMOOTH",
"181 708 OFFCURVE",
"180 707 OFFCURVE",
"180 704 CURVE SMOOTH",
"31 4 LINE SMOOTH"
);
}
);
width = 194;
},
{
anchors = (
{
name = bottom;
position = "{60, 0}";
},
{
name = center;
position = "{133, 344}";
},
{
name = top;
position = "{206, 691}";
},
{
name = topright;
position = "{305, 706}";
}
);
background = {
paths = (
{
closed = 1;
nodes = (
"-9 6 OFFCURVE",
"-4 0 OFFCURVE",
"6 0 CURVE SMOOTH",
"121 0 LINE SMOOTH",
"131 0 OFFCURVE",
"138 6 OFFCURVE",
"140 14 CURVE SMOOTH",
"285 694 LINE SMOOTH",
"286 702 OFFCURVE",
"281 708 OFFCURVE",
"271 708 CURVE SMOOTH",
"156 708 LINE SMOOTH",
"146 708 OFFCURVE",
"139 702 OFFCURVE",
"138 694 CURVE SMOOTH",
"-7 14 LINE SMOOTH"
);
}
);
};
layerId = "D1BC8BBB-1669-4C46-BC21-42BF6808B2B9";
paths = (
{
closed = 1;
nodes = (
"-9 6 OFFCURVE",
"-4 0 OFFCURVE",
"6 0 CURVE SMOOTH",
"121 0 LINE SMOOTH",
"131 0 OFFCURVE",
"138 6 OFFCURVE",
"140 14 CURVE SMOOTH",
"285 694 LINE SMOOTH",
"287 702 OFFCURVE",
"281 708 OFFCURVE",
"271 708 CURVE SMOOTH",
"156 708 LINE SMOOTH",
"146 708 OFFCURVE",
"140 702 OFFCURVE",
"138 694 CURVE SMOOTH",
"-7 14 LINE SMOOTH"
);
}
);
width = 220;
}
);
leftKerningGroup = l;
leftMetricsKey = n;
note = l;
rightKerningGroup = l;
rightMetricsKey = d;
unicode = 006C;
},
{
glyphname = m;
lastChange = "2021-06-09 21:23:28 +0000";
layers = (
{
background = {
paths = (
{
closed = 1;
nodes = (
"654 445 OFFCURVE",
"670 354 OFFCURVE",
"650 257 CURVE SMOOTH",
"627 152 OFFCURVE",
"594 28 OFFCURVE",
"588 7 CURVE SMOOTH",
"586 1 OFFCURVE",
"587 0 OFFCURVE",
"593 0 CURVE SMOOTH",
"611 0 LINE SMOOTH",
"617 0 OFFCURVE",
"619 1 OFFCURVE",
"621 5 CURVE",
"630 41 OFFCURVE",
"661 150 OFFCURVE",
"683 253 CURVE SMOOTH",
"709 378 OFFCURVE",
"692 476 OFFCURVE",
"550 476 CURVE SMOOTH",
"502 476 OFFCURVE",
"430 447 OFFCURVE",
"400 398 CURVE",
"385 445 OFFCURVE",
"344 476 OFFCURVE",
"263 476 CURVE SMOOTH",
"214 476 OFFCURVE",
"157 459 OFFCURVE",
"135 451 CURVE SMOOTH",
"122 446 OFFCURVE",
"114 435 OFFCURVE",
"114 431 CURVE SMOOTH",
"23 4 LINE SMOOTH",
"22 1 OFFCURVE",
"23 0 OFFCURVE",
"26 0 CURVE SMOOTH",
"51 0 LINE SMOOTH",
"54 0 OFFCURVE",
"55 1 OFFCURVE",
"56 4 CURVE SMOOTH",
"140 401 LINE SMOOTH",
"143 415 OFFCURVE",
"153 424 OFFCURVE",
"161 426 CURVE SMOOTH",
"218 446 OFFCURVE",
"287 457 OFFCURVE",
"334 424 CURVE SMOOTH",
"377 393 OFFCURVE",
"381 339 OFFCURVE",
"363 253 CURVE SMOOTH",
"310 7 LINE",
"308 1 OFFCURVE",
"309 0 OFFCURVE",
"315 0 CURVE SMOOTH",
"332 0 LINE SMOOTH",
"338 0 OFFCURVE",
"341 1 OFFCURVE",
"343 5 CURVE",
"352 41 OFFCURVE",
"374 150 OFFCURVE",
"396 253 CURVE SMOOTH",
"414 340 LINE SMOOTH",
"428 404 OFFCURVE",
"488 445 OFFCURVE",
"549 445 CURVE SMOOTH"
);
}
);
};
layerId = "707362F1-A677-446A-8636-E10BE3A7FAFF";
paths = (
{
closed = 1;
nodes = (
"662 445 OFFCURVE",
"678 354 OFFCURVE",
"658 257 CURVE SMOOTH",
"635 152 OFFCURVE",
"602 28 OFFCURVE",
"596 7 CURVE SMOOTH",
"594 1 OFFCURVE",
"595 0 OFFCURVE",
"601 0 CURVE SMOOTH",
"619 0 LINE SMOOTH",
"625 0 OFFCURVE",
"627 1 OFFCURVE",
"629 5 CURVE",
"638 41 OFFCURVE",
"669 150 OFFCURVE",
"691 253 CURVE SMOOTH",
"717 378 OFFCURVE",
"700 476 OFFCURVE",
"558 476 CURVE SMOOTH",
"510 476 OFFCURVE",
"438 447 OFFCURVE",
"408 398 CURVE",
"393 445 OFFCURVE",
"352 476 OFFCURVE",
"271 476 CURVE SMOOTH",
"222 476 OFFCURVE",
"165 459 OFFCURVE",
"143 451 CURVE SMOOTH",
"130 446 OFFCURVE",
"122 435 OFFCURVE",
"122 431 CURVE SMOOTH",
"31 4 LINE SMOOTH",
"30 1 OFFCURVE",
"31 0 OFFCURVE",
"34 0 CURVE SMOOTH",
"59 0 LINE SMOOTH",
"62 0 OFFCURVE",
"63 1 OFFCURVE",
"64 4 CURVE SMOOTH",
"148 401 LINE SMOOTH",
"151 415 OFFCURVE",
"161 424 OFFCURVE",
"169 426 CURVE SMOOTH",
"226 446 OFFCURVE",
"295 457 OFFCURVE",
"342 424 CURVE SMOOTH",
"385 393 OFFCURVE",
"389 339 OFFCURVE",
"371 253 CURVE SMOOTH",
"318 7 LINE",
"316 1 OFFCURVE",
"317 0 OFFCURVE",
"323 0 CURVE SMOOTH",
"340 0 LINE SMOOTH",
"346 0 OFFCURVE",
"349 1 OFFCURVE",
"351 5 CURVE",
"360 41 OFFCURVE",
"382 150 OFFCURVE",
"404 253 CURVE SMOOTH",
"422 340 LINE SMOOTH",
"436 404 OFFCURVE",
"496 445 OFFCURVE",
"557 445 CURVE SMOOTH"
);
}
);
width = 759;
},
{
background = {
paths = (
{
closed = 1;
nodes = (
"558 363 OFFCURVE",
"545 283 OFFCURVE",
"539 254 CURVE SMOOTH",
"522 173 OFFCURVE",
"500 87 OFFCURVE",
"480 21 CURVE SMOOTH",
"475 4 OFFCURVE",
"475 0 OFFCURVE",
"485 0 CURVE SMOOTH",
"609 0 LINE SMOOTH",
"615 0 OFFCURVE",
"617 1 OFFCURVE",
"619 5 CURVE",
"651 96 OFFCURVE",
"668 147 OFFCURVE",
"690 250 CURVE SMOOTH",
"717 375 OFFCURVE",
"697 476 OFFCURVE",
"538 476 CURVE SMOOTH",
"490 476 OFFCURVE",
"455 461 OFFCURVE",
"408 438 CURVE",
"374 463 OFFCURVE",
"338 476 OFFCURVE",
"251 476 CURVE SMOOTH",
"229 476 OFFCURVE",
"151 460 OFFCURVE",
"108 447 CURVE SMOOTH",
"91 442 OFFCURVE",
"82 435 OFFCURVE",
"80 422 CURVE SMOOTH",
"-7 15 LINE SMOOTH",
"-10 1 OFFCURVE",
"1 0 OFFCURVE",
"7 0 CURVE SMOOTH",
"127 0 LINE SMOOTH",
"134 0 OFFCURVE",
"139 12 OFFCURVE",
"140 20 CURVE SMOOTH",
"210 346 LINE SMOOTH",
"213 363 OFFCURVE",
"237 363 OFFCURVE",
"246 363 CURVE SMOOTH",
"258 363 OFFCURVE",
"272 361 OFFCURVE",
"281 352 CURVE SMOOTH",
"302 331 OFFCURVE",
"299 293 OFFCURVE",
"291 253 CURVE SMOOTH",
"238 7 LINE",
"236 1 OFFCURVE",
"237 0 OFFCURVE",
"243 0 CURVE SMOOTH",
"373 0 LINE SMOOTH",
"384 0 OFFCURVE",
"387 12 OFFCURVE",
"388 20 CURVE",
"395 53 OFFCURVE",
"425 192 OFFCURVE",
"456 338 CURVE SMOOTH",
"458 347 LINE SMOOTH",
"461 363 OFFCURVE",
"490 363 OFFCURVE",
"500 363 CURVE SMOOTH"
);
}
);
};
layerId = "D1BC8BBB-1669-4C46-BC21-42BF6808B2B9";
paths = (
{
closed = 1;
nodes = (
"558 363 OFFCURVE",
"545 283 OFFCURVE",
"539 254 CURVE SMOOTH",
"522 173 OFFCURVE",
"500 87 OFFCURVE",
"480 21 CURVE SMOOTH",
"475 4 OFFCURVE",
"475 0 OFFCURVE",
"485 0 CURVE SMOOTH",
"609 0 LINE SMOOTH",
"615 0 OFFCURVE",
"617 1 OFFCURVE",
"619 5 CURVE",
"651 96 OFFCURVE",
"668 147 OFFCURVE",
"690 250 CURVE SMOOTH",
"717 375 OFFCURVE",
"697 476 OFFCURVE",
"538 476 CURVE SMOOTH",
"490 476 OFFCURVE",
"455 461 OFFCURVE",
"408 438 CURVE",
"374 463 OFFCURVE",
"338 476 OFFCURVE",
"251 476 CURVE SMOOTH",
"229 476 OFFCURVE",
"151 460 OFFCURVE",
"108 447 CURVE SMOOTH",
"91 442 OFFCURVE",
"82 435 OFFCURVE",
"80 422 CURVE SMOOTH",
"-7 15 LINE SMOOTH",
"-10 1 OFFCURVE",
"1 0 OFFCURVE",
"7 0 CURVE SMOOTH",
"127 0 LINE SMOOTH",
"134 0 OFFCURVE",
"139 12 OFFCURVE",
"140 20 CURVE SMOOTH",
"210 346 LINE SMOOTH",
"213 363 OFFCURVE",
"237 363 OFFCURVE",
"246 363 CURVE SMOOTH",
"258 363 OFFCURVE",
"272 361 OFFCURVE",
"281 352 CURVE SMOOTH",
"302 331 OFFCURVE",
"299 293 OFFCURVE",
"291 253 CURVE SMOOTH",
"238 7 LINE",
"236 1 OFFCURVE",
"237 0 OFFCURVE",
"243 0 CURVE SMOOTH",
"373 0 LINE SMOOTH",
"384 0 OFFCURVE",
"387 12 OFFCURVE",
"388 20 CURVE",
"395 53 OFFCURVE",
"425 192 OFFCURVE",
"456 338 CURVE SMOOTH",
"458 347 LINE SMOOTH",
"461 363 OFFCURVE",
"490 363 OFFCURVE",
"500 363 CURVE SMOOTH"
);
}
);
width = 715;
}
);
leftKerningGroup = n;
leftMetricsKey = n;
note = m;
rightKerningGroup = n;
rightMetricsKey = n;
unicode = 006D;
},
{
glyphname = n;
lastChange = "2021-06-09 21:23:28 +0000";
layers = (
{
anchors = (
{
name = bottom;
position = "{199, 0}";
},
{
name = top;
position = "{299, 472}";
}
);
background = {
paths = (
{
closed = 1;
nodes = (
"11 0 LINE",
"14 0 OFFCURVE",
"15 1 OFFCURVE",
"16 4 CURVE SMOOTH",
"44 136 OFFCURVE",
"72 269 OFFCURVE",
"100 401 CURVE SMOOTH",
"103 415 OFFCURVE",
"115 420 OFFCURVE",
"123 422 CURVE SMOOTH",
"156 434 OFFCURVE",
"200 444 OFFCURVE",
"239 443 CURVE SMOOTH",
"348 443 OFFCURVE",
"372 366 OFFCURVE",
"349 257 CURVE SMOOTH",
"326 152 OFFCURVE",
"292 28 OFFCURVE",
"286 7 CURVE SMOOTH",
"284 1 OFFCURVE",
"285 0 OFFCURVE",
"291 0 CURVE",
"309 0 LINE",
"315 0 OFFCURVE",
"317 1 OFFCURVE",
"319 5 CURVE",
"328 41 OFFCURVE",
"359 150 OFFCURVE",
"381 253 CURVE SMOOTH",
"407 378 OFFCURVE",
"391 476 OFFCURVE",
"245 476 CURVE SMOOTH",
"195 476 OFFCURVE",
"120 458 OFFCURVE",
"92 450 CURVE SMOOTH",
"79 446 OFFCURVE",
"76 440 OFFCURVE",
"74 435 CURVE SMOOTH",
"44 291 OFFCURVE",
"13 148 OFFCURVE",
"-17 4 CURVE SMOOTH",
"-18 1 OFFCURVE",
"-17 0 OFFCURVE",
"-14 0 CURVE"
);
}
);
};
guideLines = (
{
position = "{265, 443}";
}
);
layerId = "707362F1-A677-446A-8636-E10BE3A7FAFF";
paths = (
{
closed = 1;
nodes = (
"59 0 LINE",
"62 0 OFFCURVE",
"63 1 OFFCURVE",
"64 4 CURVE SMOOTH",
"92 136 OFFCURVE",
"120 269 OFFCURVE",
"148 401 CURVE SMOOTH",
"151 415 OFFCURVE",
"163 420 OFFCURVE",
"171 422 CURVE SMOOTH",
"204 434 OFFCURVE",
"248 444 OFFCURVE",
"287 443 CURVE SMOOTH",
"396 443 OFFCURVE",
"420 366 OFFCURVE",
"397 257 CURVE SMOOTH",
"374 152 OFFCURVE",
"340 28 OFFCURVE",
"334 7 CURVE SMOOTH",
"332 1 OFFCURVE",
"333 0 OFFCURVE",
"339 0 CURVE",
"357 0 LINE",
"363 0 OFFCURVE",
"365 1 OFFCURVE",
"367 5 CURVE",
"376 41 OFFCURVE",
"407 150 OFFCURVE",
"429 253 CURVE SMOOTH",
"455 378 OFFCURVE",
"439 476 OFFCURVE",
"293 476 CURVE SMOOTH",
"243 476 OFFCURVE",
"168 458 OFFCURVE",
"140 450 CURVE SMOOTH",
"127 446 OFFCURVE",
"124 440 OFFCURVE",
"122 435 CURVE SMOOTH",
"92 291 OFFCURVE",
"61 148 OFFCURVE",
"31 4 CURVE SMOOTH",
"30 1 OFFCURVE",
"31 0 OFFCURVE",
"34 0 CURVE"
);
}
);
width = 497;
},
{
anchors = (
{
name = bottom;
position = "{182, 0}";
},
{
name = top;
position = "{282, 472}";
}
);
background = {
paths = (
{
closed = 1;
nodes = (
"126 0 LINE SMOOTH",
"136 0 OFFCURVE",
"139 12 OFFCURVE",
"140 20 CURVE SMOOTH",
"164 129 OFFCURVE",
"187 237 OFFCURVE",
"207 334 CURVE SMOOTH",
"211 351 OFFCURVE",
"216 361 OFFCURVE",
"227 362 CURVE SMOOTH",
"233 363 OFFCURVE",
"237 363 OFFCURVE",
"250 363 CURVE SMOOTH",
"289 363 OFFCURVE",
"313 349 OFFCURVE",
"290 248 CURVE SMOOTH",
"287 237 OFFCURVE",
"232 27 OFFCURVE",
"228 11 CURVE SMOOTH",
"226 3 OFFCURVE",
"228 0 OFFCURVE",
"235 0 CURVE SMOOTH",
"346 0 LINE SMOOTH",
"367 0 OFFCURVE",
"370 0 OFFCURVE",
"379 28 CURVE SMOOTH",
"402 96 OFFCURVE",
"425 181 OFFCURVE",
"439 250 CURVE SMOOTH",
"465 372 OFFCURVE",
"447 476 OFFCURVE",
"278 476 CURVE SMOOTH",
"229 476 OFFCURVE",
"151 460 OFFCURVE",
"125 452 CURVE SMOOTH",
"92 441 OFFCURVE",
"83 438 OFFCURVE",
"80 422 CURVE SMOOTH",
"51 286 OFFCURVE",
"22 151 OFFCURVE",
"-7 15 CURVE SMOOTH",
"-10 1 OFFCURVE",
"1 0 OFFCURVE",
"7 0 CURVE SMOOTH"
);
}
);
};
guideLines = (
{
angle = 78;
position = "{-10, 1}";
},
{
angle = 78;
position = "{679, -26}";
},
{
angle = 78;
position = "{828, -31}";
}
);
layerId = "D1BC8BBB-1669-4C46-BC21-42BF6808B2B9";
paths = (
{
closed = 1;
nodes = (
"126 0 LINE SMOOTH",
"136 0 OFFCURVE",
"139 12 OFFCURVE",
"140 20 CURVE SMOOTH",
"164 129 OFFCURVE",
"187 237 OFFCURVE",
"207 334 CURVE SMOOTH",
"211 351 OFFCURVE",
"216 361 OFFCURVE",
"227 362 CURVE SMOOTH",
"233 363 OFFCURVE",
"237 363 OFFCURVE",
"250 363 CURVE SMOOTH",
"289 363 OFFCURVE",
"313 349 OFFCURVE",
"290 248 CURVE SMOOTH",
"287 237 OFFCURVE",
"232 27 OFFCURVE",
"228 11 CURVE SMOOTH",
"226 3 OFFCURVE",
"228 0 OFFCURVE",
"235 0 CURVE SMOOTH",
"346 0 LINE SMOOTH",
"367 0 OFFCURVE",
"370 0 OFFCURVE",
"379 28 CURVE SMOOTH",
"402 96 OFFCURVE",
"425 181 OFFCURVE",
"439 250 CURVE SMOOTH",
"465 372 OFFCURVE",
"447 476 OFFCURVE",
"278 476 CURVE SMOOTH",
"229 476 OFFCURVE",
"151 460 OFFCURVE",
"125 452 CURVE SMOOTH",
"92 441 OFFCURVE",
"83 438 OFFCURVE",
"80 422 CURVE SMOOTH",
"51 286 OFFCURVE",
"22 151 OFFCURVE",
"-7 15 CURVE SMOOTH",
"-10 1 OFFCURVE",
"1 0 OFFCURVE",
"7 0 CURVE SMOOTH"
);
}
);
width = 464;
}
);
leftKerningGroup = n;
note = n;
rightKerningGroup = n;
unicode = 006E;
},
{
glyphname = o;
lastChange = "2021-06-09 21:23:28 +0000";
layers = (
{
anchors = (
{
name = bottom;
position = "{193, 0}";
},
{
name = center;
position = "{243, 236}";
},
{
name = ogonek;
position = "{216, 10}";
},
{
name = top;
position = "{293, 472}";
},
{
name = topright;
position = "{323, 472}";
}
);
background = {
paths = (
{
closed = 1;
nodes = (
"-19 93 OFFCURVE",
"1 -7 OFFCURVE",
"158 -7 CURVE SMOOTH",
"315 -7 OFFCURVE",
"377 94 OFFCURVE",
"408 238 CURVE SMOOTH",
"439 382 OFFCURVE",
"411 483 OFFCURVE",
"262 483 CURVE SMOOTH",
"114 483 OFFCURVE",
"43 382 OFFCURVE",
"12 238 CURVE SMOOTH"
);
},
{
closed = 1;
nodes = (
"74 375 OFFCURVE",
"143 453 OFFCURVE",
"256 453 CURVE SMOOTH",
"370 453 OFFCURVE",
"404 374 OFFCURVE",
"375 238 CURVE SMOOTH",
"346 103 OFFCURVE",
"286 22 OFFCURVE",
"164 22 CURVE SMOOTH",
"43 22 OFFCURVE",
"16 101 OFFCURVE",
"45 238 CURVE SMOOTH"
);
},
{
closed = 1;
nodes = (
"-49 93 OFFCURVE",
"-29 -7 OFFCURVE",
"128 -7 CURVE SMOOTH",
"285 -7 OFFCURVE",
"347 94 OFFCURVE",
"378 238 CURVE SMOOTH",
"409 382 OFFCURVE",
"381 483 OFFCURVE",
"232 483 CURVE SMOOTH",
"84 483 OFFCURVE",
"13 382 OFFCURVE",
"-18 238 CURVE SMOOTH"
);
},
{
closed = 1;
nodes = (
"44 375 OFFCURVE",
"113 453 OFFCURVE",
"226 453 CURVE SMOOTH",
"340 453 OFFCURVE",
"374 374 OFFCURVE",
"345 238 CURVE SMOOTH",
"316 103 OFFCURVE",
"256 22 OFFCURVE",
"134 22 CURVE SMOOTH",
"13 22 OFFCURVE",
"-14 101 OFFCURVE",
"15 238 CURVE SMOOTH"
);
}
);
};
layerId = "707362F1-A677-446A-8636-E10BE3A7FAFF";
paths = (
{
closed = 1;
nodes = (
"349 -5 OFFCURVE",
"411 94 OFFCURVE",
"441 236 CURVE SMOOTH",
"471 378 OFFCURVE",
"443 477 OFFCURVE",
"294 477 CURVE SMOOTH",
"146 477 OFFCURVE",
"75 378 OFFCURVE",
"45 236 CURVE SMOOTH",
"15 93 OFFCURVE",
"35 -5 OFFCURVE",
"192 -5 CURVE SMOOTH"
);
},
{
closed = 1;
nodes = (
"77 24 OFFCURVE",
"50 101 OFFCURVE",
"78 236 CURVE SMOOTH",
"107 371 OFFCURVE",
"175 447 OFFCURVE",
"288 447 CURVE SMOOTH",
"402 447 OFFCURVE",
"437 370 OFFCURVE",
"408 236 CURVE SMOOTH",
"380 103 OFFCURVE",
"320 24 OFFCURVE",
"198 24 CURVE SMOOTH"
);
}
);
width = 486;
},
{
anchors = (
{
name = bottom;
position = "{203, 0}";
},
{
name = center;
position = "{253, 236}";
},
{
name = ogonek;
position = "{248, 10}";
},
{
name = top;
position = "{303, 472}";
},
{
name = topright;
position = "{351, 472}";
}
);
background = {
paths = (
{
closed = 1;
nodes = (
"1 101 OFFCURVE",
"22 -6 OFFCURVE",
"201 -6 CURVE SMOOTH",
"379 -6 OFFCURVE",
"447 103 OFFCURVE",
"476 238 CURVE SMOOTH",
"505 374 OFFCURVE",
"471 477 OFFCURVE",
"304 477 CURVE SMOOTH",
"136 477 OFFCURVE",
"59 374 OFFCURVE",
"30 238 CURVE SMOOTH"
);
},
{
closed = 1;
nodes = (
"194 315 OFFCURVE",
"227 358 OFFCURVE",
"276 358 CURVE SMOOTH",
"326 358 OFFCURVE",
"341 315 OFFCURVE",
"324 234 CURVE SMOOTH",
"307 152 OFFCURVE",
"278 105 OFFCURVE",
"223 105 CURVE SMOOTH",
"170 105 OFFCURVE",
"159 151 OFFCURVE",
"177 234 CURVE SMOOTH"
);
}
);
};
layerId = "D1BC8BBB-1669-4C46-BC21-42BF6808B2B9";
paths = (
{
closed = 1;
nodes = (
"379 -8 OFFCURVE",
"447 101 OFFCURVE",
"477 239 CURVE SMOOTH",
"506 376 OFFCURVE",
"472 480 OFFCURVE",
"305 480 CURVE SMOOTH",
"137 480 OFFCURVE",
"60 377 OFFCURVE",
"31 239 CURVE SMOOTH",
"1 99 OFFCURVE",
"22 -8 OFFCURVE",
"201 -8 CURVE SMOOTH"
);
},
{
closed = 1;
nodes = (
"170 103 OFFCURVE",
"160 150 OFFCURVE",
"178 235 CURVE SMOOTH",
"195 317 OFFCURVE",
"228 361 OFFCURVE",
"277 361 CURVE SMOOTH",
"327 361 OFFCURVE",
"342 317 OFFCURVE",
"325 235 CURVE SMOOTH",
"307 151 OFFCURVE",
"278 103 OFFCURVE",
"223 103 CURVE SMOOTH"
);
}
);
width = 506;
}
);
leftKerningGroup = o;
note = o;
rightKerningGroup = o;
unicode = 006F;
},
{
glyphname = p;
lastChange = "2021-06-09 21:23:28 +0000";
layers = (
{
background = {
paths = (
{
closed = 1;
nodes = (
"-83 -112 OFFCURVE",
"-83 -117 OFFCURVE",
"-79 -117 CURVE SMOOTH",
"-57 -117 LINE SMOOTH",
"-50 -117 OFFCURVE",
"-50 -111 OFFCURVE",
"-49 -109 CURVE SMOOTH",
"-41 -59 OFFCURVE",
"-29 -12 OFFCURVE",
"-25 5 CURVE SMOOTH",
"-24 11 OFFCURVE",
"-19 13 OFFCURVE",
"-13 9 CURVE",
"7 0 OFFCURVE",
"68 -7 OFFCURVE",
"105 -7 CURVE SMOOTH",
"252 -7 OFFCURVE",
"329 119 OFFCURVE",
"356 245 CURVE SMOOTH",
"390 407 OFFCURVE",
"349 480 OFFCURVE",
"224 480 CURVE SMOOTH",
"162 480 OFFCURVE",
"110 472 OFFCURVE",
"55 455 CURVE SMOOTH",
"44 452 OFFCURVE",
"40 445 OFFCURVE",
"39 439 CURVE SMOOTH",
"17 359 OFFCURVE",
"-2 276 OFFCURVE",
"-21 194 CURVE SMOOTH",
"-43 93 OFFCURVE",
"-64 -9 OFFCURVE",
"-83 -110 CURVE SMOOTH"
);
},
{
closed = 1;
nodes = (
"-11 92 OFFCURVE",
"41 327 OFFCURVE",
"68 417 CURVE SMOOTH",
"69 424 OFFCURVE",
"79 428 OFFCURVE",
"89 432 CURVE SMOOTH",
"125 444 OFFCURVE",
"171 452 OFFCURVE",
"214 452 CURVE SMOOTH",
"309 452 OFFCURVE",
"356 399 OFFCURVE",
"323 245 CURVE SMOOTH",
"284 61 OFFCURVE",
"183 24 OFFCURVE",
"115 24 CURVE SMOOTH",
"82 24 OFFCURVE",
"33 28 OFFCURVE",
"0 39 CURVE SMOOTH",
"-7 41 OFFCURVE",
"-19 45 OFFCURVE",
"-16 58 CURVE SMOOTH"
);
}
);
};
layerId = "707362F1-A677-446A-8636-E10BE3A7FAFF";
paths = (
{
closed = 1;
nodes = (
"9 -112 OFFCURVE",
"9 -117 OFFCURVE",
"13 -117 CURVE SMOOTH",
"35 -117 LINE SMOOTH",
"42 -117 OFFCURVE",
"42 -111 OFFCURVE",
"43 -109 CURVE SMOOTH",
"51 -59 OFFCURVE",
"63 -12 OFFCURVE",
"67 5 CURVE SMOOTH",
"68 11 OFFCURVE",
"73 13 OFFCURVE",
"79 9 CURVE",
"99 0 OFFCURVE",
"160 -7 OFFCURVE",
"197 -7 CURVE SMOOTH",
"344 -7 OFFCURVE",
"421 119 OFFCURVE",
"448 245 CURVE SMOOTH",
"482 407 OFFCURVE",
"441 480 OFFCURVE",
"316 480 CURVE SMOOTH",
"254 480 OFFCURVE",
"202 472 OFFCURVE",
"147 455 CURVE SMOOTH",
"136 452 OFFCURVE",
"132 445 OFFCURVE",
"131 439 CURVE SMOOTH",
"109 359 OFFCURVE",
"90 276 OFFCURVE",
"71 194 CURVE SMOOTH",
"49 93 OFFCURVE",
"28 -9 OFFCURVE",
"9 -110 CURVE SMOOTH"
);
},
{
closed = 1;
nodes = (
"81 92 OFFCURVE",
"133 327 OFFCURVE",
"160 417 CURVE SMOOTH",
"161 424 OFFCURVE",
"171 428 OFFCURVE",
"181 432 CURVE SMOOTH",
"217 444 OFFCURVE",
"263 452 OFFCURVE",
"306 452 CURVE SMOOTH",
"401 452 OFFCURVE",
"448 399 OFFCURVE",
"415 245 CURVE SMOOTH",
"376 61 OFFCURVE",
"275 24 OFFCURVE",
"207 24 CURVE SMOOTH",
"174 24 OFFCURVE",
"125 28 OFFCURVE",
"92 39 CURVE SMOOTH",
"85 41 OFFCURVE",
"73 45 OFFCURVE",
"76 58 CURVE SMOOTH"
);
}
);
width = 491;
},
{
background = {
paths = (
{
closed = 1;
nodes = (
"-23 -105 OFFCURVE",
"-16 -106 OFFCURVE",
"-4 -106 CURVE SMOOTH",
"105 -106 LINE SMOOTH",
"127 -106 OFFCURVE",
"125 -100 OFFCURVE",
"127 -79 CURVE SMOOTH",
"127 -72 OFFCURVE",
"135 -26 OFFCURVE",
"139 -12 CURVE SMOOTH",
"142 -2 OFFCURVE",
"148 -6 OFFCURVE",
"161 -7 CURVE SMOOTH",
"201 -11 OFFCURVE",
"259 -5 OFFCURVE",
"301 14 CURVE SMOOTH",
"367 45 OFFCURVE",
"432 114 OFFCURVE",
"460 247 CURVE SMOOTH",
"494 408 OFFCURVE",
"430 481 OFFCURVE",
"298 481 CURVE SMOOTH",
"228 481 OFFCURVE",
"165 466 OFFCURVE",
"140 458 CURVE SMOOTH",
"106 447 OFFCURVE",
"100 440 OFFCURVE",
"93 424 CURVE SMOOTH",
"74 386 OFFCURVE",
"48 275 OFFCURVE",
"35 212 CURVE SMOOTH",
"-2 42 OFFCURVE",
"-20 -58 OFFCURVE",
"-22 -96 CURVE SMOOTH"
);
},
{
closed = 1;
nodes = (
"186 212 OFFCURVE",
"201 281 OFFCURVE",
"218 349 CURVE SMOOTH",
"219 356 OFFCURVE",
"221 359 OFFCURVE",
"224 361 CURVE SMOOTH",
"236 366 OFFCURVE",
"254 369 OFFCURVE",
"273 369 CURVE SMOOTH",
"309 369 OFFCURVE",
"331 341 OFFCURVE",
"311 248 CURVE SMOOTH",
"288 137 OFFCURVE",
"247 122 OFFCURVE",
"220 122 CURVE SMOOTH",
"206 122 OFFCURVE",
"188 127 OFFCURVE",
"175 132 CURVE SMOOTH",
"170 133 OFFCURVE",
"169 136 OFFCURVE",
"171 144 CURVE SMOOTH"
);
}
);
};
layerId = "D1BC8BBB-1669-4C46-BC21-42BF6808B2B9";
paths = (
{
closed = 1;
nodes = (
"-23 -105 OFFCURVE",
"-16 -106 OFFCURVE",
"-4 -106 CURVE SMOOTH",
"105 -106 LINE SMOOTH",
"127 -106 OFFCURVE",
"125 -100 OFFCURVE",
"127 -79 CURVE SMOOTH",
"127 -72 OFFCURVE",
"135 -26 OFFCURVE",
"139 -12 CURVE SMOOTH",
"142 -2 OFFCURVE",
"148 -6 OFFCURVE",
"161 -7 CURVE SMOOTH",
"201 -11 OFFCURVE",
"259 -5 OFFCURVE",
"301 14 CURVE SMOOTH",
"367 45 OFFCURVE",
"432 114 OFFCURVE",
"460 247 CURVE SMOOTH",
"494 408 OFFCURVE",
"430 481 OFFCURVE",
"298 481 CURVE SMOOTH",
"228 481 OFFCURVE",
"165 466 OFFCURVE",
"140 458 CURVE SMOOTH",
"106 447 OFFCURVE",
"100 440 OFFCURVE",
"93 424 CURVE SMOOTH",
"74 386 OFFCURVE",
"48 275 OFFCURVE",
"35 212 CURVE SMOOTH",
"-2 42 OFFCURVE",
"-20 -58 OFFCURVE",
"-22 -96 CURVE SMOOTH"
);
},
{
closed = 1;
nodes = (
"186 212 OFFCURVE",
"201 281 OFFCURVE",
"218 349 CURVE SMOOTH",
"219 356 OFFCURVE",
"221 359 OFFCURVE",
"224 361 CURVE SMOOTH",
"236 366 OFFCURVE",
"254 369 OFFCURVE",
"273 369 CURVE SMOOTH",
"309 369 OFFCURVE",
"331 341 OFFCURVE",
"311 248 CURVE SMOOTH",
"288 137 OFFCURVE",
"247 122 OFFCURVE",
"220 122 CURVE SMOOTH",
"206 122 OFFCURVE",
"188 127 OFFCURVE",
"175 132 CURVE SMOOTH",
"170 133 OFFCURVE",
"169 136 OFFCURVE",
"171 144 CURVE SMOOTH"
);
}
);
width = 488;
}
);
leftKerningGroup = b;
leftMetricsKey = n;
note = p;
rightKerningGroup = o;
rightMetricsKey = o;
unicode = 0070;
},
{
glyphname = q;
lastChange = "2021-06-09 21:23:28 +0000";
layers = (
{
background = {
paths = (
{
closed = 1;
nodes = (
"252 -7 OFFCURVE",
"300 1 OFFCURVE",
"334 9 CURVE",
"341 12 OFFCURVE",
"346 11 OFFCURVE",
"345 5 CURVE SMOOTH",
"341 -12 OFFCURVE",
"330 -59 OFFCURVE",
"316 -109 CURVE SMOOTH",
"315 -111 OFFCURVE",
"313 -117 OFFCURVE",
"320 -117 CURVE SMOOTH",
"342 -117 LINE SMOOTH",
"346 -117 OFFCURVE",
"348 -112 OFFCURVE",
"348 -110 CURVE SMOOTH",
"396 58 OFFCURVE",
"457 295 OFFCURVE",
"483 439 CURVE SMOOTH",
"484 445 OFFCURVE",
"485 452 OFFCURVE",
"475 455 CURVE SMOOTH",
"426 472 OFFCURVE",
"381 480 OFFCURVE",
"319 480 CURVE SMOOTH",
"194 480 OFFCURVE",
"116 407 OFFCURVE",
"75 245 CURVE SMOOTH",
"25 42 OFFCURVE",
"118 -7 OFFCURVE",
"203 -7 CURVE SMOOTH"
);
},
{
closed = 1;
nodes = (
"148 399 OFFCURVE",
"219 452 OFFCURVE",
"315 452 CURVE SMOOTH",
"358 452 OFFCURVE",
"399 444 OFFCURVE",
"431 432 CURVE SMOOTH",
"440 428 OFFCURVE",
"447 424 OFFCURVE",
"444 417 CURVE",
"428 327 OFFCURVE",
"371 92 OFFCURVE",
"360 58 CURVE",
"357 45 OFFCURVE",
"348 41 OFFCURVE",
"339 39 CURVE SMOOTH",
"298 29 OFFCURVE",
"244 25 OFFCURVE",
"211 25 CURVE SMOOTH",
"146 25 OFFCURVE",
"62 61 OFFCURVE",
"108 245 CURVE SMOOTH"
);
}
);
};
layerId = "707362F1-A677-446A-8636-E10BE3A7FAFF";
paths = (
{
closed = 1;
nodes = (
"224 -7 OFFCURVE",
"272 1 OFFCURVE",
"306 9 CURVE",
"313 12 OFFCURVE",
"318 11 OFFCURVE",
"317 5 CURVE SMOOTH",
"313 -12 OFFCURVE",
"302 -59 OFFCURVE",
"288 -109 CURVE SMOOTH",
"287 -111 OFFCURVE",
"285 -117 OFFCURVE",
"292 -117 CURVE SMOOTH",
"314 -117 LINE SMOOTH",
"318 -117 OFFCURVE",
"320 -112 OFFCURVE",
"320 -110 CURVE SMOOTH",
"368 58 OFFCURVE",
"429 295 OFFCURVE",
"455 439 CURVE SMOOTH",
"456 445 OFFCURVE",
"457 452 OFFCURVE",
"447 455 CURVE SMOOTH",
"398 472 OFFCURVE",
"353 480 OFFCURVE",
"291 480 CURVE SMOOTH",
"166 480 OFFCURVE",
"88 407 OFFCURVE",
"47 245 CURVE SMOOTH",
"-3 42 OFFCURVE",
"90 -7 OFFCURVE",
"175 -7 CURVE SMOOTH"
);
},
{
closed = 1;
nodes = (
"120 399 OFFCURVE",
"191 452 OFFCURVE",
"287 452 CURVE SMOOTH",
"330 452 OFFCURVE",
"371 444 OFFCURVE",
"403 432 CURVE SMOOTH",
"412 428 OFFCURVE",
"419 424 OFFCURVE",
"416 417 CURVE",
"400 327 OFFCURVE",
"343 92 OFFCURVE",
"332 58 CURVE",
"329 45 OFFCURVE",
"320 41 OFFCURVE",
"311 39 CURVE SMOOTH",
"270 29 OFFCURVE",
"216 25 OFFCURVE",
"183 25 CURVE SMOOTH",
"118 25 OFFCURVE",
"34 61 OFFCURVE",
"80 245 CURVE SMOOTH"
);
}
);
width = 493;
},
{
background = {
paths = (
{
closed = 1;
nodes = (
"115 -5 OFFCURVE",
"169 -11 OFFCURVE",
"211 -7 CURVE SMOOTH",
"227 -6 OFFCURVE",
"235 -2 OFFCURVE",
"233 -12 CURVE SMOOTH",
"231 -26 OFFCURVE",
"216 -72 OFFCURVE",
"214 -79 CURVE SMOOTH",
"207 -100 OFFCURVE",
"199 -106 OFFCURVE",
"221 -106 CURVE SMOOTH",
"331 -106 LINE SMOOTH",
"341 -106 OFFCURVE",
"349 -105 OFFCURVE",
"354 -96 CURVE",
"382 -30 OFFCURVE",
"488 367 OFFCURVE",
"486 424 CURVE SMOOTH",
"485 440 OFFCURVE",
"483 447 OFFCURVE",
"456 458 CURVE SMOOTH",
"434 466 OFFCURVE",
"376 481 OFFCURVE",
"307 481 CURVE SMOOTH",
"174 481 OFFCURVE",
"74 408 OFFCURVE",
"33 247 CURVE SMOOTH",
"-2 114 OFFCURVE",
"31 45 OFFCURVE",
"84 14 CURVE SMOOTH"
);
},
{
closed = 1;
nodes = (
"208 341 OFFCURVE",
"242 369 OFFCURVE",
"278 369 CURVE SMOOTH",
"297 369 OFFCURVE",
"313 366 OFFCURVE",
"324 361 CURVE",
"326 359 OFFCURVE",
"326 356 OFFCURVE",
"324 349 CURVE",
"308 281 OFFCURVE",
"293 212 OFFCURVE",
"274 144 CURVE SMOOTH",
"272 136 OFFCURVE",
"271 133 OFFCURVE",
"266 132 CURVE SMOOTH",
"250 127 OFFCURVE",
"227 122 OFFCURVE",
"214 122 CURVE SMOOTH",
"186 122 OFFCURVE",
"154 137 OFFCURVE",
"183 248 CURVE SMOOTH"
);
}
);
};
layerId = "D1BC8BBB-1669-4C46-BC21-42BF6808B2B9";
paths = (
{
closed = 1;
nodes = (
"115 -5 OFFCURVE",
"169 -11 OFFCURVE",
"211 -7 CURVE SMOOTH",
"227 -6 OFFCURVE",
"235 -2 OFFCURVE",
"233 -12 CURVE SMOOTH",
"231 -26 OFFCURVE",
"216 -72 OFFCURVE",
"214 -79 CURVE SMOOTH",
"207 -100 OFFCURVE",
"199 -106 OFFCURVE",
"221 -106 CURVE SMOOTH",
"331 -106 LINE SMOOTH",
"341 -106 OFFCURVE",
"349 -105 OFFCURVE",
"354 -96 CURVE",
"382 -30 OFFCURVE",
"488 367 OFFCURVE",
"486 424 CURVE SMOOTH",
"485 440 OFFCURVE",
"483 447 OFFCURVE",
"456 458 CURVE SMOOTH",
"434 466 OFFCURVE",
"376 481 OFFCURVE",
"307 481 CURVE SMOOTH",
"174 481 OFFCURVE",
"74 408 OFFCURVE",
"33 247 CURVE SMOOTH",
"-2 114 OFFCURVE",
"31 45 OFFCURVE",
"84 14 CURVE SMOOTH"
);
},
{
closed = 1;
nodes = (
"208 341 OFFCURVE",
"242 369 OFFCURVE",
"278 369 CURVE SMOOTH",
"297 369 OFFCURVE",
"313 366 OFFCURVE",
"324 361 CURVE",
"326 359 OFFCURVE",
"326 356 OFFCURVE",
"324 349 CURVE",
"308 281 OFFCURVE",
"293 212 OFFCURVE",
"274 144 CURVE SMOOTH",
"272 136 OFFCURVE",
"271 133 OFFCURVE",
"266 132 CURVE SMOOTH",
"250 127 OFFCURVE",
"227 122 OFFCURVE",
"214 122 CURVE SMOOTH",
"186 122 OFFCURVE",
"154 137 OFFCURVE",
"183 248 CURVE SMOOTH"
);
}
);
width = 483;
}
);
leftKerningGroup = o;
leftMetricsKey = o;
note = q;
rightKerningGroup = d;
rightMetricsKey = d;
unicode = 0071;
},
{
glyphname = r;
lastChange = "2021-06-09 21:23:28 +0000";
layers = (
{
anchors = (
{
name = bottom;
position = "{47, 0}";
},
{
name = top;
position = "{225, 472}";
}
);
background = {
paths = (
{
closed = 1;
nodes = (
"234 477 OFFCURVE",
"175 465 OFFCURVE",
"132 447 CURVE SMOOTH",
"121 442 OFFCURVE",
"115 438 OFFCURVE",
"111 419 CURVE SMOOTH",
"23 4 LINE SMOOTH",
"22 1 OFFCURVE",
"23 0 OFFCURVE",
"26 0 CURVE SMOOTH",
"51 0 LINE SMOOTH",
"54 0 OFFCURVE",
"55 1 OFFCURVE",
"56 4 CURVE SMOOTH",
"140 399 LINE SMOOTH",
"144 418 OFFCURVE",
"155 421 OFFCURVE",
"163 425 CURVE SMOOTH",
"180 432 OFFCURVE",
"239 446 OFFCURVE",
"272 446 CURVE SMOOTH",
"302 446 OFFCURVE",
"330 442 OFFCURVE",
"352 434 CURVE SMOOTH",
"355 433 OFFCURVE",
"358 433 OFFCURVE",
"360 437 CURVE SMOOTH",
"369 458 LINE SMOOTH",
"371 463 OFFCURVE",
"366 464 OFFCURVE",
"364 465 CURVE SMOOTH",
"341 473 OFFCURVE",
"312 477 OFFCURVE",
"278 477 CURVE SMOOTH"
);
}
);
};
layerId = "707362F1-A677-446A-8636-E10BE3A7FAFF";
paths = (
{
closed = 1;
nodes = (
"242 477 OFFCURVE",
"183 465 OFFCURVE",
"140 447 CURVE SMOOTH",
"129 442 OFFCURVE",
"123 438 OFFCURVE",
"119 419 CURVE SMOOTH",
"31 4 LINE SMOOTH",
"30 1 OFFCURVE",
"31 0 OFFCURVE",
"34 0 CURVE SMOOTH",
"59 0 LINE SMOOTH",
"62 0 OFFCURVE",
"63 1 OFFCURVE",
"64 4 CURVE SMOOTH",
"148 399 LINE SMOOTH",
"152 418 OFFCURVE",
"163 421 OFFCURVE",
"171 425 CURVE SMOOTH",
"188 432 OFFCURVE",
"247 446 OFFCURVE",
"280 446 CURVE SMOOTH",
"310 446 OFFCURVE",
"338 442 OFFCURVE",
"360 434 CURVE SMOOTH",
"363 433 OFFCURVE",
"366 433 OFFCURVE",
"368 437 CURVE SMOOTH",
"377 458 LINE SMOOTH",
"379 463 OFFCURVE",
"374 464 OFFCURVE",
"372 465 CURVE SMOOTH",
"349 473 OFFCURVE",
"320 477 OFFCURVE",
"286 477 CURVE SMOOTH"
);
}
);
width = 350;
},
{
anchors = (
{
name = bottom;
position = "{62, 0}";
},
{
name = top;
position = "{231, 472}";
}
);
background = {
paths = (
{
closed = 1;
nodes = (
"212 476 OFFCURVE",
"147 466 OFFCURVE",
"103 447 CURVE SMOOTH",
"87 440 OFFCURVE",
"83 438 OFFCURVE",
"79 417 CURVE SMOOTH",
"-6 20 LINE SMOOTH",
"-10 2 OFFCURVE",
"-3 0 OFFCURVE",
"4 0 CURVE SMOOTH",
"116 0 LINE SMOOTH",
"131 0 OFFCURVE",
"136 2 OFFCURVE",
"141 24 CURVE SMOOTH",
"206 330 LINE SMOOTH",
"210 348 OFFCURVE",
"216 350 OFFCURVE",
"223 354 CURVE SMOOTH",
"230 358 OFFCURVE",
"237 361 OFFCURVE",
"269 361 CURVE SMOOTH",
"281 361 OFFCURVE",
"313 358 OFFCURVE",
"335 351 CURVE SMOOTH",
"347 347 OFFCURVE",
"350 348 OFFCURVE",
"356 360 CURVE SMOOTH",
"391 431 LINE SMOOTH",
"395 440 OFFCURVE",
"397 445 OFFCURVE",
"383 452 CURVE SMOOTH",
"351 468 OFFCURVE",
"309 476 OFFCURVE",
"255 476 CURVE SMOOTH"
);
}
);
};
layerId = "D1BC8BBB-1669-4C46-BC21-42BF6808B2B9";
paths = (
{
closed = 1;
nodes = (
"212 476 OFFCURVE",
"147 466 OFFCURVE",
"103 447 CURVE SMOOTH",
"87 440 OFFCURVE",
"83 438 OFFCURVE",
"79 417 CURVE SMOOTH",
"-6 20 LINE SMOOTH",
"-10 2 OFFCURVE",
"-3 0 OFFCURVE",
"4 0 CURVE SMOOTH",
"116 0 LINE SMOOTH",
"131 0 OFFCURVE",
"136 2 OFFCURVE",
"141 24 CURVE SMOOTH",
"206 330 LINE SMOOTH",
"210 348 OFFCURVE",
"216 350 OFFCURVE",
"223 354 CURVE SMOOTH",
"230 358 OFFCURVE",
"237 361 OFFCURVE",
"269 361 CURVE SMOOTH",
"281 361 OFFCURVE",
"313 358 OFFCURVE",
"335 351 CURVE SMOOTH",
"347 347 OFFCURVE",
"350 348 OFFCURVE",
"356 360 CURVE SMOOTH",
"391 431 LINE SMOOTH",
"395 440 OFFCURVE",
"397 445 OFFCURVE",
"383 452 CURVE SMOOTH",
"351 468 OFFCURVE",
"309 476 OFFCURVE",
"255 476 CURVE SMOOTH"
);
}
);
width = 361;
}
);
leftKerningGroup = n;
leftMetricsKey = n;
note = r;
rightKerningGroup = r;
unicode = 0072;
},
{
glyphname = s;
lastChange = "2021-06-09 21:23:28 +0000";
layers = (
{
anchors = (
{
name = bottom;
position = "{142, 0}";
},
{
name = top;
position = "{242, 472}";
}
);
background = {
paths = (
{
closed = 1;
nodes = (
"-63 35 LINE SMOOTH",
"-64 33 OFFCURVE",
"-64 31 OFFCURVE",
"-64 29 CURVE",
"-29 6 OFFCURVE",
"37 -5 OFFCURVE",
"71 -5 CURVE SMOOTH",
"146 -5 OFFCURVE",
"245 31 OFFCURVE",
"268 142 CURVE SMOOTH",
"291 249 OFFCURVE",
"216 255 OFFCURVE",
"146 261 CURVE SMOOTH",
"83 267 OFFCURVE",
"22 273 OFFCURVE",
"39 352 CURVE SMOOTH",
"49 401 OFFCURVE",
"109 447 OFFCURVE",
"202 447 CURVE SMOOTH",
"232 447 OFFCURVE",
"286 432 OFFCURVE",
"304 415 CURVE",
"306 414 OFFCURVE",
"310 413 OFFCURVE",
"311 415 CURVE",
"322 437 LINE",
"322 439 OFFCURVE",
"323 441 OFFCURVE",
"322 442 CURVE SMOOTH",
"299 465 OFFCURVE",
"242 477 OFFCURVE",
"208 477 CURVE SMOOTH",
"108 477 OFFCURVE",
"22 430 OFFCURVE",
"6 352 CURVE SMOOTH",
"-17 246 OFFCURVE",
"53 237 OFFCURVE",
"122 231 CURVE SMOOTH",
"188 225 OFFCURVE",
"252 222 OFFCURVE",
"235 142 CURVE SMOOTH",
"218 59 OFFCURVE",
"145 25 OFFCURVE",
"77 25 CURVE SMOOTH",
"43 25 OFFCURVE",
"-23 39 OFFCURVE",
"-49 60 CURVE",
"-51 63 OFFCURVE",
"-54 63 OFFCURVE",
"-54 60 CURVE SMOOTH"
);
}
);
};
layerId = "707362F1-A677-446A-8636-E10BE3A7FAFF";
paths = (
{
closed = 1;
nodes = (
"-5 35 LINE SMOOTH",
"-6 33 OFFCURVE",
"-6 31 OFFCURVE",
"-6 29 CURVE",
"29 6 OFFCURVE",
"95 -5 OFFCURVE",
"129 -5 CURVE SMOOTH",
"204 -5 OFFCURVE",
"303 31 OFFCURVE",
"326 142 CURVE SMOOTH",
"349 249 OFFCURVE",
"274 255 OFFCURVE",
"204 261 CURVE SMOOTH",
"141 267 OFFCURVE",
"80 273 OFFCURVE",
"97 352 CURVE SMOOTH",
"107 401 OFFCURVE",
"167 447 OFFCURVE",
"260 447 CURVE SMOOTH",
"290 447 OFFCURVE",
"344 432 OFFCURVE",
"362 415 CURVE",
"364 414 OFFCURVE",
"368 413 OFFCURVE",
"369 415 CURVE",
"380 437 LINE",
"380 439 OFFCURVE",
"381 441 OFFCURVE",
"380 442 CURVE SMOOTH",
"357 465 OFFCURVE",
"300 477 OFFCURVE",
"266 477 CURVE SMOOTH",
"166 477 OFFCURVE",
"80 430 OFFCURVE",
"64 352 CURVE SMOOTH",
"41 246 OFFCURVE",
"111 237 OFFCURVE",
"180 231 CURVE SMOOTH",
"246 225 OFFCURVE",
"310 222 OFFCURVE",
"293 142 CURVE SMOOTH",
"276 59 OFFCURVE",
"203 25 OFFCURVE",
"135 25 CURVE SMOOTH",
"101 25 OFFCURVE",
"35 39 OFFCURVE",
"9 60 CURVE",
"7 63 OFFCURVE",
"4 63 OFFCURVE",
"4 60 CURVE SMOOTH"
);
}
);
width = 384;
},
{
anchors = (
{
name = bottom;
position = "{146, 0}";
},
{
name = top;
position = "{281, 472}";
}
);
background = {
paths = (
{
closed = 1;
nodes = (
"-13 54 LINE SMOOTH",
"-17 46 OFFCURVE",
"-13 41 OFFCURVE",
"-8 37 CURVE SMOOTH",
"28 6 OFFCURVE",
"106 -5 OFFCURVE",
"145 -5 CURVE SMOOTH",
"232 -5 OFFCURVE",
"347 33 OFFCURVE",
"373 155 CURVE SMOOTH",
"397 267 OFFCURVE",
"295 298 OFFCURVE",
"247 302 CURVE SMOOTH",
"209 304 OFFCURVE",
"188 317 OFFCURVE",
"193 340 CURVE SMOOTH",
"197 358 OFFCURVE",
"221 369 OFFCURVE",
"257 369 CURVE SMOOTH",
"287 369 OFFCURVE",
"327 350 OFFCURVE",
"355 334 CURVE",
"364 330 OFFCURVE",
"374 333 OFFCURVE",
"378 341 CURVE",
"420 414 LINE",
"426 425 OFFCURVE",
"428 427 OFFCURVE",
"416 437 CURVE SMOOTH",
"383 466 OFFCURVE",
"315 477 OFFCURVE",
"281 477 CURVE SMOOTH",
"170 477 OFFCURVE",
"71 427 OFFCURVE",
"51 336 CURVE SMOOTH",
"26 217 OFFCURVE",
"110 194 OFFCURVE",
"160 185 CURVE SMOOTH",
"239 171 OFFCURVE",
"240 156 OFFCURVE",
"236 140 CURVE SMOOTH",
"228 114 OFFCURVE",
"201 105 OFFCURVE",
"166 105 CURVE SMOOTH",
"128 105 OFFCURVE",
"74 113 OFFCURVE",
"44 132 CURVE",
"36 138 OFFCURVE",
"26 144 OFFCURVE",
"18 127 CURVE SMOOTH"
);
}
);
};
layerId = "D1BC8BBB-1669-4C46-BC21-42BF6808B2B9";
paths = (
{
closed = 1;
nodes = (
"-13 54 LINE SMOOTH",
"-16 46 OFFCURVE",
"-13 41 OFFCURVE",
"-8 37 CURVE SMOOTH",
"28 6 OFFCURVE",
"106 -5 OFFCURVE",
"145 -5 CURVE SMOOTH",
"232 -5 OFFCURVE",
"347 33 OFFCURVE",
"373 155 CURVE SMOOTH",
"397 267 OFFCURVE",
"295 298 OFFCURVE",
"247 302 CURVE SMOOTH",
"209 304 OFFCURVE",
"188 317 OFFCURVE",
"193 340 CURVE SMOOTH",
"197 358 OFFCURVE",
"221 369 OFFCURVE",
"257 369 CURVE SMOOTH",
"287 369 OFFCURVE",
"327 350 OFFCURVE",
"355 334 CURVE",
"364 330 OFFCURVE",
"374 333 OFFCURVE",
"378 341 CURVE",
"420 414 LINE",
"426 425 OFFCURVE",
"428 427 OFFCURVE",
"416 437 CURVE SMOOTH",
"383 466 OFFCURVE",
"315 477 OFFCURVE",
"281 477 CURVE SMOOTH",
"170 477 OFFCURVE",
"71 427 OFFCURVE",
"51 336 CURVE SMOOTH",
"26 217 OFFCURVE",
"110 194 OFFCURVE",
"160 185 CURVE SMOOTH",
"239 171 OFFCURVE",
"240 156 OFFCURVE",
"236 140 CURVE SMOOTH",
"228 114 OFFCURVE",
"201 105 OFFCURVE",
"166 105 CURVE SMOOTH",
"128 105 OFFCURVE",
"74 113 OFFCURVE",
"44 132 CURVE",
"36 138 OFFCURVE",
"25 144 OFFCURVE",
"18 127 CURVE SMOOTH"
);
}
);
width = 415;
}
);
leftKerningGroup = s;
note = s;
rightKerningGroup = s;
unicode = 0073;
},
{
glyphname = t;
lastChange = "2021-06-09 21:23:28 +0000";
layers = (
{
anchors = (
{
name = bottom;
position = "{103, 0}";
},
{
name = center;
position = "{153, 236}";
},
{
name = top;
position = "{203, 472}";
},
{
name = topright;
position = "{336, 472}";
}
);
background = {
paths = (
{
closed = 1;
nodes = (
"298 0 OFFCURVE",
"347 5 OFFCURVE",
"369 14 CURVE SMOOTH",
"377 18 OFFCURVE",
"379 19 OFFCURVE",
"378 25 CURVE SMOOTH",
"376 40 LINE SMOOTH",
"375 44 OFFCURVE",
"373 44 OFFCURVE",
"368 42 CURVE SMOOTH",
"343 34 OFFCURVE",
"321 29 OFFCURVE",
"300 29 CURVE SMOOTH",
"239 29 OFFCURVE",
"221 53 OFFCURVE",
"222 100 CURVE SMOOTH",
"222 160 OFFCURVE",
"239 224 OFFCURVE",
"251 283 CURVE SMOOTH",
"262 333 OFFCURVE",
"274 383 OFFCURVE",
"287 433 CURVE SMOOTH",
"288 439 OFFCURVE",
"294 442 OFFCURVE",
"297 442 CURVE SMOOTH",
"436 442 LINE SMOOTH",
"438 442 OFFCURVE",
"441 446 OFFCURVE",
"441 446 CURVE",
"445 468 LINE SMOOTH",
"446 470 OFFCURVE",
"444 472 OFFCURVE",
"442 472 CURVE SMOOTH",
"303 472 LINE SMOOTH",
"297 472 OFFCURVE",
"296 476 OFFCURVE",
"298 481 CURVE",
"322 572 LINE SMOOTH",
"322 575 OFFCURVE",
"320 576 OFFCURVE",
"318 576 CURVE SMOOTH",
"292 576 LINE SMOOTH",
"290 576 OFFCURVE",
"289 575 OFFCURVE",
"289 572 CURVE SMOOTH",
"264 480 LINE SMOOTH",
"262 473 OFFCURVE",
"259 472 OFFCURVE",
"254 472 CURVE SMOOTH",
"197 472 LINE SMOOTH",
"195 472 OFFCURVE",
"192 468 OFFCURVE",
"192 468 CURVE",
"188 446 LINE",
"188 446 OFFCURVE",
"189 442 OFFCURVE",
"191 442 CURVE SMOOTH",
"248 442 LINE SMOOTH",
"253 442 OFFCURVE",
"255 438 OFFCURVE",
"254 433 CURVE SMOOTH",
"241 385 OFFCURVE",
"229 336 OFFCURVE",
"219 287 CURVE SMOOTH",
"204 218 OFFCURVE",
"188 153 OFFCURVE",
"187 96 CURVE SMOOTH",
"185 34 OFFCURVE",
"211 0 OFFCURVE",
"289 0 CURVE SMOOTH"
);
}
);
};
layerId = "707362F1-A677-446A-8636-E10BE3A7FAFF";
paths = (
{
closed = 1;
nodes = (
"175 0 OFFCURVE",
"224 5 OFFCURVE",
"246 14 CURVE SMOOTH",
"254 18 OFFCURVE",
"256 19 OFFCURVE",
"255 25 CURVE SMOOTH",
"253 40 LINE SMOOTH",
"252 44 OFFCURVE",
"250 44 OFFCURVE",
"245 42 CURVE SMOOTH",
"220 34 OFFCURVE",
"198 29 OFFCURVE",
"177 29 CURVE SMOOTH",
"116 29 OFFCURVE",
"98 53 OFFCURVE",
"99 100 CURVE SMOOTH",
"99 160 OFFCURVE",
"116 224 OFFCURVE",
"128 283 CURVE SMOOTH",
"139 333 OFFCURVE",
"151 383 OFFCURVE",
"164 433 CURVE SMOOTH",
"165 439 OFFCURVE",
"171 442 OFFCURVE",
"174 442 CURVE SMOOTH",
"313 442 LINE SMOOTH",
"315 442 OFFCURVE",
"318 446 OFFCURVE",
"318 446 CURVE",
"322 468 LINE SMOOTH",
"323 470 OFFCURVE",
"321 472 OFFCURVE",
"319 472 CURVE SMOOTH",
"180 472 LINE SMOOTH",
"174 472 OFFCURVE",
"173 476 OFFCURVE",
"175 481 CURVE",
"199 572 LINE SMOOTH",
"199 575 OFFCURVE",
"197 576 OFFCURVE",
"195 576 CURVE SMOOTH",
"169 576 LINE SMOOTH",
"167 576 OFFCURVE",
"166 575 OFFCURVE",
"166 572 CURVE SMOOTH",
"141 480 LINE SMOOTH",
"139 473 OFFCURVE",
"136 472 OFFCURVE",
"131 472 CURVE SMOOTH",
"74 472 LINE SMOOTH",
"72 472 OFFCURVE",
"69 468 OFFCURVE",
"69 468 CURVE",
"65 446 LINE",
"65 446 OFFCURVE",
"66 442 OFFCURVE",
"68 442 CURVE SMOOTH",
"125 442 LINE SMOOTH",
"130 442 OFFCURVE",
"132 438 OFFCURVE",
"131 433 CURVE SMOOTH",
"118 385 OFFCURVE",
"106 336 OFFCURVE",
"96 287 CURVE SMOOTH",
"81 218 OFFCURVE",
"65 153 OFFCURVE",
"64 96 CURVE SMOOTH",
"62 34 OFFCURVE",
"88 0 OFFCURVE",
"166 0 CURVE SMOOTH"
);
}
);
width = 306;
},
{
anchors = (
{
name = bottom;
position = "{188, 6}";
},
{
name = center;
position = "{185, 236}";
},
{
name = top;
position = "{195, 472}";
},
{
name = topright;
position = "{412, 570}";
}
);
background = {
paths = (
{
closed = 1;
nodes = (
"215 0 OFFCURVE",
"243 5 OFFCURVE",
"270 14 CURVE SMOOTH",
"298 24 OFFCURVE",
"309 31 OFFCURVE",
"306 42 CURVE",
"301 111 LINE",
"298 125 OFFCURVE",
"298 130 OFFCURVE",
"279 120 CURVE",
"270 117 OFFCURVE",
"254 111 OFFCURVE",
"239 111 CURVE SMOOTH",
"223 111 OFFCURVE",
"210 118 OFFCURVE",
"209 140 CURVE SMOOTH",
"208 180 OFFCURVE",
"216 226 OFFCURVE",
"225 270 CURVE SMOOTH",
"234 304 OFFCURVE",
"242 337 OFFCURVE",
"249 368 CURVE SMOOTH",
"252 379 OFFCURVE",
"254 383 OFFCURVE",
"264 383 CURVE SMOOTH",
"336 383 LINE SMOOTH",
"351 383 OFFCURVE",
"355 385 OFFCURVE",
"358 400 CURVE SMOOTH",
"369 453 LINE SMOOTH",
"373 471 OFFCURVE",
"373 472 OFFCURVE",
"357 472 CURVE SMOOTH",
"284 472 LINE SMOOTH",
"276 472 OFFCURVE",
"276 473 OFFCURVE",
"280 490 CURVE SMOOTH",
"300 562 LINE SMOOTH",
"302 570 OFFCURVE",
"295 576 OFFCURVE",
"287 576 CURVE SMOOTH",
"173 576 LINE SMOOTH",
"164 576 OFFCURVE",
"158 570 OFFCURVE",
"156 562 CURVE SMOOTH",
"137 491 LINE SMOOTH",
"134 478 OFFCURVE",
"132 472 OFFCURVE",
"122 472 CURVE SMOOTH",
"83 472 LINE SMOOTH",
"67 472 OFFCURVE",
"66 473 OFFCURVE",
"62 455 CURVE SMOOTH",
"50 399 LINE SMOOTH",
"46 383 OFFCURVE",
"49 383 OFFCURVE",
"61 383 CURVE SMOOTH",
"99 383 LINE SMOOTH",
"105 383 OFFCURVE",
"108 381 OFFCURVE",
"106 373 CURVE SMOOTH",
"97 340 OFFCURVE",
"93 319 OFFCURVE",
"85 282 CURVE SMOOTH",
"73 225 OFFCURVE",
"59 166 OFFCURVE",
"58 110 CURVE SMOOTH",
"59 40 OFFCURVE",
"92 0 OFFCURVE",
"185 0 CURVE SMOOTH"
);
}
);
};
layerId = "D1BC8BBB-1669-4C46-BC21-42BF6808B2B9";
paths = (
{
closed = 1;
nodes = (
"215 0 OFFCURVE",
"243 5 OFFCURVE",
"270 14 CURVE SMOOTH",
"298 24 OFFCURVE",
"309 31 OFFCURVE",
"306 42 CURVE",
"301 111 LINE",
"298 125 OFFCURVE",
"298 130 OFFCURVE",
"279 120 CURVE",
"270 117 OFFCURVE",
"254 111 OFFCURVE",
"239 111 CURVE SMOOTH",
"223 111 OFFCURVE",
"210 118 OFFCURVE",
"209 140 CURVE SMOOTH",
"208 180 OFFCURVE",
"216 226 OFFCURVE",
"225 270 CURVE SMOOTH",
"234 304 OFFCURVE",
"242 337 OFFCURVE",
"249 368 CURVE SMOOTH",
"252 379 OFFCURVE",
"254 383 OFFCURVE",
"264 383 CURVE SMOOTH",
"336 383 LINE SMOOTH",
"351 383 OFFCURVE",
"355 385 OFFCURVE",
"358 400 CURVE SMOOTH",
"369 453 LINE SMOOTH",
"373 471 OFFCURVE",
"373 472 OFFCURVE",
"357 472 CURVE SMOOTH",
"284 472 LINE SMOOTH",
"276 472 OFFCURVE",
"275 473 OFFCURVE",
"280 490 CURVE SMOOTH",
"300 562 LINE SMOOTH",
"302 570 OFFCURVE",
"295 576 OFFCURVE",
"287 576 CURVE SMOOTH",
"173 576 LINE SMOOTH",
"164 576 OFFCURVE",
"158 570 OFFCURVE",
"156 562 CURVE SMOOTH",
"137 491 LINE SMOOTH",
"134 478 OFFCURVE",
"132 472 OFFCURVE",
"122 472 CURVE SMOOTH",
"83 472 LINE SMOOTH",
"67 472 OFFCURVE",
"66 473 OFFCURVE",
"62 455 CURVE SMOOTH",
"50 399 LINE SMOOTH",
"47 383 OFFCURVE",
"49 383 OFFCURVE",
"61 383 CURVE SMOOTH",
"99 383 LINE SMOOTH",
"105 383 OFFCURVE",
"108 381 OFFCURVE",
"106 373 CURVE SMOOTH",
"97 340 OFFCURVE",
"93 319 OFFCURVE",
"85 282 CURVE SMOOTH",
"73 225 OFFCURVE",
"59 166 OFFCURVE",
"58 110 CURVE SMOOTH",
"59 40 OFFCURVE",
"92 0 OFFCURVE",
"185 0 CURVE SMOOTH"
);
}
);
width = 369;
}
);
leftKerningGroup = t;
note = t;
rightKerningGroup = t;
unicode = 0074;
},
{
glyphname = u;
lastChange = "2021-06-09 21:23:28 +0000";
layers = (
{
anchors = (
{
name = bottom;
position = "{198, 0}";
},
{
name = ogonek;
position = "{370, 36}";
},
{
name = top;
position = "{285, 472}";
},
{
name = topright;
position = "{416, 472}";
}
);
background = {
paths = (
{
closed = 1;
nodes = (
"286 -4 OFFCURVE",
"361 13 OFFCURVE",
"376 19 CURVE SMOOTH",
"400 27 OFFCURVE",
"407 32 OFFCURVE",
"410 48 CURVE SMOOTH",
"499 468 LINE SMOOTH",
"500 471 OFFCURVE",
"498 472 OFFCURVE",
"496 472 CURVE SMOOTH",
"470 472 LINE SMOOTH",
"468 472 OFFCURVE",
"467 471 OFFCURVE",
"466 468 CURVE SMOOTH",
"382 71 LINE SMOOTH",
"375 38 OFFCURVE",
"269 28 OFFCURVE",
"242 28 CURVE SMOOTH",
"136 28 OFFCURVE",
"110 104 OFFCURVE",
"134 215 CURVE SMOOTH",
"156 320 OFFCURVE",
"189 444 OFFCURVE",
"195 465 CURVE SMOOTH",
"197 471 OFFCURVE",
"196 472 OFFCURVE",
"190 472 CURVE SMOOTH",
"173 472 LINE SMOOTH",
"167 472 OFFCURVE",
"164 471 OFFCURVE",
"162 467 CURVE",
"153 431 OFFCURVE",
"123 322 OFFCURVE",
"101 219 CURVE SMOOTH",
"75 94 OFFCURVE",
"91 -4 OFFCURVE",
"237 -4 CURVE SMOOTH"
);
}
);
};
layerId = "707362F1-A677-446A-8636-E10BE3A7FAFF";
paths = (
{
closed = 1;
nodes = (
"251 -4 OFFCURVE",
"326 13 OFFCURVE",
"341 19 CURVE SMOOTH",
"365 27 OFFCURVE",
"372 32 OFFCURVE",
"375 48 CURVE SMOOTH",
"464 468 LINE SMOOTH",
"465 471 OFFCURVE",
"463 472 OFFCURVE",
"461 472 CURVE SMOOTH",
"435 472 LINE SMOOTH",
"433 472 OFFCURVE",
"432 471 OFFCURVE",
"431 468 CURVE SMOOTH",
"347 71 LINE SMOOTH",
"340 38 OFFCURVE",
"234 28 OFFCURVE",
"207 28 CURVE SMOOTH",
"101 28 OFFCURVE",
"75 104 OFFCURVE",
"99 215 CURVE SMOOTH",
"121 320 OFFCURVE",
"154 444 OFFCURVE",
"160 465 CURVE SMOOTH",
"162 471 OFFCURVE",
"161 472 OFFCURVE",
"155 472 CURVE SMOOTH",
"138 472 LINE SMOOTH",
"132 472 OFFCURVE",
"129 471 OFFCURVE",
"127 467 CURVE",
"118 431 OFFCURVE",
"88 322 OFFCURVE",
"66 219 CURVE SMOOTH",
"40 94 OFFCURVE",
"56 -4 OFFCURVE",
"202 -4 CURVE SMOOTH"
);
}
);
width = 495;
},
{
anchors = (
{
name = bottom;
position = "{194, 0}";
},
{
name = ogonek;
position = "{376, 48}";
},
{
name = top;
position = "{290, 472}";
},
{
name = topright;
position = "{360, 472}";
}
);
background = {
paths = (
{
closed = 1;
nodes = (
"243 -4 OFFCURVE",
"321 12 OFFCURVE",
"347 20 CURVE SMOOTH",
"380 31 OFFCURVE",
"388 34 OFFCURVE",
"391 50 CURVE SMOOTH",
"478 457 LINE SMOOTH",
"481 471 OFFCURVE",
"470 472 OFFCURVE",
"465 472 CURVE SMOOTH",
"345 472 LINE SMOOTH",
"336 472 OFFCURVE",
"334 460 OFFCURVE",
"332 452 CURVE SMOOTH",
"262 125 LINE SMOOTH",
"259 109 OFFCURVE",
"233 109 OFFCURVE",
"222 109 CURVE SMOOTH",
"177 109 OFFCURVE",
"166 139 OFFCURVE",
"183 218 CURVE SMOOTH",
"200 298 OFFCURVE",
"238 440 OFFCURVE",
"242 451 CURVE SMOOTH",
"251 478 OFFCURVE",
"240 472 OFFCURVE",
"220 472 CURVE SMOOTH",
"126 472 LINE SMOOTH",
"105 472 OFFCURVE",
"102 472 OFFCURVE",
"93 444 CURVE SMOOTH",
"70 376 OFFCURVE",
"47 291 OFFCURVE",
"32 222 CURVE SMOOTH",
"6 100 OFFCURVE",
"25 -4 OFFCURVE",
"194 -4 CURVE SMOOTH"
);
}
);
};
layerId = "D1BC8BBB-1669-4C46-BC21-42BF6808B2B9";
paths = (
{
closed = 1;
nodes = (
"243 -4 OFFCURVE",
"321 12 OFFCURVE",
"347 20 CURVE SMOOTH",
"380 31 OFFCURVE",
"388 34 OFFCURVE",
"391 50 CURVE SMOOTH",
"478 457 LINE SMOOTH",
"481 471 OFFCURVE",
"470 472 OFFCURVE",
"465 472 CURVE SMOOTH",
"345 472 LINE SMOOTH",
"336 472 OFFCURVE",
"334 460 OFFCURVE",
"332 452 CURVE SMOOTH",
"262 125 LINE SMOOTH",
"259 109 OFFCURVE",
"233 109 OFFCURVE",
"222 109 CURVE SMOOTH",
"177 109 OFFCURVE",
"166 139 OFFCURVE",
"183 218 CURVE SMOOTH",
"200 298 OFFCURVE",
"238 440 OFFCURVE",
"242 451 CURVE SMOOTH",
"251 478 OFFCURVE",
"240 472 OFFCURVE",
"220 472 CURVE SMOOTH",
"126 472 LINE SMOOTH",
"105 472 OFFCURVE",
"102 472 OFFCURVE",
"93 444 CURVE SMOOTH",
"70 376 OFFCURVE",
"47 291 OFFCURVE",
"32 222 CURVE SMOOTH",
"6 100 OFFCURVE",
"25 -4 OFFCURVE",
"194 -4 CURVE SMOOTH"
);
}
);
width = 463;
}
);
leftKerningGroup = u;
note = u;
rightKerningGroup = l;
rightMetricsKey = l;
unicode = 0075;
},
{
glyphname = v;
lastChange = "2021-06-09 21:23:28 +0000";
layers = (
{
background = {
paths = (
{
closed = 1;
nodes = (
"291 0 LINE SMOOTH",
"295 0 OFFCURVE",
"298 3 OFFCURVE",
"300 6 CURVE SMOOTH",
"344 67 OFFCURVE",
"386 137 OFFCURVE",
"427 214 CURVE SMOOTH",
"477 306 OFFCURVE",
"520 403 OFFCURVE",
"541 465 CURVE SMOOTH",
"543 471 OFFCURVE",
"541 472 OFFCURVE",
"537 472 CURVE SMOOTH",
"514 472 LINE SMOOTH",
"510 472 OFFCURVE",
"506 471 OFFCURVE",
"504 465 CURVE SMOOTH",
"485 409 OFFCURVE",
"446 317 OFFCURVE",
"400 230 CURVE SMOOTH",
"358 150 OFFCURVE",
"315 76 OFFCURVE",
"294 51 CURVE SMOOTH",
"285 41 OFFCURVE",
"276 34 OFFCURVE",
"270 52 CURVE SMOOTH",
"259 80 OFFCURVE",
"246 168 OFFCURVE",
"239 257 CURVE SMOOTH",
"233 336 OFFCURVE",
"230 416 OFFCURVE",
"235 465 CURVE SMOOTH",
"235 471 OFFCURVE",
"231 472 OFFCURVE",
"228 472 CURVE SMOOTH",
"209 472 LINE SMOOTH",
"206 472 OFFCURVE",
"203 471 OFFCURVE",
"203 465 CURVE SMOOTH",
"198 400 OFFCURVE",
"200 296 OFFCURVE",
"212 190 CURVE SMOOTH",
"220 127 OFFCURVE",
"231 61 OFFCURVE",
"248 6 CURVE SMOOTH",
"250 1 OFFCURVE",
"252 0 OFFCURVE",
"257 0 CURVE SMOOTH"
);
}
);
};
layerId = "707362F1-A677-446A-8636-E10BE3A7FAFF";
paths = (
{
closed = 1;
nodes = (
"162 0 LINE SMOOTH",
"166 0 OFFCURVE",
"169 3 OFFCURVE",
"171 6 CURVE SMOOTH",
"215 67 OFFCURVE",
"257 137 OFFCURVE",
"298 214 CURVE SMOOTH",
"348 306 OFFCURVE",
"391 403 OFFCURVE",
"412 465 CURVE SMOOTH",
"414 471 OFFCURVE",
"412 472 OFFCURVE",
"408 472 CURVE SMOOTH",
"385 472 LINE SMOOTH",
"381 472 OFFCURVE",
"377 471 OFFCURVE",
"375 465 CURVE SMOOTH",
"356 409 OFFCURVE",
"317 317 OFFCURVE",
"271 230 CURVE SMOOTH",
"229 150 OFFCURVE",
"186 76 OFFCURVE",
"165 51 CURVE SMOOTH",
"156 41 OFFCURVE",
"147 34 OFFCURVE",
"141 52 CURVE SMOOTH",
"130 80 OFFCURVE",
"117 168 OFFCURVE",
"110 257 CURVE SMOOTH",
"104 336 OFFCURVE",
"101 416 OFFCURVE",
"106 465 CURVE SMOOTH",
"106 471 OFFCURVE",
"102 472 OFFCURVE",
"99 472 CURVE SMOOTH",
"80 472 LINE SMOOTH",
"77 472 OFFCURVE",
"74 471 OFFCURVE",
"74 465 CURVE SMOOTH",
"69 400 OFFCURVE",
"71 296 OFFCURVE",
"83 190 CURVE SMOOTH",
"91 127 OFFCURVE",
"102 61 OFFCURVE",
"119 6 CURVE SMOOTH",
"121 1 OFFCURVE",
"123 0 OFFCURVE",
"128 0 CURVE SMOOTH"
);
}
);
width = 388;
},
{
background = {
paths = (
{
closed = 1;
nodes = (
"207 -1 LINE SMOOTH",
"211 -1 OFFCURVE",
"213 0 OFFCURVE",
"217 5 CURVE SMOOTH",
"268 70 OFFCURVE",
"306 129 OFFCURVE",
"338 186 CURVE SMOOTH",
"392 281 OFFCURVE",
"434 373 OFFCURVE",
"467 464 CURVE SMOOTH",
"469 470 OFFCURVE",
"467 471 OFFCURVE",
"463 471 CURVE SMOOTH",
"331 471 LINE SMOOTH",
"329 471 OFFCURVE",
"327 470 OFFCURVE",
"325 466 CURVE",
"314 429 OFFCURVE",
"291 366 OFFCURVE",
"268 308 CURVE SMOOTH",
"245 254 OFFCURVE",
"235 228 OFFCURVE",
"223 206 CURVE SMOOTH",
"217 194 OFFCURVE",
"208 192 OFFCURVE",
"207 206 CURVE SMOOTH",
"205 241 OFFCURVE",
"203 272 OFFCURVE",
"204 332 CURVE SMOOTH",
"204 385 OFFCURVE",
"204 420 OFFCURVE",
"209 457 CURVE SMOOTH",
"210 464 OFFCURVE",
"206 472 OFFCURVE",
"195 472 CURVE SMOOTH",
"72 472 LINE SMOOTH",
"57 472 OFFCURVE",
"55 454 OFFCURVE",
"54 432 CURVE SMOOTH",
"52 370 OFFCURVE",
"54 296 OFFCURVE",
"72 190 CURVE SMOOTH",
"82 127 OFFCURVE",
"92 61 OFFCURVE",
"117 6 CURVE SMOOTH",
"120 0 OFFCURVE",
"122 0 OFFCURVE",
"128 0 CURVE SMOOTH"
);
}
);
};
layerId = "D1BC8BBB-1669-4C46-BC21-42BF6808B2B9";
paths = (
{
closed = 1;
nodes = (
"207 -1 LINE SMOOTH",
"211 -1 OFFCURVE",
"213 0 OFFCURVE",
"217 5 CURVE SMOOTH",
"268 70 OFFCURVE",
"306 129 OFFCURVE",
"338 186 CURVE SMOOTH",
"392 281 OFFCURVE",
"434 373 OFFCURVE",
"467 464 CURVE SMOOTH",
"469 470 OFFCURVE",
"467 471 OFFCURVE",
"463 471 CURVE SMOOTH",
"331 471 LINE SMOOTH",
"329 471 OFFCURVE",
"327 470 OFFCURVE",
"325 466 CURVE",
"314 429 OFFCURVE",
"291 366 OFFCURVE",
"268 308 CURVE SMOOTH",
"245 254 OFFCURVE",
"235 228 OFFCURVE",
"223 206 CURVE SMOOTH",
"217 194 OFFCURVE",
"208 192 OFFCURVE",
"207 206 CURVE SMOOTH",
"205 241 OFFCURVE",
"203 272 OFFCURVE",
"204 332 CURVE SMOOTH",
"204 385 OFFCURVE",
"204 420 OFFCURVE",
"209 457 CURVE SMOOTH",
"210 464 OFFCURVE",
"206 472 OFFCURVE",
"195 472 CURVE SMOOTH",
"72 472 LINE SMOOTH",
"57 472 OFFCURVE",
"55 454 OFFCURVE",
"54 432 CURVE SMOOTH",
"52 370 OFFCURVE",
"54 296 OFFCURVE",
"72 190 CURVE SMOOTH",
"82 127 OFFCURVE",
"92 61 OFFCURVE",
"117 6 CURVE SMOOTH",
"120 0 OFFCURVE",
"122 0 OFFCURVE",
"128 0 CURVE SMOOTH"
);
}
);
width = 429;
}
);
leftKerningGroup = v;
note = v;
rightKerningGroup = v;
unicode = 0076;
},
{
glyphname = w;
lastChange = "2021-06-09 21:23:28 +0000";
layers = (
{
anchors = (
{
name = bottom;
position = "{255, 0}";
},
{
name = top;
position = "{355, 472}";
}
);
background = {
paths = (
{
closed = 1;
nodes = (
"306 0 LINE SMOOTH",
"309 0 OFFCURVE",
"312 1 OFFCURVE",
"315 6 CURVE SMOOTH",
"328 25 OFFCURVE",
"343 45 OFFCURVE",
"356 65 CURVE SMOOTH",
"384 110 OFFCURVE",
"412 160 OFFCURVE",
"436 205 CURVE SMOOTH",
"440 213 OFFCURVE",
"447 214 OFFCURVE",
"448 204 CURVE SMOOTH",
"453 154 OFFCURVE",
"470 65 OFFCURVE",
"489 6 CURVE SMOOTH",
"490 2 OFFCURVE",
"493 0 OFFCURVE",
"497 0 CURVE SMOOTH",
"528 0 LINE SMOOTH",
"531 0 OFFCURVE",
"534 1 OFFCURVE",
"537 6 CURVE SMOOTH",
"647 158 OFFCURVE",
"742 362 OFFCURVE",
"778 465 CURVE SMOOTH",
"780 471 OFFCURVE",
"778 472 OFFCURVE",
"774 472 CURVE SMOOTH",
"750 472 LINE SMOOTH",
"747 472 OFFCURVE",
"743 471 OFFCURVE",
"741 465 CURVE SMOOTH",
"706 360 OFFCURVE",
"583 111 OFFCURVE",
"527 47 CURVE SMOOTH",
"519 37 OFFCURVE",
"515 39 OFFCURVE",
"513 48 CURVE SMOOTH",
"501 81 OFFCURVE",
"465 259 OFFCURVE",
"478 317 CURVE SMOOTH",
"496 395 OFFCURVE",
"503 439 OFFCURVE",
"509 465 CURVE SMOOTH",
"510 471 OFFCURVE",
"505 472 OFFCURVE",
"502 472 CURVE SMOOTH",
"480 472 LINE SMOOTH",
"476 472 OFFCURVE",
"475 471 OFFCURVE",
"474 465 CURVE SMOOTH",
"468 439 OFFCURVE",
"449 344 OFFCURVE",
"441 306 CURVE SMOOTH",
"431 259 OFFCURVE",
"358 108 OFFCURVE",
"309 51 CURVE SMOOTH",
"300 40 OFFCURVE",
"293 41 OFFCURVE",
"287 57 CURVE SMOOTH",
"267 111 OFFCURVE",
"241 355 OFFCURVE",
"251 465 CURVE SMOOTH",
"252 471 OFFCURVE",
"249 472 OFFCURVE",
"244 472 CURVE SMOOTH",
"226 472 LINE SMOOTH",
"220 472 OFFCURVE",
"218 470 OFFCURVE",
"218 465 CURVE SMOOTH",
"211 362 OFFCURVE",
"219 159 OFFCURVE",
"266 6 CURVE SMOOTH",
"268 0 OFFCURVE",
"270 0 OFFCURVE",
"275 0 CURVE SMOOTH"
);
}
);
};
layerId = "707362F1-A677-446A-8636-E10BE3A7FAFF";
paths = (
{
closed = 1;
nodes = (
"162 0 LINE SMOOTH",
"165 0 OFFCURVE",
"168 1 OFFCURVE",
"171 6 CURVE SMOOTH",
"184 25 OFFCURVE",
"199 45 OFFCURVE",
"212 65 CURVE SMOOTH",
"240 110 OFFCURVE",
"268 160 OFFCURVE",
"292 205 CURVE SMOOTH",
"296 213 OFFCURVE",
"303 214 OFFCURVE",
"304 204 CURVE SMOOTH",
"309 154 OFFCURVE",
"326 65 OFFCURVE",
"345 6 CURVE SMOOTH",
"346 2 OFFCURVE",
"349 0 OFFCURVE",
"353 0 CURVE SMOOTH",
"384 0 LINE SMOOTH",
"387 0 OFFCURVE",
"390 1 OFFCURVE",
"393 6 CURVE SMOOTH",
"503 158 OFFCURVE",
"598 362 OFFCURVE",
"634 465 CURVE SMOOTH",
"636 471 OFFCURVE",
"634 472 OFFCURVE",
"630 472 CURVE SMOOTH",
"606 472 LINE SMOOTH",
"603 472 OFFCURVE",
"599 471 OFFCURVE",
"597 465 CURVE SMOOTH",
"562 360 OFFCURVE",
"439 111 OFFCURVE",
"383 47 CURVE SMOOTH",
"375 37 OFFCURVE",
"371 39 OFFCURVE",
"369 48 CURVE SMOOTH",
"357 81 OFFCURVE",
"321 259 OFFCURVE",
"334 317 CURVE SMOOTH",
"352 395 OFFCURVE",
"359 439 OFFCURVE",
"365 465 CURVE SMOOTH",
"366 471 OFFCURVE",
"361 472 OFFCURVE",
"358 472 CURVE SMOOTH",
"336 472 LINE SMOOTH",
"332 472 OFFCURVE",
"331 471 OFFCURVE",
"330 465 CURVE SMOOTH",
"324 439 OFFCURVE",
"305 344 OFFCURVE",
"297 306 CURVE SMOOTH",
"287 259 OFFCURVE",
"214 108 OFFCURVE",
"165 51 CURVE SMOOTH",
"156 40 OFFCURVE",
"149 41 OFFCURVE",
"143 57 CURVE SMOOTH",
"123 111 OFFCURVE",
"97 355 OFFCURVE",
"107 465 CURVE SMOOTH",
"108 471 OFFCURVE",
"105 472 OFFCURVE",
"100 472 CURVE SMOOTH",
"82 472 LINE SMOOTH",
"76 472 OFFCURVE",
"74 470 OFFCURVE",
"74 465 CURVE SMOOTH",
"67 362 OFFCURVE",
"75 159 OFFCURVE",
"122 6 CURVE SMOOTH",
"124 0 OFFCURVE",
"126 0 OFFCURVE",
"131 0 CURVE SMOOTH"
);
}
);
width = 610;
},
{
anchors = (
{
name = bottom;
position = "{279, 0}";
},
{
name = top;
position = "{379, 472}";
}
);
background = {
paths = (
{
closed = 1;
nodes = (
"199 0 LINE SMOOTH",
"210 0 OFFCURVE",
"217 6 OFFCURVE",
"223 12 CURVE SMOOTH",
"228 18 OFFCURVE",
"247 43 OFFCURVE",
"260 61 CURVE SMOOTH",
"269 73 OFFCURVE",
"292 108 OFFCURVE",
"296 114 CURVE SMOOTH",
"303 126 OFFCURVE",
"311 127 OFFCURVE",
"314 112 CURVE SMOOTH",
"320 77 OFFCURVE",
"336 26 OFFCURVE",
"342 12 CURVE SMOOTH",
"346 3 OFFCURVE",
"349 0 OFFCURVE",
"362 0 CURVE SMOOTH",
"428 0 LINE SMOOTH",
"441 0 OFFCURVE",
"446 6 OFFCURVE",
"457 18 CURVE SMOOTH",
"524 90 OFFCURVE",
"644 315 OFFCURVE",
"688 437 CURVE SMOOTH",
"695 457 OFFCURVE",
"699 472 OFFCURVE",
"684 472 CURVE SMOOTH",
"579 472 LINE SMOOTH",
"565 472 OFFCURVE",
"556 467 OFFCURVE",
"551 453 CURVE SMOOTH",
"513 350 OFFCURVE",
"465 243 OFFCURVE",
"442 194 CURVE SMOOTH",
"438 185 OFFCURVE",
"434 185 OFFCURVE",
"432 194 CURVE SMOOTH",
"427 219 OFFCURVE",
"427 264 OFFCURVE",
"432 315 CURVE SMOOTH",
"436 363 OFFCURVE",
"448 417 OFFCURVE",
"456 456 CURVE SMOOTH",
"458 466 OFFCURVE",
"453 471 OFFCURVE",
"445 471 CURVE SMOOTH",
"317 471 LINE SMOOTH",
"308 471 OFFCURVE",
"301 467 OFFCURVE",
"299 455 CURVE SMOOTH",
"293 428 OFFCURVE",
"285 380 OFFCURVE",
"274 329 CURVE SMOOTH",
"266 293 OFFCURVE",
"240 225 OFFCURVE",
"224 201 CURVE SMOOTH",
"218 192 OFFCURVE",
"214 191 OFFCURVE",
"213 204 CURVE SMOOTH",
"211 235 OFFCURVE",
"209 358 OFFCURVE",
"210 457 CURVE SMOOTH",
"210 467 OFFCURVE",
"206 472 OFFCURVE",
"195 472 CURVE SMOOTH",
"72 472 LINE SMOOTH",
"57 472 OFFCURVE",
"56 454 OFFCURVE",
"55 432 CURVE SMOOTH",
"51 331 OFFCURVE",
"68 154 OFFCURVE",
"111 17 CURVE SMOOTH",
"115 6 OFFCURVE",
"119 0 OFFCURVE",
"131 0 CURVE SMOOTH"
);
}
);
};
layerId = "D1BC8BBB-1669-4C46-BC21-42BF6808B2B9";
paths = (
{
closed = 1;
nodes = (
"199 0 LINE SMOOTH",
"210 0 OFFCURVE",
"217 6 OFFCURVE",
"223 12 CURVE SMOOTH",
"228 18 OFFCURVE",
"247 43 OFFCURVE",
"260 61 CURVE SMOOTH",
"269 73 OFFCURVE",
"292 108 OFFCURVE",
"296 114 CURVE SMOOTH",
"303 126 OFFCURVE",
"311 127 OFFCURVE",
"314 112 CURVE SMOOTH",
"320 77 OFFCURVE",
"336 26 OFFCURVE",
"342 12 CURVE SMOOTH",
"346 3 OFFCURVE",
"349 0 OFFCURVE",
"362 0 CURVE SMOOTH",
"428 0 LINE SMOOTH",
"441 0 OFFCURVE",
"446 6 OFFCURVE",
"457 18 CURVE SMOOTH",
"524 90 OFFCURVE",
"644 315 OFFCURVE",
"688 437 CURVE SMOOTH",
"695 457 OFFCURVE",
"699 472 OFFCURVE",
"684 472 CURVE SMOOTH",
"579 472 LINE SMOOTH",
"565 472 OFFCURVE",
"556 467 OFFCURVE",
"551 453 CURVE SMOOTH",
"513 350 OFFCURVE",
"465 243 OFFCURVE",
"442 194 CURVE SMOOTH",
"438 185 OFFCURVE",
"434 185 OFFCURVE",
"432 194 CURVE SMOOTH",
"427 219 OFFCURVE",
"427 264 OFFCURVE",
"432 315 CURVE SMOOTH",
"436 363 OFFCURVE",
"448 417 OFFCURVE",
"456 456 CURVE SMOOTH",
"458 466 OFFCURVE",
"453 471 OFFCURVE",
"445 471 CURVE SMOOTH",
"317 471 LINE SMOOTH",
"308 471 OFFCURVE",
"301 467 OFFCURVE",
"299 455 CURVE SMOOTH",
"293 428 OFFCURVE",
"285 380 OFFCURVE",
"274 329 CURVE SMOOTH",
"266 293 OFFCURVE",
"240 225 OFFCURVE",
"224 201 CURVE SMOOTH",
"218 192 OFFCURVE",
"214 191 OFFCURVE",
"213 204 CURVE SMOOTH",
"211 235 OFFCURVE",
"209 358 OFFCURVE",
"210 457 CURVE SMOOTH",
"210 467 OFFCURVE",
"206 472 OFFCURVE",
"195 472 CURVE SMOOTH",
"72 472 LINE SMOOTH",
"57 472 OFFCURVE",
"56 454 OFFCURVE",
"55 432 CURVE SMOOTH",
"51 331 OFFCURVE",
"68 154 OFFCURVE",
"111 17 CURVE SMOOTH",
"115 6 OFFCURVE",
"119 0 OFFCURVE",
"131 0 CURVE SMOOTH"
);
}
);
width = 657;
}
);
leftKerningGroup = w;
note = w;
rightKerningGroup = w;
unicode = 0077;
},
{
glyphname = x;
lastChange = "2021-06-09 21:23:28 +0000";
layers = (
{
background = {
paths = (
{
closed = 1;
nodes = (
"-90 0 LINE SMOOTH",
"-88 0 OFFCURVE",
"-85 0 OFFCURVE",
"-82 7 CURVE",
"-82 7 OFFCURVE",
"7 165 OFFCURVE",
"84 234 CURVE",
"96 234 OFFCURVE",
"107 234 OFFCURVE",
"119 234 CURVE",
"166 165 OFFCURVE",
"186 21 OFFCURVE",
"188 7 CURVE",
"190 0 OFFCURVE",
"192 0 OFFCURVE",
"194 0 CURVE SMOOTH",
"220 0 LINE SMOOTH",
"224 0 OFFCURVE",
"225 2 OFFCURVE",
"225 6 CURVE",
"224 18 OFFCURVE",
"204 144 OFFCURVE",
"157 238 CURVE SMOOTH",
"153 245 OFFCURVE",
"152 250 OFFCURVE",
"159 256 CURVE",
"239 341 OFFCURVE",
"304 466 OFFCURVE",
"304 466 CURVE",
"306 471 OFFCURVE",
"305 472 OFFCURVE",
"301 472 CURVE SMOOTH",
"278 472 LINE SMOOTH",
"275 472 OFFCURVE",
"273 472 OFFCURVE",
"270 465 CURVE",
"270 465 OFFCURVE",
"194 324 OFFCURVE",
"125 263 CURVE",
"113 263 OFFCURVE",
"102 263 OFFCURVE",
"90 263 CURVE",
"47 324 OFFCURVE",
"31 465 OFFCURVE",
"31 465 CURVE",
"30 472 OFFCURVE",
"28 472 OFFCURVE",
"25 472 CURVE SMOOTH",
"2 472 LINE SMOOTH",
"-2 472 OFFCURVE",
"-3 471 OFFCURVE",
"-3 466 CURVE",
"-3 466 OFFCURVE",
"9 342 OFFCURVE",
"52 257 CURVE SMOOTH",
"55 250 OFFCURVE",
"54 244 OFFCURVE",
"47 237 CURVE SMOOTH",
"-41 142 OFFCURVE",
"-119 6 OFFCURVE",
"-119 6 CURVE",
"-121 1 OFFCURVE",
"-120 0 OFFCURVE",
"-116 0 CURVE SMOOTH"
);
}
);
};
guideLines = (
{
position = "{188, 708}";
}
);
layerId = "707362F1-A677-446A-8636-E10BE3A7FAFF";
paths = (
{
closed = 1;
nodes = (
"-5 0 LINE SMOOTH",
"-3 0 OFFCURVE",
"0 0 OFFCURVE",
"3 7 CURVE",
"3 7 OFFCURVE",
"92 165 OFFCURVE",
"169 234 CURVE",
"181 234 OFFCURVE",
"192 234 OFFCURVE",
"204 234 CURVE",
"251 165 OFFCURVE",
"271 21 OFFCURVE",
"273 7 CURVE",
"275 0 OFFCURVE",
"277 0 OFFCURVE",
"279 0 CURVE SMOOTH",
"305 0 LINE SMOOTH",
"309 0 OFFCURVE",
"310 2 OFFCURVE",
"310 6 CURVE",
"309 18 OFFCURVE",
"289 144 OFFCURVE",
"242 238 CURVE SMOOTH",
"238 245 OFFCURVE",
"237 250 OFFCURVE",
"244 256 CURVE",
"324 341 OFFCURVE",
"389 466 OFFCURVE",
"389 466 CURVE",
"391 471 OFFCURVE",
"390 472 OFFCURVE",
"386 472 CURVE SMOOTH",
"363 472 LINE SMOOTH",
"360 472 OFFCURVE",
"358 472 OFFCURVE",
"355 465 CURVE",
"355 465 OFFCURVE",
"279 324 OFFCURVE",
"210 263 CURVE",
"198 263 OFFCURVE",
"187 263 OFFCURVE",
"175 263 CURVE",
"132 324 OFFCURVE",
"116 465 OFFCURVE",
"116 465 CURVE",
"115 472 OFFCURVE",
"113 472 OFFCURVE",
"110 472 CURVE SMOOTH",
"87 472 LINE SMOOTH",
"83 472 OFFCURVE",
"82 471 OFFCURVE",
"82 466 CURVE",
"82 466 OFFCURVE",
"94 342 OFFCURVE",
"137 257 CURVE SMOOTH",
"140 250 OFFCURVE",
"139 244 OFFCURVE",
"132 237 CURVE SMOOTH",
"44 142 OFFCURVE",
"-34 6 OFFCURVE",
"-34 6 CURVE",
"-36 1 OFFCURVE",
"-35 0 OFFCURVE",
"-31 0 CURVE SMOOTH"
);
}
);
width = 374;
},
{
background = {
paths = (
{
closed = 1;
nodes = (
"97 0 LINE SMOOTH",
"110 0 OFFCURVE",
"113 1 OFFCURVE",
"120 15 CURVE",
"120 15 OFFCURVE",
"161 110 OFFCURVE",
"208 168 CURVE",
"220 168 OFFCURVE",
"199 168 OFFCURVE",
"211 168 CURVE",
"230 159 OFFCURVE",
"233 62 OFFCURVE",
"234 19 CURVE",
"233 6 OFFCURVE",
"236 0 OFFCURVE",
"257 0 CURVE SMOOTH",
"359 0 LINE SMOOTH",
"374 0 OFFCURVE",
"377 15 OFFCURVE",
"377 35 CURVE",
"376 47 OFFCURVE",
"387 143 OFFCURVE",
"340 237 CURVE SMOOTH",
"337 244 OFFCURVE",
"336 249 OFFCURVE",
"343 255 CURVE",
"423 340 OFFCURVE",
"456 421 OFFCURVE",
"471 457 CURVE",
"475 471 OFFCURVE",
"463 472 OFFCURVE",
"459 472 CURVE SMOOTH",
"357 472 LINE SMOOTH",
"336 472 OFFCURVE",
"331 466 OFFCURVE",
"326 453 CURVE",
"309 413 OFFCURVE",
"262 310 OFFCURVE",
"240 306 CURVE",
"239 306 OFFCURVE",
"240 306 OFFCURVE",
"239 306 CURVE",
"224 311 OFFCURVE",
"215 419 OFFCURVE",
"214 457 CURVE",
"213 471 OFFCURVE",
"210 472 OFFCURVE",
"199 472 CURVE SMOOTH",
"59 472 LINE SMOOTH",
"55 472 OFFCURVE",
"54 471 OFFCURVE",
"54 466 CURVE",
"54 466 OFFCURVE",
"59 340 OFFCURVE",
"102 255 CURVE SMOOTH",
"106 248 OFFCURVE",
"107 245 OFFCURVE",
"102 238 CURVE SMOOTH",
"33 147 OFFCURVE",
"-9 77 OFFCURVE",
"-24 40 CURVE",
"-27 35 OFFCURVE",
"-45 0 OFFCURVE",
"-24 0 CURVE SMOOTH"
);
}
);
};
layerId = "D1BC8BBB-1669-4C46-BC21-42BF6808B2B9";
paths = (
{
closed = 1;
nodes = (
"97 0 LINE SMOOTH",
"110 0 OFFCURVE",
"113 1 OFFCURVE",
"120 15 CURVE",
"120 15 OFFCURVE",
"161 110 OFFCURVE",
"208 168 CURVE",
"220 168 OFFCURVE",
"199 168 OFFCURVE",
"211 168 CURVE",
"230 159 OFFCURVE",
"233 62 OFFCURVE",
"234 19 CURVE",
"233 6 OFFCURVE",
"236 0 OFFCURVE",
"257 0 CURVE SMOOTH",
"359 0 LINE SMOOTH",
"374 0 OFFCURVE",
"377 15 OFFCURVE",
"377 35 CURVE",
"376 47 OFFCURVE",
"387 143 OFFCURVE",
"340 237 CURVE SMOOTH",
"337 244 OFFCURVE",
"336 249 OFFCURVE",
"343 255 CURVE",
"423 340 OFFCURVE",
"456 421 OFFCURVE",
"471 457 CURVE",
"475 471 OFFCURVE",
"463 472 OFFCURVE",
"459 472 CURVE SMOOTH",
"357 472 LINE SMOOTH",
"336 472 OFFCURVE",
"331 466 OFFCURVE",
"326 453 CURVE",
"309 413 OFFCURVE",
"262 310 OFFCURVE",
"240 306 CURVE",
"239 306 OFFCURVE",
"240 306 OFFCURVE",
"239 306 CURVE",
"224 311 OFFCURVE",
"215 419 OFFCURVE",
"214 457 CURVE",
"213 471 OFFCURVE",
"210 472 OFFCURVE",
"199 472 CURVE SMOOTH",
"59 472 LINE SMOOTH",
"55 472 OFFCURVE",
"54 471 OFFCURVE",
"54 466 CURVE",
"54 466 OFFCURVE",
"59 340 OFFCURVE",
"102 255 CURVE SMOOTH",
"106 248 OFFCURVE",
"107 245 OFFCURVE",
"102 238 CURVE SMOOTH",
"33 147 OFFCURVE",
"-9 77 OFFCURVE",
"-24 40 CURVE",
"-27 35 OFFCURVE",
"-45 0 OFFCURVE",
"-24 0 CURVE SMOOTH"
);
}
);
width = 429;
}
);
leftKerningGroup = x;
note = x;
rightKerningGroup = x;
unicode = 0078;
},
{
glyphname = y;
lastChange = "2021-06-09 21:23:28 +0000";
layers = (
{
anchors = (
{
name = bottom;
position = "{221, 0}";
},
{
name = top;
position = "{248, 472}";
}
);
background = {
paths = (
{
closed = 1;
nodes = (
"-42 -127 OFFCURVE",
"102 145 OFFCURVE",
"153 239 CURVE SMOOTH",
"204 332 OFFCURVE",
"232 399 OFFCURVE",
"255 465 CURVE SMOOTH",
"257 470 OFFCURVE",
"255 472 OFFCURVE",
"251 472 CURVE SMOOTH",
"227 472 LINE SMOOTH",
"221 472 OFFCURVE",
"219 470 OFFCURVE",
"217 465 CURVE SMOOTH",
"176 336 OFFCURVE",
"89 184 OFFCURVE",
"25 88 CURVE SMOOTH",
"15 73 OFFCURVE",
"0 78 OFFCURVE",
"-6 94 CURVE SMOOTH",
"-33 163 OFFCURVE",
"-61 358 OFFCURVE",
"-48 465 CURVE SMOOTH",
"-47 471 OFFCURVE",
"-52 472 OFFCURVE",
"-55 472 CURVE SMOOTH",
"-75 472 LINE SMOOTH",
"-79 472 OFFCURVE",
"-82 471 OFFCURVE",
"-82 465 CURVE SMOOTH",
"-95 303 OFFCURVE",
"-63 140 OFFCURVE",
"-45 93 CURVE SMOOTH",
"-31 57 OFFCURVE",
"-21 47 OFFCURVE",
"-21 33 CURVE SMOOTH",
"-21 16 OFFCURVE",
"-63 -25 OFFCURVE",
"-100 -53 CURVE SMOOTH",
"-135 -80 OFFCURVE",
"-182 -98 OFFCURVE",
"-220 -98 CURVE SMOOTH",
"-225 -98 OFFCURVE",
"-230 -98 OFFCURVE",
"-234 -97 CURVE SMOOTH",
"-240 -96 OFFCURVE",
"-243 -97 OFFCURVE",
"-245 -101 CURVE SMOOTH",
"-254 -117 LINE SMOOTH",
"-257 -122 OFFCURVE",
"-255 -124 OFFCURVE",
"-251 -125 CURVE SMOOTH",
"-239 -127 OFFCURVE",
"-227 -127 OFFCURVE",
"-213 -127 CURVE SMOOTH"
);
}
);
};
layerId = "707362F1-A677-446A-8636-E10BE3A7FAFF";
paths = (
{
closed = 1;
nodes = (
"117 -127 OFFCURVE",
"261 145 OFFCURVE",
"312 239 CURVE SMOOTH",
"363 332 OFFCURVE",
"391 399 OFFCURVE",
"414 465 CURVE SMOOTH",
"416 470 OFFCURVE",
"414 472 OFFCURVE",
"410 472 CURVE SMOOTH",
"386 472 LINE SMOOTH",
"380 472 OFFCURVE",
"378 470 OFFCURVE",
"376 465 CURVE SMOOTH",
"335 336 OFFCURVE",
"248 184 OFFCURVE",
"184 88 CURVE SMOOTH",
"174 73 OFFCURVE",
"159 78 OFFCURVE",
"153 94 CURVE SMOOTH",
"126 163 OFFCURVE",
"98 358 OFFCURVE",
"111 465 CURVE SMOOTH",
"112 471 OFFCURVE",
"107 472 OFFCURVE",
"104 472 CURVE SMOOTH",
"84 472 LINE SMOOTH",
"80 472 OFFCURVE",
"77 471 OFFCURVE",
"77 465 CURVE SMOOTH",
"64 303 OFFCURVE",
"96 140 OFFCURVE",
"114 93 CURVE SMOOTH",
"128 57 OFFCURVE",
"138 47 OFFCURVE",
"138 33 CURVE SMOOTH",
"138 16 OFFCURVE",
"96 -25 OFFCURVE",
"59 -53 CURVE SMOOTH",
"24 -80 OFFCURVE",
"-23 -98 OFFCURVE",
"-61 -98 CURVE SMOOTH",
"-66 -98 OFFCURVE",
"-71 -98 OFFCURVE",
"-75 -97 CURVE SMOOTH",
"-81 -96 OFFCURVE",
"-84 -97 OFFCURVE",
"-86 -101 CURVE SMOOTH",
"-95 -117 LINE SMOOTH",
"-98 -122 OFFCURVE",
"-96 -124 OFFCURVE",
"-92 -125 CURVE SMOOTH",
"-80 -127 OFFCURVE",
"-68 -127 OFFCURVE",
"-54 -127 CURVE SMOOTH"
);
}
);
width = 396;
},
{
anchors = (
{
name = bottom;
position = "{293, 0}";
},
{
name = top;
position = "{268, 472}";
}
);
background = {
paths = (
{
closed = 1;
nodes = (
"171 -126 OFFCURVE",
"297 109 OFFCURVE",
"351 206 CURVE SMOOTH",
"405 304 OFFCURVE",
"436 365 OFFCURVE",
"469 448 CURVE SMOOTH",
"476 465 OFFCURVE",
"472 472 OFFCURVE",
"454 472 CURVE SMOOTH",
"356 472 LINE SMOOTH",
"340 472 OFFCURVE",
"336 467 OFFCURVE",
"330 452 CURVE SMOOTH",
"297 373 OFFCURVE",
"263 293 OFFCURVE",
"228 221 CURVE SMOOTH",
"219 203 OFFCURVE",
"212 207 OFFCURVE",
"212 222 CURVE SMOOTH",
"210 269 OFFCURVE",
"210 391 OFFCURVE",
"214 442 CURVE SMOOTH",
"215 465 OFFCURVE",
"212 472 OFFCURVE",
"196 472 CURVE SMOOTH",
"81 472 LINE SMOOTH",
"70 472 OFFCURVE",
"63 465 OFFCURVE",
"63 450 CURVE SMOOTH",
"59 340 OFFCURVE",
"69 219 OFFCURVE",
"88 142 CURVE SMOOTH",
"96 106 OFFCURVE",
"99 95 OFFCURVE",
"97 71 CURVE SMOOTH",
"95 46 OFFCURVE",
"82 24 OFFCURVE",
"64 8 CURVE SMOOTH",
"45 -10 OFFCURVE",
"18 -20 OFFCURVE",
"-6 -20 CURVE SMOOTH",
"-22 -20 OFFCURVE",
"-31 -18 OFFCURVE",
"-40 -15 CURVE SMOOTH",
"-48 -12 OFFCURVE",
"-52 -15 OFFCURVE",
"-59 -25 CURVE SMOOTH",
"-98 -78 LINE SMOOTH",
"-109 -93 OFFCURVE",
"-107 -102 OFFCURVE",
"-93 -111 CURVE SMOOTH",
"-77 -121 OFFCURVE",
"-51 -126 OFFCURVE",
"-11 -126 CURVE SMOOTH"
);
}
);
};
layerId = "D1BC8BBB-1669-4C46-BC21-42BF6808B2B9";
paths = (
{
closed = 1;
nodes = (
"171 -126 OFFCURVE",
"297 109 OFFCURVE",
"351 206 CURVE SMOOTH",
"405 304 OFFCURVE",
"436 365 OFFCURVE",
"469 448 CURVE SMOOTH",
"476 465 OFFCURVE",
"472 472 OFFCURVE",
"454 472 CURVE SMOOTH",
"356 472 LINE SMOOTH",
"340 472 OFFCURVE",
"336 467 OFFCURVE",
"330 452 CURVE SMOOTH",
"297 373 OFFCURVE",
"263 293 OFFCURVE",
"228 221 CURVE SMOOTH",
"219 203 OFFCURVE",
"212 207 OFFCURVE",
"212 222 CURVE SMOOTH",
"210 269 OFFCURVE",
"210 391 OFFCURVE",
"214 442 CURVE SMOOTH",
"215 465 OFFCURVE",
"212 472 OFFCURVE",
"196 472 CURVE SMOOTH",
"81 472 LINE SMOOTH",
"70 472 OFFCURVE",
"63 465 OFFCURVE",
"63 450 CURVE SMOOTH",
"59 340 OFFCURVE",
"69 219 OFFCURVE",
"88 142 CURVE SMOOTH",
"96 106 OFFCURVE",
"99 95 OFFCURVE",
"97 71 CURVE SMOOTH",
"95 46 OFFCURVE",
"82 24 OFFCURVE",
"64 8 CURVE SMOOTH",
"45 -10 OFFCURVE",
"18 -20 OFFCURVE",
"-6 -20 CURVE SMOOTH",
"-22 -20 OFFCURVE",
"-31 -18 OFFCURVE",
"-40 -15 CURVE SMOOTH",
"-48 -12 OFFCURVE",
"-52 -15 OFFCURVE",
"-59 -25 CURVE SMOOTH",
"-98 -78 LINE SMOOTH",
"-109 -93 OFFCURVE",
"-107 -102 OFFCURVE",
"-93 -111 CURVE SMOOTH",
"-77 -121 OFFCURVE",
"-51 -126 OFFCURVE",
"-11 -126 CURVE SMOOTH"
);
}
);
width = 435;
}
);
leftKerningGroup = y;
note = y;
rightKerningGroup = y;
unicode = 0079;
},
{
glyphname = z;
lastChange = "2021-06-09 21:23:28 +0000";
layers = (
{
anchors = (
{
name = bottom;
position = "{121, 0}";
},
{
name = center;
position = "{171, 236}";
},
{
name = top;
position = "{232, 472}";
}
);
background = {
paths = (
{
closed = 1;
nodes = (
"-98 2 OFFCURVE",
"-95 0 OFFCURVE",
"-92 0 CURVE SMOOTH",
"183 0 LINE SMOOTH",
"185 0 OFFCURVE",
"187 1 OFFCURVE",
"188 4 CURVE SMOOTH",
"193 26 LINE SMOOTH",
"193 28 OFFCURVE",
"191 29 OFFCURVE",
"189 29 CURVE SMOOTH",
"-46 29 LINE SMOOTH",
"-56 29 OFFCURVE",
"-52 39 OFFCURVE",
"-50 44 CURVE SMOOTH",
"-30 86 OFFCURVE",
"19 150 OFFCURVE",
"75 225 CURVE SMOOTH",
"126 291 OFFCURVE",
"205 379 OFFCURVE",
"268 430 CURVE SMOOTH",
"274 434 OFFCURVE",
"284 445 OFFCURVE",
"285 451 CURVE SMOOTH",
"288 466 LINE SMOOTH",
"289 471 OFFCURVE",
"289 472 OFFCURVE",
"284 472 CURVE SMOOTH",
"27 472 LINE SMOOTH",
"25 472 OFFCURVE",
"23 471 OFFCURVE",
"22 468 CURVE SMOOTH",
"18 446 LINE SMOOTH",
"17 444 OFFCURVE",
"19 442 OFFCURVE",
"21 442 CURVE SMOOTH",
"223 442 LINE SMOOTH",
"231 442 OFFCURVE",
"230 439 OFFCURVE",
"222 432 CURVE SMOOTH",
"182 396 OFFCURVE",
"130 339 OFFCURVE",
"76 274 CURVE SMOOTH",
"1 182 OFFCURVE",
"-66 94 OFFCURVE",
"-97 6 CURVE"
);
}
);
};
layerId = "707362F1-A677-446A-8636-E10BE3A7FAFF";
paths = (
{
closed = 1;
nodes = (
"-25 2 OFFCURVE",
"-22 0 OFFCURVE",
"-19 0 CURVE SMOOTH",
"256 0 LINE SMOOTH",
"258 0 OFFCURVE",
"260 1 OFFCURVE",
"261 4 CURVE SMOOTH",
"266 26 LINE SMOOTH",
"266 28 OFFCURVE",
"264 29 OFFCURVE",
"262 29 CURVE SMOOTH",
"27 29 LINE SMOOTH",
"17 29 OFFCURVE",
"21 39 OFFCURVE",
"23 44 CURVE SMOOTH",
"43 86 OFFCURVE",
"92 150 OFFCURVE",
"148 225 CURVE SMOOTH",
"199 291 OFFCURVE",
"278 379 OFFCURVE",
"341 430 CURVE SMOOTH",
"347 434 OFFCURVE",
"357 445 OFFCURVE",
"358 451 CURVE SMOOTH",
"361 466 LINE SMOOTH",
"362 471 OFFCURVE",
"362 472 OFFCURVE",
"357 472 CURVE SMOOTH",
"100 472 LINE SMOOTH",
"98 472 OFFCURVE",
"96 471 OFFCURVE",
"95 468 CURVE SMOOTH",
"91 446 LINE SMOOTH",
"91 444 OFFCURVE",
"92 442 OFFCURVE",
"94 442 CURVE SMOOTH",
"296 442 LINE SMOOTH",
"304 442 OFFCURVE",
"303 439 OFFCURVE",
"295 432 CURVE SMOOTH",
"255 396 OFFCURVE",
"203 339 OFFCURVE",
"149 274 CURVE SMOOTH",
"74 182 OFFCURVE",
"7 94 OFFCURVE",
"-24 6 CURVE"
);
}
);
width = 342;
},
{
anchors = (
{
name = bottom;
position = "{147, 0}";
},
{
name = center;
position = "{197, 236}";
},
{
name = top;
position = "{247, 472}";
}
);
background = {
paths = (
{
closed = 1;
nodes = (
"-27 2 OFFCURVE",
"-22 0 OFFCURVE",
"-6 0 CURVE SMOOTH",
"296 0 LINE SMOOTH",
"313 0 OFFCURVE",
"318 0 OFFCURVE",
"321 14 CURVE SMOOTH",
"338 93 LINE SMOOTH",
"341 109 OFFCURVE",
"342 112 OFFCURVE",
"329 112 CURVE SMOOTH",
"167 112 LINE SMOOTH",
"153 112 OFFCURVE",
"155 120 OFFCURVE",
"158 125 CURVE SMOOTH",
"182 162 OFFCURVE",
"218 205 OFFCURVE",
"254 244 CURVE SMOOTH",
"297 290 OFFCURVE",
"341 331 OFFCURVE",
"371 348 CURVE SMOOTH",
"393 361 OFFCURVE",
"397 373 OFFCURVE",
"399 382 CURVE SMOOTH",
"414 452 LINE SMOOTH",
"417 467 OFFCURVE",
"419 472 OFFCURVE",
"402 472 CURVE SMOOTH",
"115 472 LINE SMOOTH",
"99 472 OFFCURVE",
"98 473 OFFCURVE",
"94 455 CURVE SMOOTH",
"77 375 LINE SMOOTH",
"74 360 OFFCURVE",
"77 360 OFFCURVE",
"89 360 CURVE SMOOTH",
"208 360 LINE",
"218 356 OFFCURVE",
"213 352 OFFCURVE",
"209 348 CURVE SMOOTH",
"172 312 OFFCURVE",
"135 273 OFFCURVE",
"102 233 CURVE SMOOTH",
"50 172 OFFCURVE",
"6 107 OFFCURVE",
"-15 41 CURVE SMOOTH"
);
}
);
};
layerId = "D1BC8BBB-1669-4C46-BC21-42BF6808B2B9";
paths = (
{
closed = 1;
nodes = (
"-27 2 OFFCURVE",
"-22 0 OFFCURVE",
"-6 0 CURVE SMOOTH",
"296 0 LINE SMOOTH",
"313 0 OFFCURVE",
"318 0 OFFCURVE",
"321 14 CURVE SMOOTH",
"338 93 LINE SMOOTH",
"341 109 OFFCURVE",
"342 112 OFFCURVE",
"329 112 CURVE SMOOTH",
"167 112 LINE SMOOTH",
"153 112 OFFCURVE",
"155 120 OFFCURVE",
"158 125 CURVE SMOOTH",
"182 162 OFFCURVE",
"218 205 OFFCURVE",
"254 244 CURVE SMOOTH",
"297 290 OFFCURVE",
"341 331 OFFCURVE",
"371 348 CURVE SMOOTH",
"393 361 OFFCURVE",
"397 373 OFFCURVE",
"399 382 CURVE SMOOTH",
"414 452 LINE SMOOTH",
"417 467 OFFCURVE",
"419 472 OFFCURVE",
"402 472 CURVE SMOOTH",
"115 472 LINE SMOOTH",
"99 472 OFFCURVE",
"98 473 OFFCURVE",
"94 455 CURVE SMOOTH",
"77 375 LINE SMOOTH",
"74 360 OFFCURVE",
"77 360 OFFCURVE",
"89 360 CURVE SMOOTH",
"208 360 LINE",
"218 356 OFFCURVE",
"213 352 OFFCURVE",
"209 348 CURVE SMOOTH",
"172 312 OFFCURVE",
"135 273 OFFCURVE",
"102 233 CURVE SMOOTH",
"50 172 OFFCURVE",
"6 107 OFFCURVE",
"-15 41 CURVE SMOOTH"
);
}
);
width = 393;
}
);
leftKerningGroup = z;
note = z;
rightKerningGroup = z;
unicode = 007A;
},
{
glyphname = A;
lastChange = "2021-06-09 21:23:28 +0000";
layers = (
{
anchors = (
{
name = bottom;
position = "{238, 0}";
},
{
name = ogonek;
position = "{470, 10}";
},
{
name = top;
position = "{381, 672}";
}
);
background = {
paths = (
{
closed = 1;
nodes = (
"39 0 LINE SMOOTH",
"43 0 OFFCURVE",
"43 1 OFFCURVE",
"44 4 CURVE SMOOTH",
"58 44 OFFCURVE",
"81 98 OFFCURVE",
"107 160 CURVE SMOOTH",
"111 168 OFFCURVE",
"114 170 OFFCURVE",
"121 171 CURVE",
"424 171 LINE SMOOTH",
"432 171 OFFCURVE",
"436 168 OFFCURVE",
"435 162 CURVE SMOOTH",
"435 98 OFFCURVE",
"434 44 OFFCURVE",
"431 5 CURVE",
"432 1 OFFCURVE",
"432 0 OFFCURVE",
"435 0 CURVE SMOOTH",
"461 0 LINE SMOOTH",
"465 0 OFFCURVE",
"465 1 OFFCURVE",
"465 6 CURVE SMOOTH",
"477 151 OFFCURVE",
"460 533 OFFCURVE",
"425 668 CURVE SMOOTH",
"424 673 OFFCURVE",
"421 673 OFFCURVE",
"417 673 CURVE SMOOTH",
"343 673 LINE SMOOTH",
"340 673 OFFCURVE",
"337 671 OFFCURVE",
"335 669 CURVE SMOOTH",
"233 524 OFFCURVE",
"69 168 OFFCURVE",
"11 5 CURVE",
"10 1 OFFCURVE",
"10 0 OFFCURVE",
"14 0 CURVE SMOOTH"
);
},
{
closed = 1;
nodes = (
"127 201 OFFCURVE",
"128 208 OFFCURVE",
"130 211 CURVE SMOOTH",
"197 362 OFFCURVE",
"287 540 OFFCURVE",
"350 637 CURVE SMOOTH",
"353 642 OFFCURVE",
"356 643 OFFCURVE",
"362 643 CURVE SMOOTH",
"371 643 OFFCURVE",
"379 643 OFFCURVE",
"388 643 CURVE SMOOTH",
"392 643 OFFCURVE",
"395 642 OFFCURVE",
"397 638 CURVE SMOOTH",
"425 505 OFFCURVE",
"427 361 OFFCURVE",
"434 218 CURVE",
"433 204 OFFCURVE",
"427 201 OFFCURVE",
"423 201 CURVE SMOOTH",
"135 201 LINE SMOOTH"
);
}
);
};
layerId = "707362F1-A677-446A-8636-E10BE3A7FAFF";
paths = (
{
closed = 1;
nodes = (
"39 0 LINE SMOOTH",
"43 0 OFFCURVE",
"43 1 OFFCURVE",
"44 4 CURVE SMOOTH",
"58 44 OFFCURVE",
"81 98 OFFCURVE",
"107 160 CURVE SMOOTH",
"111 168 OFFCURVE",
"114 170 OFFCURVE",
"121 171 CURVE",
"424 171 LINE SMOOTH",
"432 171 OFFCURVE",
"436 168 OFFCURVE",
"435 162 CURVE SMOOTH",
"435 98 OFFCURVE",
"434 44 OFFCURVE",
"431 5 CURVE",
"432 1 OFFCURVE",
"432 0 OFFCURVE",
"435 0 CURVE SMOOTH",
"461 0 LINE SMOOTH",
"465 0 OFFCURVE",
"465 1 OFFCURVE",
"465 6 CURVE SMOOTH",
"477 151 OFFCURVE",
"460 533 OFFCURVE",
"425 668 CURVE SMOOTH",
"424 673 OFFCURVE",
"421 673 OFFCURVE",
"417 673 CURVE SMOOTH",
"343 673 LINE SMOOTH",
"340 673 OFFCURVE",
"337 671 OFFCURVE",
"335 669 CURVE SMOOTH",
"233 524 OFFCURVE",
"69 168 OFFCURVE",
"11 5 CURVE",
"10 1 OFFCURVE",
"10 0 OFFCURVE",
"14 0 CURVE SMOOTH"
);
},
{
closed = 1;
nodes = (
"127 201 OFFCURVE",
"128 208 OFFCURVE",
"130 211 CURVE SMOOTH",
"197 362 OFFCURVE",
"287 540 OFFCURVE",
"350 637 CURVE SMOOTH",
"353 642 OFFCURVE",
"356 643 OFFCURVE",
"362 643 CURVE SMOOTH",
"388 643 LINE SMOOTH",
"392 643 OFFCURVE",
"395 642 OFFCURVE",
"397 638 CURVE SMOOTH",
"425 505 OFFCURVE",
"427 361 OFFCURVE",
"434 218 CURVE",
"433 204 OFFCURVE",
"427 201 OFFCURVE",
"423 201 CURVE SMOOTH",
"135 201 LINE SMOOTH"
);
}
);
width = 575;
},
{
anchors = (
{
name = bottom;
position = "{224, 0}";
},
{
name = ogonek;
position = "{466, 10}";
},
{
name = top;
position = "{361, 673}";
}
);
background = {
paths = (
{
closed = 1;
nodes = (
"95 0 LINE SMOOTH",
"107 0 OFFCURVE",
"110 2 OFFCURVE",
"122 32 CURVE SMOOTH",
"133 61 OFFCURVE",
"154 107 OFFCURVE",
"164 133 CURVE SMOOTH",
"168 143 OFFCURVE",
"168 143 OFFCURVE",
"177 143 CURVE SMOOTH",
"331 143 LINE SMOOTH",
"340 143 OFFCURVE",
"340 143 OFFCURVE",
"340 133 CURVE SMOOTH",
"340 107 OFFCURVE",
"341 61 OFFCURVE",
"340 32 CURVE SMOOTH",
"338 2 OFFCURVE",
"341 0 OFFCURVE",
"353 0 CURVE SMOOTH",
"471 0 LINE SMOOTH",
"485 0 OFFCURVE",
"489 8 OFFCURVE",
"491 40 CURVE SMOOTH",
"502 188 OFFCURVE",
"479 513 OFFCURVE",
"436 651 CURVE SMOOTH",
"432 664 OFFCURVE",
"426 669 OFFCURVE",
"416 673 CURVE",
"317 673 LINE SMOOTH",
"306 673 OFFCURVE",
"298 664 OFFCURVE",
"287 651 CURVE",
"187 513 OFFCURVE",
"26 188 OFFCURVE",
"-25 40 CURVE SMOOTH",
"-37 8 OFFCURVE",
"-37 0 OFFCURVE",
"-24 0 CURVE SMOOTH"
);
},
{
closed = 1;
nodes = (
"225 258 OFFCURVE",
"224 261 OFFCURVE",
"228 270 CURVE SMOOTH",
"257 328 OFFCURVE",
"285 385 OFFCURVE",
"312 438 CURVE SMOOTH",
"314 443 OFFCURVE",
"317 447 OFFCURVE",
"319 452 CURVE",
"319 448 OFFCURVE",
"319 444 OFFCURVE",
"321 440 CURVE SMOOTH",
"320 439 OFFCURVE",
"321 437 OFFCURVE",
"321 436 CURVE SMOOTH",
"326 384 OFFCURVE",
"330 328 OFFCURVE",
"333 270 CURVE SMOOTH",
"334 261 OFFCURVE",
"333 258 OFFCURVE",
"324 258 CURVE SMOOTH",
"234 258 LINE SMOOTH"
);
}
);
};
layerId = "D1BC8BBB-1669-4C46-BC21-42BF6808B2B9";
paths = (
{
closed = 1;
nodes = (
"95 0 LINE SMOOTH",
"107 0 OFFCURVE",
"110 2 OFFCURVE",
"122 32 CURVE SMOOTH",
"133 61 OFFCURVE",
"154 107 OFFCURVE",
"164 133 CURVE SMOOTH",
"168 143 OFFCURVE",
"168 143 OFFCURVE",
"177 143 CURVE SMOOTH",
"331 143 LINE SMOOTH",
"340 143 OFFCURVE",
"340 143 OFFCURVE",
"340 133 CURVE SMOOTH",
"340 107 OFFCURVE",
"341 61 OFFCURVE",
"340 32 CURVE SMOOTH",
"338 2 OFFCURVE",
"341 0 OFFCURVE",
"353 0 CURVE SMOOTH",
"471 0 LINE SMOOTH",
"485 0 OFFCURVE",
"489 8 OFFCURVE",
"491 40 CURVE SMOOTH",
"502 188 OFFCURVE",
"479 513 OFFCURVE",
"436 651 CURVE SMOOTH",
"432 664 OFFCURVE",
"426 669 OFFCURVE",
"416 673 CURVE",
"317 673 LINE SMOOTH",
"306 673 OFFCURVE",
"298 664 OFFCURVE",
"287 651 CURVE",
"187 513 OFFCURVE",
"26 188 OFFCURVE",
"-25 40 CURVE SMOOTH",
"-37 8 OFFCURVE",
"-37 0 OFFCURVE",
"-24 0 CURVE SMOOTH"
);
},
{
closed = 1;
nodes = (
"225 258 OFFCURVE",
"224 261 OFFCURVE",
"228 270 CURVE SMOOTH",
"253 325 OFFCURVE",
"286 390 OFFCURVE",
"307 435 CURVE SMOOTH",
"311 441 OFFCURVE",
"312 444 OFFCURVE",
"315 444 CURVE SMOOTH",
"319 444 LINE SMOOTH",
"322 444 OFFCURVE",
"324 440 OFFCURVE",
"323 435 CURVE SMOOTH",
"327 389 OFFCURVE",
"332 323 OFFCURVE",
"333 270 CURVE SMOOTH",
"333 261 OFFCURVE",
"333 258 OFFCURVE",
"324 258 CURVE SMOOTH",
"234 258 LINE SMOOTH"
);
}
);
width = 549;
}
);
leftKerningGroup = A;
note = A;
rightKerningGroup = A;
unicode = 0041;
},
{
glyphname = B;
lastChange = "2021-06-09 21:23:28 +0000";
layers = (
{
background = {
paths = (
{
closed = 1;
nodes = (
"468 263 OFFCURVE",
"438 323 OFFCURVE",
"385 345 CURVE SMOOTH",
"376 348 OFFCURVE",
"381 356 OFFCURVE",
"387 359 CURVE SMOOTH",
"434 380 OFFCURVE",
"477 431 OFFCURVE",
"495 517 CURVE SMOOTH",
"526 662 OFFCURVE",
"436 673 OFFCURVE",
"314 673 CURVE SMOOTH",
"188 673 LINE SMOOTH",
"185 673 OFFCURVE",
"184 671 OFFCURVE",
"183 669 CURVE SMOOTH",
"42 4 LINE SMOOTH",
"41 1 OFFCURVE",
"42 0 OFFCURVE",
"45 0 CURVE SMOOTH",
"232 0 LINE SMOOTH",
"332 0 OFFCURVE",
"422 48 OFFCURVE",
"450 179 CURVE SMOOTH"
);
},
{
closed = 1;
nodes = (
"390 53 OFFCURVE",
"300 29 OFFCURVE",
"243 29 CURVE",
"85 29 LINE SMOOTH",
"81 29 OFFCURVE",
"81 31 OFFCURVE",
"81 34 CURVE SMOOTH",
"144 327 LINE SMOOTH",
"144 330 OFFCURVE",
"146 332 OFFCURVE",
"151 332 CURVE SMOOTH",
"279 332 LINE SMOOTH",
"383 332 OFFCURVE",
"443 301 OFFCURVE",
"418 182 CURVE SMOOTH"
);
},
{
closed = 1;
nodes = (
"444 433 OFFCURVE",
"386 361 OFFCURVE",
"293 361 CURVE SMOOTH",
"156 361 LINE SMOOTH",
"152 361 OFFCURVE",
"151 362 OFFCURVE",
"152 366 CURVE SMOOTH",
"210 638 LINE SMOOTH",
"210 641 OFFCURVE",
"212 643 OFFCURVE",
"216 643 CURVE SMOOTH",
"319 643 LINE SMOOTH",
"416 643 OFFCURVE",
"487 634 OFFCURVE",
"462 517 CURVE SMOOTH"
);
}
);
};
layerId = "707362F1-A677-446A-8636-E10BE3A7FAFF";
paths = (
{
closed = 1;
nodes = (
"467 263 OFFCURVE",
"437 323 OFFCURVE",
"384 345 CURVE SMOOTH",
"375 348 OFFCURVE",
"380 356 OFFCURVE",
"386 359 CURVE SMOOTH",
"433 380 OFFCURVE",
"476 431 OFFCURVE",
"494 517 CURVE SMOOTH",
"525 662 OFFCURVE",
"435 673 OFFCURVE",
"313 673 CURVE SMOOTH",
"187 673 LINE SMOOTH",
"184 673 OFFCURVE",
"183 671 OFFCURVE",
"182 669 CURVE SMOOTH",
"41 4 LINE SMOOTH",
"40 1 OFFCURVE",
"41 0 OFFCURVE",
"44 0 CURVE SMOOTH",
"231 0 LINE SMOOTH",
"331 0 OFFCURVE",
"421 48 OFFCURVE",
"449 179 CURVE SMOOTH"
);
},
{
closed = 1;
nodes = (
"389 53 OFFCURVE",
"299 29 OFFCURVE",
"242 29 CURVE",
"84 29 LINE SMOOTH",
"80 29 OFFCURVE",
"80 31 OFFCURVE",
"80 34 CURVE SMOOTH",
"143 327 LINE SMOOTH",
"143 330 OFFCURVE",
"145 332 OFFCURVE",
"150 332 CURVE SMOOTH",
"278 332 LINE SMOOTH",
"382 332 OFFCURVE",
"442 301 OFFCURVE",
"417 182 CURVE SMOOTH"
);
},
{
closed = 1;
nodes = (
"443 433 OFFCURVE",
"385 361 OFFCURVE",
"292 361 CURVE SMOOTH",
"155 361 LINE SMOOTH",
"151 361 OFFCURVE",
"150 362 OFFCURVE",
"151 366 CURVE SMOOTH",
"209 638 LINE SMOOTH",
"209 641 OFFCURVE",
"211 643 OFFCURVE",
"215 643 CURVE SMOOTH",
"318 643 LINE SMOOTH",
"415 643 OFFCURVE",
"486 634 OFFCURVE",
"461 517 CURVE SMOOTH"
);
}
);
width = 511;
},
{
background = {
paths = (
{
closed = 1;
nodes = (
"509 258 OFFCURVE",
"486 320 OFFCURVE",
"447 342 CURVE",
"443 345 OFFCURVE",
"441 352 OFFCURVE",
"449 355 CURVE",
"507 381 OFFCURVE",
"544 460 OFFCURVE",
"552 499 CURVE SMOOTH",
"587 662 OFFCURVE",
"478 673 OFFCURVE",
"345 673 CURVE SMOOTH",
"168 673 LINE SMOOTH",
"160 673 OFFCURVE",
"152 667 OFFCURVE",
"150 658 CURVE SMOOTH",
"13 14 LINE SMOOTH",
"11 6 OFFCURVE",
"17 0 OFFCURVE",
"25 0 CURVE SMOOTH",
"242 0 LINE SMOOTH",
"358 0 OFFCURVE",
"465 53 OFFCURVE",
"495 195 CURVE SMOOTH"
);
},
{
closed = 1;
nodes = (
"315 109 OFFCURVE",
"265 104 OFFCURVE",
"232 104 CURVE SMOOTH",
"192 104 LINE SMOOTH",
"184 104 OFFCURVE",
"184 105 OFFCURVE",
"186 111 CURVE SMOOTH",
"222 281 LINE SMOOTH",
"223 287 OFFCURVE",
"224 287 OFFCURVE",
"230 287 CURVE SMOOTH",
"258 287 LINE SMOOTH",
"319 287 OFFCURVE",
"351 278 OFFCURVE",
"334 196 CURVE SMOOTH"
);
},
{
closed = 1;
nodes = (
"376 422 OFFCURVE",
"347 404 OFFCURVE",
"294 404 CURVE SMOOTH",
"256 404 LINE SMOOTH",
"249 404 OFFCURVE",
"248 405 OFFCURVE",
"249 411 CURVE SMOOTH",
"281 560 LINE SMOOTH",
"283 568 OFFCURVE",
"284 569 OFFCURVE",
"290 569 CURVE SMOOTH",
"292 569 LINE SMOOTH",
"367 569 OFFCURVE",
"405 560 OFFCURVE",
"391 492 CURVE SMOOTH"
);
}
);
};
layerId = "D1BC8BBB-1669-4C46-BC21-42BF6808B2B9";
paths = (
{
closed = 1;
nodes = (
"509 258 OFFCURVE",
"486 320 OFFCURVE",
"447 342 CURVE",
"443 345 OFFCURVE",
"441 352 OFFCURVE",
"449 355 CURVE",
"507 381 OFFCURVE",
"544 460 OFFCURVE",
"552 499 CURVE SMOOTH",
"587 662 OFFCURVE",
"478 673 OFFCURVE",
"345 673 CURVE SMOOTH",
"168 673 LINE SMOOTH",
"160 673 OFFCURVE",
"152 667 OFFCURVE",
"150 658 CURVE SMOOTH",
"13 14 LINE SMOOTH",
"11 6 OFFCURVE",
"17 0 OFFCURVE",
"25 0 CURVE SMOOTH",
"242 0 LINE SMOOTH",
"358 0 OFFCURVE",
"465 53 OFFCURVE",
"495 195 CURVE SMOOTH"
);
},
{
closed = 1;
nodes = (
"315 109 OFFCURVE",
"265 104 OFFCURVE",
"232 104 CURVE SMOOTH",
"192 104 LINE SMOOTH",
"184 104 OFFCURVE",
"184 105 OFFCURVE",
"186 111 CURVE SMOOTH",
"222 281 LINE SMOOTH",
"223 287 OFFCURVE",
"224 287 OFFCURVE",
"230 287 CURVE SMOOTH",
"258 287 LINE SMOOTH",
"319 287 OFFCURVE",
"351 278 OFFCURVE",
"334 196 CURVE SMOOTH"
);
},
{
closed = 1;
nodes = (
"376 422 OFFCURVE",
"347 404 OFFCURVE",
"294 404 CURVE SMOOTH",
"256 404 LINE SMOOTH",
"249 404 OFFCURVE",
"248 405 OFFCURVE",
"249 411 CURVE SMOOTH",
"281 560 LINE SMOOTH",
"283 568 OFFCURVE",
"284 569 OFFCURVE",
"290 569 CURVE SMOOTH",
"292 569 LINE SMOOTH",
"367 569 OFFCURVE",
"405 560 OFFCURVE",
"391 492 CURVE SMOOTH"
);
}
);
width = 544;
}
);
leftKerningGroup = H;
leftMetricsKey = D;
note = B;
rightKerningGroup = B;
unicode = 0042;
},
{
glyphname = C;
lastChange = "2021-06-09 21:23:28 +0000";
layers = (
{
anchors = (
{
name = bottom;
position = "{248, 0}";
},
{
name = top;
position = "{386, 672}";
}
);
background = {
paths = (
{
closed = 1;
nodes = (
"413 34 LINE SMOOTH",
"414 39 OFFCURVE",
"414 42 OFFCURVE",
"409 40 CURVE SMOOTH",
"394 32 OFFCURVE",
"358 20 OFFCURVE",
"311 20 CURVE SMOOTH",
"130 20 OFFCURVE",
"147 224 OFFCURVE",
"173 349 CURVE SMOOTH",
"205 498 OFFCURVE",
"282 650 OFFCURVE",
"445 650 CURVE SMOOTH",
"492 650 OFFCURVE",
"523 638 OFFCURVE",
"535 630 CURVE SMOOTH",
"538 628 OFFCURVE",
"540 631 OFFCURVE",
"541 636 CURVE SMOOTH",
"546 658 LINE SMOOTH",
"547 662 OFFCURVE",
"545 666 OFFCURVE",
"540 668 CURVE SMOOTH",
"516 676 OFFCURVE",
"465 680 OFFCURVE",
"446 680 CURVE SMOOTH",
"297 680 OFFCURVE",
"185 566 OFFCURVE",
"136 335 CURVE SMOOTH",
"87 106 OFFCURVE",
"157 -9 OFFCURVE",
"300 -9 CURVE SMOOTH",
"319 -9 OFFCURVE",
"371 -6 OFFCURVE",
"398 2 CURVE",
"405 5 OFFCURVE",
"408 8 OFFCURVE",
"408 12 CURVE SMOOTH"
);
}
);
};
layerId = "707362F1-A677-446A-8636-E10BE3A7FAFF";
paths = (
{
closed = 1;
nodes = (
"356 34 LINE SMOOTH",
"357 39 OFFCURVE",
"357 42 OFFCURVE",
"352 40 CURVE SMOOTH",
"337 32 OFFCURVE",
"301 20 OFFCURVE",
"254 20 CURVE SMOOTH",
"73 20 OFFCURVE",
"90 224 OFFCURVE",
"116 349 CURVE SMOOTH",
"148 498 OFFCURVE",
"225 650 OFFCURVE",
"388 650 CURVE SMOOTH",
"435 650 OFFCURVE",
"466 638 OFFCURVE",
"478 630 CURVE SMOOTH",
"481 628 OFFCURVE",
"483 631 OFFCURVE",
"484 636 CURVE SMOOTH",
"489 658 LINE SMOOTH",
"490 662 OFFCURVE",
"488 666 OFFCURVE",
"483 668 CURVE SMOOTH",
"459 676 OFFCURVE",
"408 680 OFFCURVE",
"389 680 CURVE SMOOTH",
"240 680 OFFCURVE",
"128 566 OFFCURVE",
"79 335 CURVE SMOOTH",
"30 106 OFFCURVE",
"100 -9 OFFCURVE",
"243 -9 CURVE SMOOTH",
"262 -9 OFFCURVE",
"314 -6 OFFCURVE",
"341 2 CURVE",
"348 5 OFFCURVE",
"350 8 OFFCURVE",
"351 12 CURVE SMOOTH"
);
}
);
width = 437;
},
{
anchors = (
{
name = bottom;
position = "{265, 0}";
},
{
name = top;
position = "{411, 673}";
}
);
background = {
paths = (
{
closed = 1;
nodes = (
"422 124 LINE SMOOTH",
"427 146 OFFCURVE",
"419 147 OFFCURVE",
"385 129 CURVE SMOOTH",
"364 117 OFFCURVE",
"326 107 OFFCURVE",
"294 107 CURVE SMOOTH",
"184 107 OFFCURVE",
"194 242 OFFCURVE",
"217 348 CURVE SMOOTH",
"243 472 OFFCURVE",
"291 563 OFFCURVE",
"391 563 CURVE SMOOTH",
"417 563 OFFCURVE",
"451 555 OFFCURVE",
"476 536 CURVE SMOOTH",
"495 520 OFFCURVE",
"507 523 OFFCURVE",
"511 543 CURVE SMOOTH",
"532 642 LINE SMOOTH",
"535 656 OFFCURVE",
"524 661 OFFCURVE",
"505 667 CURVE SMOOTH",
"478 676 OFFCURVE",
"423 680 OFFCURVE",
"404 680 CURVE SMOOTH",
"233 680 OFFCURVE",
"107 562 OFFCURVE",
"59 335 CURVE SMOOTH",
"11 111 OFFCURVE",
"94 -8 OFFCURVE",
"258 -8 CURVE SMOOTH",
"277 -8 OFFCURVE",
"333 -6 OFFCURVE",
"365 4 CURVE SMOOTH",
"386 9 OFFCURVE",
"400 20 OFFCURVE",
"404 39 CURVE SMOOTH"
);
}
);
};
layerId = "D1BC8BBB-1669-4C46-BC21-42BF6808B2B9";
paths = (
{
closed = 1;
nodes = (
"422 124 LINE SMOOTH",
"427 146 OFFCURVE",
"419 147 OFFCURVE",
"385 129 CURVE SMOOTH",
"364 117 OFFCURVE",
"326 107 OFFCURVE",
"294 107 CURVE SMOOTH",
"184 107 OFFCURVE",
"194 242 OFFCURVE",
"217 348 CURVE SMOOTH",
"243 472 OFFCURVE",
"291 563 OFFCURVE",
"391 563 CURVE SMOOTH",
"417 563 OFFCURVE",
"451 555 OFFCURVE",
"476 536 CURVE SMOOTH",
"495 520 OFFCURVE",
"507 523 OFFCURVE",
"511 543 CURVE SMOOTH",
"532 642 LINE SMOOTH",
"535 656 OFFCURVE",
"524 661 OFFCURVE",
"505 667 CURVE SMOOTH",
"478 676 OFFCURVE",
"423 680 OFFCURVE",
"404 680 CURVE SMOOTH",
"233 680 OFFCURVE",
"107 562 OFFCURVE",
"59 335 CURVE SMOOTH",
"11 111 OFFCURVE",
"94 -8 OFFCURVE",
"258 -8 CURVE SMOOTH",
"277 -8 OFFCURVE",
"333 -6 OFFCURVE",
"365 4 CURVE SMOOTH",
"386 9 OFFCURVE",
"400 20 OFFCURVE",
"404 39 CURVE SMOOTH"
);
}
);
width = 476;
}
);
leftKerningGroup = O;
leftMetricsKey = O;
note = C;
rightKerningGroup = C;
unicode = 0043;
},
{
glyphname = D;
lastChange = "2021-06-09 21:23:28 +0000";
layers = (
{
anchors = (
{
name = bottom;
position = "{232, 0}";
},
{
name = top;
position = "{375, 672}";
}
);
background = {
paths = (
{
closed = 1;
nodes = (
"604 641 OFFCURVE",
"487 673 OFFCURVE",
"394 673 CURVE SMOOTH",
"188 673 LINE SMOOTH",
"185 673 OFFCURVE",
"184 671 OFFCURVE",
"183 669 CURVE SMOOTH",
"42 4 LINE SMOOTH",
"41 1 OFFCURVE",
"42 0 OFFCURVE",
"45 0 CURVE SMOOTH",
"251 0 LINE SMOOTH",
"327 0 OFFCURVE",
"479 54 OFFCURVE",
"542 347 CURVE SMOOTH"
);
},
{
closed = 1;
nodes = (
"452 81 OFFCURVE",
"320 29 OFFCURVE",
"244 29 CURVE SMOOTH",
"85 29 LINE SMOOTH",
"81 29 OFFCURVE",
"81 31 OFFCURVE",
"81 34 CURVE SMOOTH",
"210 638 LINE SMOOTH",
"210 641 OFFCURVE",
"212 643 OFFCURVE",
"216 643 CURVE SMOOTH",
"393 643 LINE SMOOTH",
"466 643 OFFCURVE",
"566 614 OFFCURVE",
"509 347 CURVE SMOOTH"
);
}
);
};
layerId = "707362F1-A677-446A-8636-E10BE3A7FAFF";
paths = (
{
closed = 1;
nodes = (
"603 641 OFFCURVE",
"486 673 OFFCURVE",
"393 673 CURVE SMOOTH",
"187 673 LINE SMOOTH",
"184 673 OFFCURVE",
"183 671 OFFCURVE",
"182 669 CURVE SMOOTH",
"41 4 LINE SMOOTH",
"40 1 OFFCURVE",
"41 0 OFFCURVE",
"44 0 CURVE SMOOTH",
"250 0 LINE SMOOTH",
"326 0 OFFCURVE",
"478 54 OFFCURVE",
"541 347 CURVE SMOOTH"
);
},
{
closed = 1;
nodes = (
"451 81 OFFCURVE",
"319 29 OFFCURVE",
"243 29 CURVE SMOOTH",
"84 29 LINE SMOOTH",
"80 29 OFFCURVE",
"80 31 OFFCURVE",
"80 34 CURVE SMOOTH",
"209 638 LINE SMOOTH",
"209 641 OFFCURVE",
"211 643 OFFCURVE",
"215 643 CURVE SMOOTH",
"392 643 LINE SMOOTH",
"465 643 OFFCURVE",
"565 614 OFFCURVE",
"508 347 CURVE SMOOTH"
);
}
);
width = 575;
},
{
anchors = (
{
name = bottom;
position = "{202, 0}";
},
{
name = top;
position = "{345, 673}";
}
);
background = {
paths = (
{
closed = 1;
nodes = (
"634 638 OFFCURVE",
"479 673 OFFCURVE",
"354 673 CURVE SMOOTH",
"168 673 LINE SMOOTH",
"160 673 OFFCURVE",
"152 667 OFFCURVE",
"150 658 CURVE SMOOTH",
"13 14 LINE SMOOTH",
"11 6 OFFCURVE",
"17 0 OFFCURVE",
"25 0 CURVE SMOOTH",
"211 0 LINE SMOOTH",
"314 0 OFFCURVE",
"510 57 OFFCURVE",
"572 346 CURVE SMOOTH"
);
},
{
closed = 1;
nodes = (
"376 131 OFFCURVE",
"273 116 OFFCURVE",
"213 116 CURVE SMOOTH",
"196 116 LINE SMOOTH",
"188 116 OFFCURVE",
"187 116 OFFCURVE",
"189 126 CURVE SMOOTH",
"278 548 LINE SMOOTH",
"280 557 OFFCURVE",
"280 557 OFFCURVE",
"292 557 CURVE SMOOTH",
"322 557 LINE SMOOTH",
"379 557 OFFCURVE",
"467 560 OFFCURVE",
"422 346 CURVE SMOOTH"
);
}
);
};
layerId = "D1BC8BBB-1669-4C46-BC21-42BF6808B2B9";
paths = (
{
closed = 1;
nodes = (
"634 638 OFFCURVE",
"479 673 OFFCURVE",
"354 673 CURVE SMOOTH",
"168 673 LINE SMOOTH",
"160 673 OFFCURVE",
"152 667 OFFCURVE",
"150 658 CURVE SMOOTH",
"13 14 LINE SMOOTH",
"11 6 OFFCURVE",
"17 0 OFFCURVE",
"25 0 CURVE SMOOTH",
"211 0 LINE SMOOTH",
"314 0 OFFCURVE",
"510 57 OFFCURVE",
"572 346 CURVE SMOOTH"
);
},
{
closed = 1;
nodes = (
"376 131 OFFCURVE",
"273 116 OFFCURVE",
"213 116 CURVE SMOOTH",
"196 116 LINE SMOOTH",
"188 116 OFFCURVE",
"187 116 OFFCURVE",
"189 126 CURVE SMOOTH",
"278 548 LINE SMOOTH",
"280 557 OFFCURVE",
"280 557 OFFCURVE",
"292 557 CURVE SMOOTH",
"322 557 LINE SMOOTH",
"379 557 OFFCURVE",
"467 560 OFFCURVE",
"422 346 CURVE SMOOTH"
);
}
);
width = 587;
}
);
leftKerningGroup = H;
leftMetricsKey = "=H+5";
note = D;
rightKerningGroup = O;
rightMetricsKey = O;
unicode = 0044;
},
{
glyphname = E;
lastChange = "2021-06-09 21:23:28 +0000";
layers = (
{
anchors = (
{
name = bottom;
position = "{198, 0}";
},
{
name = ogonek;
position = "{216, 10}";
},
{
name = top;
position = "{339, 672}";
},
{
name = topleft;
position = "{113, 672}";
}
);
background = {
paths = (
{
closed = 1;
nodes = (
"348 0 LINE SMOOTH",
"350 0 OFFCURVE",
"351 1 OFFCURVE",
"352 4 CURVE SMOOTH",
"357 26 LINE SMOOTH",
"357 28 OFFCURVE",
"356 29 OFFCURVE",
"354 29 CURVE SMOOTH",
"87 29 LINE SMOOTH",
"80 29 OFFCURVE",
"81 32 OFFCURVE",
"82 38 CURVE SMOOTH",
"141 317 LINE SMOOTH",
"142 322 OFFCURVE",
"144 324 OFFCURVE",
"149 324 CURVE SMOOTH",
"372 324 LINE SMOOTH",
"374 324 OFFCURVE",
"375 326 OFFCURVE",
"376 328 CURVE SMOOTH",
"380 350 LINE SMOOTH",
"381 353 OFFCURVE",
"380 354 OFFCURVE",
"378 354 CURVE SMOOTH",
"156 354 LINE SMOOTH",
"153 354 OFFCURVE",
"150 358 OFFCURVE",
"151 361 CURVE SMOOTH",
"209 636 LINE SMOOTH",
"210 640 OFFCURVE",
"211 643 OFFCURVE",
"217 643 CURVE SMOOTH",
"485 643 LINE SMOOTH",
"487 643 OFFCURVE",
"488 644 OFFCURVE",
"489 647 CURVE SMOOTH",
"493 669 LINE SMOOTH",
"494 671 OFFCURVE",
"493 673 OFFCURVE",
"491 673 CURVE SMOOTH",
"188 673 LINE SMOOTH",
"185 673 OFFCURVE",
"184 671 OFFCURVE",
"183 669 CURVE SMOOTH",
"42 4 LINE SMOOTH",
"41 1 OFFCURVE",
"42 0 OFFCURVE",
"45 0 CURVE SMOOTH"
);
}
);
};
layerId = "707362F1-A677-446A-8636-E10BE3A7FAFF";
paths = (
{
closed = 1;
nodes = (
"347 0 LINE SMOOTH",
"349 0 OFFCURVE",
"350 1 OFFCURVE",
"351 4 CURVE SMOOTH",
"356 26 LINE SMOOTH",
"356 28 OFFCURVE",
"355 29 OFFCURVE",
"353 29 CURVE SMOOTH",
"86 29 LINE SMOOTH",
"79 29 OFFCURVE",
"80 32 OFFCURVE",
"81 38 CURVE SMOOTH",
"140 317 LINE SMOOTH",
"141 322 OFFCURVE",
"143 324 OFFCURVE",
"148 324 CURVE SMOOTH",
"371 324 LINE SMOOTH",
"373 324 OFFCURVE",
"375 326 OFFCURVE",
"375 328 CURVE SMOOTH",
"379 350 LINE SMOOTH",
"380 353 OFFCURVE",
"379 354 OFFCURVE",
"377 354 CURVE SMOOTH",
"155 354 LINE SMOOTH",
"152 354 OFFCURVE",
"149 358 OFFCURVE",
"150 361 CURVE SMOOTH",
"208 636 LINE SMOOTH",
"209 640 OFFCURVE",
"210 643 OFFCURVE",
"216 643 CURVE SMOOTH",
"484 643 LINE SMOOTH",
"486 643 OFFCURVE",
"487 644 OFFCURVE",
"488 647 CURVE SMOOTH",
"492 669 LINE SMOOTH",
"492 671 OFFCURVE",
"492 673 OFFCURVE",
"490 673 CURVE SMOOTH",
"187 673 LINE SMOOTH",
"184 673 OFFCURVE",
"182 671 OFFCURVE",
"182 669 CURVE SMOOTH",
"41 4 LINE SMOOTH",
"40 1 OFFCURVE",
"41 0 OFFCURVE",
"44 0 CURVE SMOOTH"
);
}
);
width = 441;
},
{
anchors = (
{
name = bottom;
position = "{212, 0}";
},
{
name = ogonek;
position = "{242, 10}";
},
{
name = top;
position = "{343, 673}";
},
{
name = topleft;
position = "{113, 673}";
}
);
background = {
paths = (
{
closed = 1;
nodes = (
"361 0 LINE SMOOTH",
"381 0 OFFCURVE",
"384 0 OFFCURVE",
"389 22 CURVE SMOOTH",
"404 94 LINE SMOOTH",
"408 114 OFFCURVE",
"409 116 OFFCURVE",
"387 116 CURVE SMOOTH",
"195 116 LINE SMOOTH",
"187 116 OFFCURVE",
"187 117 OFFCURVE",
"189 125 CURVE SMOOTH",
"220 275 LINE SMOOTH",
"222 282 OFFCURVE",
"223 282 OFFCURVE",
"230 282 CURVE SMOOTH",
"380 282 LINE SMOOTH",
"399 282 OFFCURVE",
"400 283 OFFCURVE",
"404 303 CURVE SMOOTH",
"419 374 LINE SMOOTH",
"424 395 OFFCURVE",
"424 396 OFFCURVE",
"404 396 CURVE SMOOTH",
"254 396 LINE SMOOTH",
"246 396 OFFCURVE",
"246 396 OFFCURVE",
"248 405 CURVE SMOOTH",
"279 549 LINE SMOOTH",
"280 557 OFFCURVE",
"280 557 OFFCURVE",
"289 557 CURVE SMOOTH",
"483 557 LINE SMOOTH",
"499 557 OFFCURVE",
"502 557 OFFCURVE",
"506 576 CURVE SMOOTH",
"523 656 LINE SMOOTH",
"527 673 OFFCURVE",
"527 673 OFFCURVE",
"508 673 CURVE SMOOTH",
"168 673 LINE SMOOTH",
"160 673 OFFCURVE",
"152 667 OFFCURVE",
"150 658 CURVE SMOOTH",
"13 14 LINE SMOOTH",
"11 6 OFFCURVE",
"17 0 OFFCURVE",
"25 0 CURVE SMOOTH"
);
}
);
};
layerId = "D1BC8BBB-1669-4C46-BC21-42BF6808B2B9";
paths = (
{
closed = 1;
nodes = (
"361 0 LINE SMOOTH",
"381 0 OFFCURVE",
"384 0 OFFCURVE",
"389 22 CURVE SMOOTH",
"404 94 LINE SMOOTH",
"408 114 OFFCURVE",
"409 116 OFFCURVE",
"387 116 CURVE SMOOTH",
"195 116 LINE SMOOTH",
"187 116 OFFCURVE",
"187 117 OFFCURVE",
"189 125 CURVE SMOOTH",
"220 275 LINE SMOOTH",
"221 282 OFFCURVE",
"223 282 OFFCURVE",
"230 282 CURVE SMOOTH",
"380 282 LINE SMOOTH",
"399 282 OFFCURVE",
"400 283 OFFCURVE",
"404 303 CURVE SMOOTH",
"419 374 LINE SMOOTH",
"423 395 OFFCURVE",
"424 396 OFFCURVE",
"404 396 CURVE SMOOTH",
"254 396 LINE SMOOTH",
"246 396 OFFCURVE",
"246 396 OFFCURVE",
"248 405 CURVE SMOOTH",
"279 549 LINE SMOOTH",
"281 557 OFFCURVE",
"280 557 OFFCURVE",
"289 557 CURVE SMOOTH",
"483 557 LINE SMOOTH",
"499 557 OFFCURVE",
"502 557 OFFCURVE",
"506 576 CURVE SMOOTH",
"523 656 LINE SMOOTH",
"527 673 OFFCURVE",
"527 673 OFFCURVE",
"508 673 CURVE SMOOTH",
"168 673 LINE SMOOTH",
"160 673 OFFCURVE",
"152 667 OFFCURVE",
"150 658 CURVE SMOOTH",
"13 14 LINE SMOOTH",
"11 6 OFFCURVE",
"17 0 OFFCURVE",
"25 0 CURVE SMOOTH"
);
}
);
width = 458;
}
);
leftKerningGroup = H;
leftMetricsKey = D;
note = E;
rightKerningGroup = E;
unicode = 0045;
},
{
glyphname = F;
lastChange = "2021-06-09 21:23:28 +0000";
layers = (
{
background = {
paths = (
{
closed = 1;
nodes = (
"70 0 LINE SMOOTH",
"73 0 OFFCURVE",
"74 1 OFFCURVE",
"75 4 CURVE SMOOTH",
"141 317 LINE SMOOTH",
"142 322 OFFCURVE",
"144 324 OFFCURVE",
"149 324 CURVE SMOOTH",
"360 324 LINE SMOOTH",
"363 324 OFFCURVE",
"364 326 OFFCURVE",
"365 328 CURVE SMOOTH",
"369 350 LINE SMOOTH",
"370 353 OFFCURVE",
"369 354 OFFCURVE",
"366 354 CURVE SMOOTH",
"156 354 LINE SMOOTH",
"153 354 OFFCURVE",
"150 358 OFFCURVE",
"151 361 CURVE SMOOTH",
"209 636 LINE SMOOTH",
"210 640 OFFCURVE",
"211 643 OFFCURVE",
"217 643 CURVE SMOOTH",
"485 643 LINE SMOOTH",
"487 643 OFFCURVE",
"488 644 OFFCURVE",
"489 647 CURVE SMOOTH",
"493 669 LINE SMOOTH",
"494 671 OFFCURVE",
"493 673 OFFCURVE",
"491 673 CURVE SMOOTH",
"188 673 LINE SMOOTH",
"185 673 OFFCURVE",
"184 671 OFFCURVE",
"183 669 CURVE SMOOTH",
"42 4 LINE SMOOTH",
"41 1 OFFCURVE",
"42 0 OFFCURVE",
"45 0 CURVE SMOOTH"
);
}
);
};
layerId = "707362F1-A677-446A-8636-E10BE3A7FAFF";
paths = (
{
closed = 1;
nodes = (
"69 0 LINE SMOOTH",
"72 0 OFFCURVE",
"73 1 OFFCURVE",
"74 4 CURVE SMOOTH",
"140 317 LINE SMOOTH",
"141 322 OFFCURVE",
"143 324 OFFCURVE",
"148 324 CURVE SMOOTH",
"359 324 LINE SMOOTH",
"362 324 OFFCURVE",
"363 326 OFFCURVE",
"364 328 CURVE SMOOTH",
"368 350 LINE SMOOTH",
"369 353 OFFCURVE",
"368 354 OFFCURVE",
"365 354 CURVE SMOOTH",
"155 354 LINE SMOOTH",
"152 354 OFFCURVE",
"149 358 OFFCURVE",
"150 361 CURVE SMOOTH",
"208 636 LINE SMOOTH",
"209 640 OFFCURVE",
"210 643 OFFCURVE",
"216 643 CURVE SMOOTH",
"484 643 LINE SMOOTH",
"486 643 OFFCURVE",
"487 644 OFFCURVE",
"488 647 CURVE SMOOTH",
"492 669 LINE SMOOTH",
"493 671 OFFCURVE",
"492 673 OFFCURVE",
"490 673 CURVE SMOOTH",
"187 673 LINE SMOOTH",
"184 673 OFFCURVE",
"183 671 OFFCURVE",
"182 669 CURVE SMOOTH",
"41 4 LINE SMOOTH",
"40 1 OFFCURVE",
"41 0 OFFCURVE",
"44 0 CURVE SMOOTH"
);
}
);
width = 421;
},
{
background = {
paths = (
{
closed = 1;
nodes = (
"139 0 LINE SMOOTH",
"161 0 OFFCURVE",
"162 0 OFFCURVE",
"167 22 CURVE SMOOTH",
"220 275 LINE SMOOTH",
"222 282 OFFCURVE",
"223 282 OFFCURVE",
"230 282 CURVE SMOOTH",
"380 282 LINE SMOOTH",
"399 282 OFFCURVE",
"400 283 OFFCURVE",
"404 303 CURVE SMOOTH",
"419 374 LINE SMOOTH",
"424 395 OFFCURVE",
"424 396 OFFCURVE",
"404 396 CURVE SMOOTH",
"254 396 LINE SMOOTH",
"246 396 OFFCURVE",
"246 396 OFFCURVE",
"248 405 CURVE SMOOTH",
"279 549 LINE SMOOTH",
"280 557 OFFCURVE",
"280 557 OFFCURVE",
"289 557 CURVE SMOOTH",
"483 557 LINE SMOOTH",
"499 557 OFFCURVE",
"502 557 OFFCURVE",
"506 576 CURVE SMOOTH",
"523 656 LINE SMOOTH",
"527 673 OFFCURVE",
"527 673 OFFCURVE",
"508 673 CURVE SMOOTH",
"168 673 LINE SMOOTH",
"160 673 OFFCURVE",
"152 667 OFFCURVE",
"150 658 CURVE SMOOTH",
"13 14 LINE SMOOTH",
"11 6 OFFCURVE",
"17 0 OFFCURVE",
"25 0 CURVE SMOOTH"
);
}
);
};
layerId = "D1BC8BBB-1669-4C46-BC21-42BF6808B2B9";
paths = (
{
closed = 1;
nodes = (
"139 0 LINE SMOOTH",
"161 0 OFFCURVE",
"162 0 OFFCURVE",
"167 22 CURVE SMOOTH",
"220 275 LINE SMOOTH",
"222 282 OFFCURVE",
"223 282 OFFCURVE",
"230 282 CURVE SMOOTH",
"380 282 LINE SMOOTH",
"399 282 OFFCURVE",
"400 283 OFFCURVE",
"404 303 CURVE SMOOTH",
"419 374 LINE SMOOTH",
"424 395 OFFCURVE",
"424 396 OFFCURVE",
"404 396 CURVE SMOOTH",
"254 396 LINE SMOOTH",
"246 396 OFFCURVE",
"246 396 OFFCURVE",
"248 405 CURVE SMOOTH",
"279 549 LINE SMOOTH",
"280 557 OFFCURVE",
"280 557 OFFCURVE",
"289 557 CURVE SMOOTH",
"483 557 LINE SMOOTH",
"499 557 OFFCURVE",
"502 557 OFFCURVE",
"506 576 CURVE SMOOTH",
"523 656 LINE SMOOTH",
"527 673 OFFCURVE",
"527 673 OFFCURVE",
"508 673 CURVE SMOOTH",
"168 673 LINE SMOOTH",
"160 673 OFFCURVE",
"152 667 OFFCURVE",
"150 658 CURVE SMOOTH",
"13 14 LINE SMOOTH",
"11 6 OFFCURVE",
"17 0 OFFCURVE",
"25 0 CURVE SMOOTH"
);
}
);
width = 450;
}
);
leftKerningGroup = H;
leftMetricsKey = D;
note = F;
rightKerningGroup = F;
unicode = 0046;
},
{
glyphname = G;
lastChange = "2021-06-09 21:23:28 +0000";
layers = (
{
anchors = (
{
name = bottom;
position = "{329, 0}";
},
{
name = top;
position = "{450, 672}";
}
);
background = {
paths = (
{
closed = 1;
nodes = (
"562 347 LINE SMOOTH",
"564 354 OFFCURVE",
"563 356 OFFCURVE",
"555 356 CURVE SMOOTH",
"352 356 LINE SMOOTH",
"351 356 OFFCURVE",
"348 353 OFFCURVE",
"348 353 CURVE",
"343 330 LINE",
"343 330 OFFCURVE",
"345 327 OFFCURVE",
"346 327 CURVE SMOOTH",
"514 327 LINE SMOOTH",
"521 327 OFFCURVE",
"524 324 OFFCURVE",
"522 315 CURVE SMOOTH",
"462 32 LINE",
"454 26 OFFCURVE",
"431 22 OFFCURVE",
"399 22 CURVE SMOOTH",
"272 22 OFFCURVE",
"108 81 OFFCURVE",
"162 332 CURVE SMOOTH",
"213 572 OFFCURVE",
"403 649 OFFCURVE",
"505 649 CURVE SMOOTH",
"543 649 OFFCURVE",
"583 648 OFFCURVE",
"612 629 CURVE SMOOTH",
"616 627 OFFCURVE",
"617 630 OFFCURVE",
"618 635 CURVE SMOOTH",
"623 657 LINE SMOOTH",
"624 661 OFFCURVE",
"622 664 OFFCURVE",
"617 667 CURVE",
"590 676 OFFCURVE",
"542 678 OFFCURVE",
"511 678 CURVE SMOOTH",
"336 678 OFFCURVE",
"173 545 OFFCURVE",
"126 324 CURVE SMOOTH",
"80 107 OFFCURVE",
"185 -6 OFFCURVE",
"409 -6 CURVE SMOOTH",
"442 -6 OFFCURVE",
"487 -4 OFFCURVE",
"492 18 CURVE SMOOTH"
);
}
);
};
layerId = "707362F1-A677-446A-8636-E10BE3A7FAFF";
paths = (
{
closed = 1;
nodes = (
"503 347 LINE SMOOTH",
"505 354 OFFCURVE",
"504 356 OFFCURVE",
"496 356 CURVE SMOOTH",
"293 356 LINE SMOOTH",
"292 356 OFFCURVE",
"289 353 OFFCURVE",
"289 353 CURVE",
"284 330 LINE",
"284 330 OFFCURVE",
"286 327 OFFCURVE",
"287 327 CURVE SMOOTH",
"455 327 LINE SMOOTH",
"462 327 OFFCURVE",
"465 324 OFFCURVE",
"463 315 CURVE SMOOTH",
"403 32 LINE",
"395 26 OFFCURVE",
"372 22 OFFCURVE",
"340 22 CURVE SMOOTH",
"213 22 OFFCURVE",
"49 81 OFFCURVE",
"103 332 CURVE SMOOTH",
"154 572 OFFCURVE",
"344 649 OFFCURVE",
"446 649 CURVE SMOOTH",
"484 649 OFFCURVE",
"524 648 OFFCURVE",
"553 629 CURVE SMOOTH",
"557 627 OFFCURVE",
"558 630 OFFCURVE",
"559 635 CURVE SMOOTH",
"564 657 LINE SMOOTH",
"565 661 OFFCURVE",
"563 664 OFFCURVE",
"558 667 CURVE",
"531 676 OFFCURVE",
"483 678 OFFCURVE",
"452 678 CURVE SMOOTH",
"277 678 OFFCURVE",
"114 545 OFFCURVE",
"67 324 CURVE SMOOTH",
"21 107 OFFCURVE",
"126 -6 OFFCURVE",
"350 -6 CURVE SMOOTH",
"383 -6 OFFCURVE",
"428 -4 OFFCURVE",
"433 18 CURVE SMOOTH"
);
}
);
width = 549;
},
{
anchors = (
{
name = bottom;
position = "{316, 0}";
},
{
name = top;
position = "{442, 673}";
}
);
background = {
paths = (
{
closed = 1;
nodes = (
"559 375 LINE SMOOTH",
"564 398 OFFCURVE",
"564 399 OFFCURVE",
"542 399 CURVE SMOOTH",
"303 399 LINE SMOOTH",
"287 399 OFFCURVE",
"284 396 OFFCURVE",
"281 380 CURVE SMOOTH",
"264 299 LINE SMOOTH",
"260 283 OFFCURVE",
"263 283 OFFCURVE",
"278 283 CURVE SMOOTH",
"381 283 LINE SMOOTH",
"388 283 OFFCURVE",
"388 282 OFFCURVE",
"387 276 CURVE SMOOTH",
"355 124 LINE SMOOTH",
"353 114 OFFCURVE",
"346 110 OFFCURVE",
"331 110 CURVE SMOOTH",
"277 110 OFFCURVE",
"166 132 OFFCURVE",
"209 332 CURVE SMOOTH",
"250 526 OFFCURVE",
"381 562 OFFCURVE",
"454 562 CURVE SMOOTH",
"499 562 OFFCURVE",
"529 552 OFFCURVE",
"558 533 CURVE SMOOTH",
"571 523 OFFCURVE",
"588 529 OFFCURVE",
"594 558 CURVE SMOOTH",
"611 638 LINE SMOOTH",
"615 658 OFFCURVE",
"607 657 OFFCURVE",
"587 664 CURVE SMOOTH",
"560 674 OFFCURVE",
"502 678 OFFCURVE",
"445 678 CURVE SMOOTH",
"256 678 OFFCURVE",
"93 544 OFFCURVE",
"47 326 CURVE SMOOTH",
"0 109 OFFCURVE",
"96 -6 OFFCURVE",
"340 -6 CURVE SMOOTH",
"417 -6 OFFCURVE",
"480 5 OFFCURVE",
"487 34 CURVE SMOOTH"
);
}
);
};
layerId = "D1BC8BBB-1669-4C46-BC21-42BF6808B2B9";
paths = (
{
closed = 1;
nodes = (
"559 375 LINE SMOOTH",
"564 398 OFFCURVE",
"564 399 OFFCURVE",
"542 399 CURVE SMOOTH",
"303 399 LINE SMOOTH",
"287 399 OFFCURVE",
"284 396 OFFCURVE",
"281 380 CURVE SMOOTH",
"264 299 LINE SMOOTH",
"261 283 OFFCURVE",
"263 283 OFFCURVE",
"278 283 CURVE SMOOTH",
"381 283 LINE SMOOTH",
"388 283 OFFCURVE",
"388 282 OFFCURVE",
"387 276 CURVE SMOOTH",
"355 124 LINE SMOOTH",
"353 114 OFFCURVE",
"346 110 OFFCURVE",
"331 110 CURVE SMOOTH",
"277 110 OFFCURVE",
"166 132 OFFCURVE",
"209 332 CURVE SMOOTH",
"250 526 OFFCURVE",
"381 562 OFFCURVE",
"454 562 CURVE SMOOTH",
"499 562 OFFCURVE",
"529 552 OFFCURVE",
"558 533 CURVE SMOOTH",
"571 523 OFFCURVE",
"588 529 OFFCURVE",
"594 558 CURVE SMOOTH",
"611 638 LINE SMOOTH",
"615 658 OFFCURVE",
"607 657 OFFCURVE",
"587 664 CURVE SMOOTH",
"560 674 OFFCURVE",
"502 678 OFFCURVE",
"445 678 CURVE SMOOTH",
"256 678 OFFCURVE",
"93 544 OFFCURVE",
"47 326 CURVE SMOOTH",
"0 109 OFFCURVE",
"96 -6 OFFCURVE",
"340 -6 CURVE SMOOTH",
"417 -6 OFFCURVE",
"481 5 OFFCURVE",
"487 34 CURVE SMOOTH"
);
}
);
width = 580;
}
);
leftKerningGroup = O;
leftMetricsKey = "=O-10";
note = G;
rightKerningGroup = G;
unicode = 0047;
},
{
glyphname = H;
lastChange = "2021-06-09 21:23:28 +0000";
layers = (
{
background = {
paths = (
{
closed = 1;
nodes = (
"77 0 OFFCURVE",
"85 0 OFFCURVE",
"94 0 CURVE SMOOTH",
"96 0 OFFCURVE",
"97 1 OFFCURVE",
"98 4 CURVE SMOOTH",
"107 131 OFFCURVE",
"142 282 OFFCURVE",
"150 316 CURVE SMOOTH",
"151 322 OFFCURVE",
"156 324 OFFCURVE",
"160 324 CURVE SMOOTH",
"279 324 OFFCURVE",
"399 324 OFFCURVE",
"518 324 CURVE SMOOTH",
"521 324 OFFCURVE",
"524 322 OFFCURVE",
"523 316 CURVE SMOOTH",
"518 288 OFFCURVE",
"489 132 OFFCURVE",
"444 4 CURVE SMOOTH",
"443 1 OFFCURVE",
"444 0 OFFCURVE",
"446 0 CURVE SMOOTH",
"455 0 OFFCURVE",
"463 0 OFFCURVE",
"472 0 CURVE SMOOTH",
"474 0 OFFCURVE",
"476 1 OFFCURVE",
"477 4 CURVE SMOOTH",
"499 70 OFFCURVE",
"533 202 OFFCURVE",
"561 334 CURVE SMOOTH",
"589 468 OFFCURVE",
"611 604 OFFCURVE",
"617 669 CURVE SMOOTH",
"618 671 OFFCURVE",
"615 673 OFFCURVE",
"614 673 CURVE SMOOTH",
"606 673 OFFCURVE",
"597 673 OFFCURVE",
"589 673 CURVE SMOOTH",
"587 673 OFFCURVE",
"586 671 OFFCURVE",
"584 670 CURVE SMOOTH",
"564 507 OFFCURVE",
"535 372 OFFCURVE",
"533 362 CURVE SMOOTH",
"531 354 OFFCURVE",
"527 354 OFFCURVE",
"524 354 CURVE SMOOTH",
"404 354 OFFCURVE",
"285 354 OFFCURVE",
"165 354 CURVE SMOOTH",
"162 354 OFFCURVE",
"159 355 OFFCURVE",
"161 362 CURVE SMOOTH",
"165 381 OFFCURVE",
"195 521 OFFCURVE",
"240 669 CURVE SMOOTH",
"241 671 OFFCURVE",
"239 673 OFFCURVE",
"237 673 CURVE SMOOTH",
"229 673 OFFCURVE",
"220 673 OFFCURVE",
"212 673 CURVE SMOOTH",
"211 673 OFFCURVE",
"208 671 OFFCURVE",
"207 669 CURVE SMOOTH",
"185 604 OFFCURVE",
"149 468 OFFCURVE",
"121 334 CURVE SMOOTH",
"93 202 OFFCURVE",
"71 70 OFFCURVE",
"65 4 CURVE SMOOTH",
"64 1 OFFCURVE",
"67 0 OFFCURVE",
"68 0 CURVE SMOOTH"
);
}
);
};
layerId = "707362F1-A677-446A-8636-E10BE3A7FAFF";
paths = (
{
closed = 1;
nodes = (
"62 0 OFFCURVE",
"70 0 OFFCURVE",
"79 0 CURVE SMOOTH",
"81 0 OFFCURVE",
"82 1 OFFCURVE",
"83 4 CURVE SMOOTH",
"92 131 OFFCURVE",
"127 282 OFFCURVE",
"135 316 CURVE SMOOTH",
"136 322 OFFCURVE",
"141 324 OFFCURVE",
"145 324 CURVE SMOOTH",
"264 324 OFFCURVE",
"384 324 OFFCURVE",
"503 324 CURVE SMOOTH",
"506 324 OFFCURVE",
"509 322 OFFCURVE",
"508 316 CURVE SMOOTH",
"503 288 OFFCURVE",
"474 132 OFFCURVE",
"429 4 CURVE SMOOTH",
"428 1 OFFCURVE",
"429 0 OFFCURVE",
"431 0 CURVE SMOOTH",
"440 0 OFFCURVE",
"448 0 OFFCURVE",
"457 0 CURVE SMOOTH",
"459 0 OFFCURVE",
"461 1 OFFCURVE",
"462 4 CURVE SMOOTH",
"484 70 OFFCURVE",
"518 202 OFFCURVE",
"546 334 CURVE SMOOTH",
"574 468 OFFCURVE",
"596 604 OFFCURVE",
"602 669 CURVE SMOOTH",
"603 671 OFFCURVE",
"600 673 OFFCURVE",
"599 673 CURVE SMOOTH",
"591 673 OFFCURVE",
"582 673 OFFCURVE",
"574 673 CURVE SMOOTH",
"572 673 OFFCURVE",
"571 671 OFFCURVE",
"569 670 CURVE SMOOTH",
"549 507 OFFCURVE",
"520 372 OFFCURVE",
"518 362 CURVE SMOOTH",
"516 354 OFFCURVE",
"512 354 OFFCURVE",
"509 354 CURVE SMOOTH",
"389 354 OFFCURVE",
"270 354 OFFCURVE",
"150 354 CURVE SMOOTH",
"147 354 OFFCURVE",
"144 355 OFFCURVE",
"146 362 CURVE SMOOTH",
"150 381 OFFCURVE",
"180 521 OFFCURVE",
"225 669 CURVE SMOOTH",
"226 671 OFFCURVE",
"224 673 OFFCURVE",
"222 673 CURVE SMOOTH",
"214 673 OFFCURVE",
"205 673 OFFCURVE",
"197 673 CURVE SMOOTH",
"196 673 OFFCURVE",
"193 671 OFFCURVE",
"192 669 CURVE SMOOTH",
"170 604 OFFCURVE",
"134 468 OFFCURVE",
"106 334 CURVE SMOOTH",
"78 202 OFFCURVE",
"56 70 OFFCURVE",
"50 4 CURVE SMOOTH",
"49 1 OFFCURVE",
"52 0 OFFCURVE",
"53 0 CURVE SMOOTH"
);
}
);
width = 610;
},
{
background = {
paths = (
{
closed = 1;
nodes = (
"83 0 OFFCURVE",
"124 0 OFFCURVE",
"164 0 CURVE SMOOTH",
"171 0 OFFCURVE",
"173 4 OFFCURVE",
"174 14 CURVE SMOOTH",
"179 77 OFFCURVE",
"194 173 OFFCURVE",
"213 270 CURVE SMOOTH",
"216 281 OFFCURVE",
"217 282 OFFCURVE",
"229 282 CURVE SMOOTH",
"286 282 OFFCURVE",
"343 282 OFFCURVE",
"400 282 CURVE SMOOTH",
"412 282 OFFCURVE",
"414 281 OFFCURVE",
"411 270 CURVE SMOOTH",
"390 173 OFFCURVE",
"362 77 OFFCURVE",
"341 14 CURVE SMOOTH",
"338 4 OFFCURVE",
"338 0 OFFCURVE",
"345 0 CURVE SMOOTH",
"385 0 OFFCURVE",
"426 0 OFFCURVE",
"466 0 CURVE SMOOTH",
"477 0 OFFCURVE",
"488 1 OFFCURVE",
"492 14 CURVE SMOOTH",
"515 85 OFFCURVE",
"551 217 OFFCURVE",
"579 348 CURVE SMOOTH",
"605 468 OFFCURVE",
"626 587 OFFCURVE",
"626 658 CURVE",
"627 667 OFFCURVE",
"616 673 OFFCURVE",
"608 673 CURVE SMOOTH",
"568 673 OFFCURVE",
"527 673 OFFCURVE",
"487 673 CURVE SMOOTH",
"480 673 OFFCURVE",
"476 668 OFFCURVE",
"475 658 CURVE SMOOTH",
"471 612 OFFCURVE",
"457 511 OFFCURVE",
"441 412 CURVE SMOOTH",
"438 398 OFFCURVE",
"432 396 OFFCURVE",
"422 396 CURVE SMOOTH",
"367 396 OFFCURVE",
"311 396 OFFCURVE",
"256 396 CURVE SMOOTH",
"240 396 OFFCURVE",
"242 398 OFFCURVE",
"245 412 CURVE SMOOTH",
"270 511 OFFCURVE",
"298 612 OFFCURVE",
"314 658 CURVE SMOOTH",
"317 668 OFFCURVE",
"315 673 OFFCURVE",
"308 673 CURVE SMOOTH",
"268 673 OFFCURVE",
"227 673 OFFCURVE",
"187 673 CURVE SMOOTH",
"179 673 OFFCURVE",
"166 667 OFFCURVE",
"163 658 CURVE SMOOTH",
"133 587 OFFCURVE",
"104 470 OFFCURVE",
"79 351 CURVE SMOOTH",
"52 219 OFFCURVE",
"30 86 OFFCURVE",
"23 14 CURVE SMOOTH",
"21 1 OFFCURVE",
"33 0 OFFCURVE",
"43 0 CURVE SMOOTH"
);
}
);
};
guideLines = (
{
position = "{328, 673}";
}
);
layerId = "D1BC8BBB-1669-4C46-BC21-42BF6808B2B9";
paths = (
{
closed = 1;
nodes = (
"83 0 OFFCURVE",
"124 0 OFFCURVE",
"164 0 CURVE SMOOTH",
"171 0 OFFCURVE",
"173 4 OFFCURVE",
"174 14 CURVE SMOOTH",
"179 77 OFFCURVE",
"194 173 OFFCURVE",
"213 270 CURVE SMOOTH",
"216 281 OFFCURVE",
"217 282 OFFCURVE",
"229 282 CURVE SMOOTH",
"286 282 OFFCURVE",
"343 282 OFFCURVE",
"400 282 CURVE SMOOTH",
"412 282 OFFCURVE",
"414 281 OFFCURVE",
"411 270 CURVE SMOOTH",
"390 173 OFFCURVE",
"362 77 OFFCURVE",
"341 14 CURVE SMOOTH",
"338 4 OFFCURVE",
"338 0 OFFCURVE",
"345 0 CURVE SMOOTH",
"385 0 OFFCURVE",
"426 0 OFFCURVE",
"466 0 CURVE SMOOTH",
"477 0 OFFCURVE",
"488 1 OFFCURVE",
"492 14 CURVE SMOOTH",
"515 85 OFFCURVE",
"551 217 OFFCURVE",
"579 348 CURVE SMOOTH",
"605 468 OFFCURVE",
"626 587 OFFCURVE",
"626 658 CURVE",
"627 667 OFFCURVE",
"616 673 OFFCURVE",
"608 673 CURVE SMOOTH",
"568 673 OFFCURVE",
"527 673 OFFCURVE",
"487 673 CURVE SMOOTH",
"480 673 OFFCURVE",
"476 668 OFFCURVE",
"475 658 CURVE SMOOTH",
"471 612 OFFCURVE",
"457 511 OFFCURVE",
"441 412 CURVE SMOOTH",
"438 398 OFFCURVE",
"432 396 OFFCURVE",
"422 396 CURVE SMOOTH",
"367 396 OFFCURVE",
"311 396 OFFCURVE",
"256 396 CURVE SMOOTH",
"240 396 OFFCURVE",
"242 398 OFFCURVE",
"245 412 CURVE SMOOTH",
"270 511 OFFCURVE",
"298 612 OFFCURVE",
"314 658 CURVE SMOOTH",
"317 668 OFFCURVE",
"315 673 OFFCURVE",
"308 673 CURVE SMOOTH",
"268 673 OFFCURVE",
"227 673 OFFCURVE",
"187 673 CURVE SMOOTH",
"179 673 OFFCURVE",
"166 667 OFFCURVE",
"163 658 CURVE SMOOTH",
"133 587 OFFCURVE",
"104 470 OFFCURVE",
"79 351 CURVE SMOOTH",
"52 219 OFFCURVE",
"30 86 OFFCURVE",
"23 14 CURVE SMOOTH",
"21 1 OFFCURVE",
"33 0 OFFCURVE",
"43 0 CURVE SMOOTH"
);
}
);
width = 610;
}
);
leftKerningGroup = H;
note = H;
rightKerningGroup = H;
unicode = 0048;
},
{
glyphname = I;
lastChange = "2021-06-09 21:23:28 +0000";
layers = (
{
anchors = (
{
name = bottom;
position = "{57, 0}";
},
{
name = ogonek;
position = "{76, 10}";
},
{
name = top;
position = "{200, 672}";
},
{
name = topleft;
position = "{113, 672}";
}
);
background = {
paths = (
{
closed = 1;
nodes = (
"216 669 LINE SMOOTH",
"217 671 OFFCURVE",
"215 673 OFFCURVE",
"213 673 CURVE SMOOTH",
"187 673 LINE SMOOTH",
"185 673 OFFCURVE",
"184 671 OFFCURVE",
"183 669 CURVE SMOOTH",
"42 4 LINE SMOOTH",
"41 1 OFFCURVE",
"42 0 OFFCURVE",
"44 0 CURVE SMOOTH",
"70 0 LINE SMOOTH",
"72 0 OFFCURVE",
"74 1 OFFCURVE",
"75 4 CURVE SMOOTH"
);
}
);
};
layerId = "707362F1-A677-446A-8636-E10BE3A7FAFF";
paths = (
{
closed = 1;
nodes = (
"215 669 LINE SMOOTH",
"215 671 OFFCURVE",
"214 673 OFFCURVE",
"212 673 CURVE SMOOTH",
"186 673 LINE SMOOTH",
"184 673 OFFCURVE",
"182 671 OFFCURVE",
"182 669 CURVE SMOOTH",
"41 4 LINE SMOOTH",
"40 1 OFFCURVE",
"41 0 OFFCURVE",
"43 0 CURVE SMOOTH",
"69 0 LINE SMOOTH",
"71 0 OFFCURVE",
"73 1 OFFCURVE",
"74 4 CURVE SMOOTH"
);
}
);
width = 213;
},
{
anchors = (
{
name = bottom;
position = "{86, 0}";
},
{
name = ogonek;
position = "{196, 10}";
},
{
name = top;
position = "{229, 673}";
},
{
name = topleft;
position = "{113, 673}";
}
);
background = {
paths = (
{
closed = 1;
nodes = (
"301 658 LINE SMOOTH",
"303 667 OFFCURVE",
"297 673 OFFCURVE",
"289 673 CURVE SMOOTH",
"169 673 LINE SMOOTH",
"159 673 OFFCURVE",
"152 667 OFFCURVE",
"150 658 CURVE SMOOTH",
"13 14 LINE SMOOTH",
"11 6 OFFCURVE",
"16 0 OFFCURVE",
"26 0 CURVE SMOOTH",
"146 0 LINE SMOOTH",
"154 0 OFFCURVE",
"162 6 OFFCURVE",
"164 14 CURVE SMOOTH"
);
}
);
};
layerId = "D1BC8BBB-1669-4C46-BC21-42BF6808B2B9";
paths = (
{
closed = 1;
nodes = (
"301 658 LINE SMOOTH",
"303 667 OFFCURVE",
"297 673 OFFCURVE",
"289 673 CURVE SMOOTH",
"169 673 LINE SMOOTH",
"159 673 OFFCURVE",
"152 667 OFFCURVE",
"150 658 CURVE SMOOTH",
"13 14 LINE SMOOTH",
"11 6 OFFCURVE",
"16 0 OFFCURVE",
"26 0 CURVE SMOOTH",
"146 0 LINE SMOOTH",
"154 0 OFFCURVE",
"162 6 OFFCURVE",
"164 14 CURVE SMOOTH"
);
}
);
width = 271;
}
);
leftKerningGroup = H;
leftMetricsKey = D;
note = I;
rightKerningGroup = H;
rightMetricsKey = "=H+5";
unicode = 0049;
},
{
glyphname = J;
lastChange = "2021-06-09 21:23:28 +0000";
layers = (
{
background = {
paths = (
{
closed = 1;
nodes = (
"288 669 LINE SMOOTH",
"289 671 OFFCURVE",
"288 673 OFFCURVE",
"286 673 CURVE SMOOTH",
"260 673 LINE SMOOTH",
"257 673 OFFCURVE",
"256 671 OFFCURVE",
"255 669 CURVE SMOOTH",
"143 138 LINE SMOOTH",
"124 52 OFFCURVE",
"87 27 OFFCURVE",
"28 27 CURVE SMOOTH",
"4 27 OFFCURVE",
"-21 27 OFFCURVE",
"-45 27 CURVE SMOOTH",
"-51 27 OFFCURVE",
"-53 26 OFFCURVE",
"-54 22 CURVE SMOOTH",
"-58 4 LINE SMOOTH",
"-59 1 OFFCURVE",
"-58 0 OFFCURVE",
"-53 0 CURVE SMOOTH",
"24 -1 LINE SMOOTH",
"113 -2 OFFCURVE",
"153 34 OFFCURVE",
"182 168 CURVE SMOOTH"
);
}
);
};
layerId = "707362F1-A677-446A-8636-E10BE3A7FAFF";
paths = (
{
closed = 1;
nodes = (
"287 669 LINE SMOOTH",
"288 671 OFFCURVE",
"287 673 OFFCURVE",
"285 673 CURVE SMOOTH",
"259 673 LINE SMOOTH",
"256 673 OFFCURVE",
"255 671 OFFCURVE",
"254 669 CURVE SMOOTH",
"142 138 LINE SMOOTH",
"123 52 OFFCURVE",
"86 27 OFFCURVE",
"27 27 CURVE SMOOTH",
"3 27 OFFCURVE",
"-22 27 OFFCURVE",
"-46 27 CURVE SMOOTH",
"-52 27 OFFCURVE",
"-54 26 OFFCURVE",
"-55 22 CURVE SMOOTH",
"-59 4 LINE SMOOTH",
"-60 1 OFFCURVE",
"-59 0 OFFCURVE",
"-54 0 CURVE SMOOTH",
"23 -1 LINE SMOOTH",
"112 -2 OFFCURVE",
"152 34 OFFCURVE",
"181 168 CURVE SMOOTH"
);
}
);
width = 280;
},
{
background = {
paths = (
{
closed = 1;
nodes = (
"371 658 LINE SMOOTH",
"373 667 OFFCURVE",
"366 673 OFFCURVE",
"359 673 CURVE SMOOTH",
"237 673 LINE SMOOTH",
"229 673 OFFCURVE",
"222 667 OFFCURVE",
"220 658 CURVE SMOOTH",
"118 178 LINE SMOOTH",
"106 126 OFFCURVE",
"96 113 OFFCURVE",
"59 113 CURVE SMOOTH",
"45 113 OFFCURVE",
"10 116 OFFCURVE",
"-5 117 CURVE SMOOTH",
"-12 118 OFFCURVE",
"-16 114 OFFCURVE",
"-18 104 CURVE SMOOTH",
"-36 19 LINE SMOOTH",
"-39 4 OFFCURVE",
"-14 0 OFFCURVE",
"0 0 CURVE SMOOTH",
"74 0 LINE SMOOTH",
"190 0 OFFCURVE",
"240 44 OFFCURVE",
"270 184 CURVE SMOOTH"
);
}
);
};
layerId = "D1BC8BBB-1669-4C46-BC21-42BF6808B2B9";
paths = (
{
closed = 1;
nodes = (
"371 658 LINE SMOOTH",
"373 667 OFFCURVE",
"366 673 OFFCURVE",
"359 673 CURVE SMOOTH",
"237 673 LINE SMOOTH",
"229 673 OFFCURVE",
"222 667 OFFCURVE",
"220 658 CURVE SMOOTH",
"118 178 LINE SMOOTH",
"106 126 OFFCURVE",
"96 113 OFFCURVE",
"59 113 CURVE SMOOTH",
"45 113 OFFCURVE",
"10 116 OFFCURVE",
"-5 117 CURVE SMOOTH",
"-12 118 OFFCURVE",
"-16 114 OFFCURVE",
"-18 104 CURVE SMOOTH",
"-36 19 LINE SMOOTH",
"-39 4 OFFCURVE",
"-14 0 OFFCURVE",
"0 0 CURVE SMOOTH",
"74 0 LINE SMOOTH",
"190 0 OFFCURVE",
"240 44 OFFCURVE",
"270 184 CURVE SMOOTH"
);
}
);
width = 336;
}
);
leftKerningGroup = J;
note = J;
rightKerningGroup = H;
rightMetricsKey = H;
unicode = 004A;
},
{
glyphname = K;
lastChange = "2021-06-09 21:23:28 +0000";
layers = (
{
anchors = (
{
name = bottom;
position = "{205, 0}";
},
{
name = top;
position = "{348, 672}";
}
);
background = {
paths = (
{
closed = 1;
nodes = (
"53 0 OFFCURVE",
"62 0 OFFCURVE",
"70 0 CURVE SMOOTH",
"73 0 OFFCURVE",
"74 1 OFFCURVE",
"75 4 CURVE SMOOTH",
"97 108 OFFCURVE",
"119 213 OFFCURVE",
"141 317 CURVE SMOOTH",
"143 324 OFFCURVE",
"150 324 OFFCURVE",
"150 324 CURVE",
"186 324 OFFCURVE",
"223 324 OFFCURVE",
"259 324 CURVE SMOOTH",
"263 324 OFFCURVE",
"269 323 OFFCURVE",
"268 313 CURVE SMOOTH",
"260 234 OFFCURVE",
"294 99 OFFCURVE",
"345 46 CURVE SMOOTH",
"372 18 OFFCURVE",
"409 0 OFFCURVE",
"458 0 CURVE SMOOTH",
"461 0 OFFCURVE",
"461 1 OFFCURVE",
"462 5 CURVE SMOOTH",
"466 24 LINE SMOOTH",
"467 26 OFFCURVE",
"462 28 OFFCURVE",
"459 28 CURVE SMOOTH",
"425 28 OFFCURVE",
"396 44 OFFCURVE",
"372 68 CURVE SMOOTH",
"327 119 OFFCURVE",
"291 247 OFFCURVE",
"302 327 CURVE SMOOTH",
"303 333 OFFCURVE",
"304 340 OFFCURVE",
"313 352 CURVE SMOOTH",
"389 458 OFFCURVE",
"466 563 OFFCURVE",
"542 669 CURVE",
"543 670 OFFCURVE",
"542 673 OFFCURVE",
"539 673 CURVE SMOOTH",
"530 673 OFFCURVE",
"522 673 OFFCURVE",
"513 673 CURVE SMOOTH",
"511 673 OFFCURVE",
"510 670 OFFCURVE",
"509 669 CURVE",
"435 567 OFFCURVE",
"361 465 OFFCURVE",
"286 363 CURVE",
"281 358 OFFCURVE",
"276 354 OFFCURVE",
"266 354 CURVE SMOOTH",
"156 354 LINE SMOOTH",
"149 354 OFFCURVE",
"150 358 OFFCURVE",
"151 362 CURVE SMOOTH",
"173 464 OFFCURVE",
"195 567 OFFCURVE",
"216 669 CURVE SMOOTH",
"217 671 OFFCURVE",
"216 673 OFFCURVE",
"213 673 CURVE SMOOTH",
"205 673 OFFCURVE",
"196 673 OFFCURVE",
"188 673 CURVE SMOOTH",
"185 673 OFFCURVE",
"184 671 OFFCURVE",
"183 669 CURVE SMOOTH",
"136 447 OFFCURVE",
"89 226 OFFCURVE",
"42 4 CURVE SMOOTH",
"41 1 OFFCURVE",
"42 0 OFFCURVE",
"45 0 CURVE SMOOTH"
);
}
);
};
layerId = "707362F1-A677-446A-8636-E10BE3A7FAFF";
paths = (
{
closed = 1;
nodes = (
"52 0 OFFCURVE",
"61 0 OFFCURVE",
"69 0 CURVE SMOOTH",
"72 0 OFFCURVE",
"73 1 OFFCURVE",
"74 4 CURVE SMOOTH",
"96 108 OFFCURVE",
"118 213 OFFCURVE",
"140 317 CURVE SMOOTH",
"142 324 OFFCURVE",
"149 324 OFFCURVE",
"149 324 CURVE",
"185 324 OFFCURVE",
"222 324 OFFCURVE",
"258 324 CURVE SMOOTH",
"262 324 OFFCURVE",
"268 323 OFFCURVE",
"267 313 CURVE SMOOTH",
"259 234 OFFCURVE",
"293 99 OFFCURVE",
"344 46 CURVE SMOOTH",
"371 18 OFFCURVE",
"408 0 OFFCURVE",
"457 0 CURVE SMOOTH",
"460 0 OFFCURVE",
"460 1 OFFCURVE",
"461 5 CURVE SMOOTH",
"465 24 LINE SMOOTH",
"466 26 OFFCURVE",
"461 28 OFFCURVE",
"458 28 CURVE SMOOTH",
"424 28 OFFCURVE",
"395 44 OFFCURVE",
"371 68 CURVE SMOOTH",
"326 119 OFFCURVE",
"290 247 OFFCURVE",
"301 327 CURVE SMOOTH",
"302 333 OFFCURVE",
"303 340 OFFCURVE",
"312 352 CURVE SMOOTH",
"388 458 OFFCURVE",
"465 563 OFFCURVE",
"541 669 CURVE",
"542 670 OFFCURVE",
"541 673 OFFCURVE",
"538 673 CURVE SMOOTH",
"529 673 OFFCURVE",
"521 673 OFFCURVE",
"512 673 CURVE SMOOTH",
"510 673 OFFCURVE",
"509 670 OFFCURVE",
"508 669 CURVE",
"434 567 OFFCURVE",
"360 465 OFFCURVE",
"285 363 CURVE",
"280 358 OFFCURVE",
"275 354 OFFCURVE",
"265 354 CURVE SMOOTH",
"155 354 LINE SMOOTH",
"148 354 OFFCURVE",
"149 358 OFFCURVE",
"150 362 CURVE SMOOTH",
"172 464 OFFCURVE",
"194 567 OFFCURVE",
"215 669 CURVE SMOOTH",
"216 671 OFFCURVE",
"215 673 OFFCURVE",
"212 673 CURVE SMOOTH",
"204 673 OFFCURVE",
"195 673 OFFCURVE",
"187 673 CURVE SMOOTH",
"184 673 OFFCURVE",
"183 671 OFFCURVE",
"182 669 CURVE SMOOTH",
"135 447 OFFCURVE",
"88 226 OFFCURVE",
"41 4 CURVE SMOOTH",
"40 1 OFFCURVE",
"41 0 OFFCURVE",
"44 0 CURVE SMOOTH"
);
}
);
width = 510;
},
{
anchors = (
{
name = bottom;
position = "{233, 0}";
},
{
name = top;
position = "{376, 673}";
}
);
background = {
paths = (
{
closed = 1;
nodes = (
"22 0 OFFCURVE",
"150 0 OFFCURVE",
"158 0 CURVE SMOOTH",
"161 0 OFFCURVE",
"162 1 OFFCURVE",
"163 4 CURVE SMOOTH",
"185 108 OFFCURVE",
"189 127 OFFCURVE",
"211 231 CURVE SMOOTH",
"213 238 OFFCURVE",
"216 238 OFFCURVE",
"216 238 CURVE",
"217 238 OFFCURVE",
"216 238 OFFCURVE",
"218 238 CURVE SMOOTH",
"219 238 OFFCURVE",
"225 233 OFFCURVE",
"226 223 CURVE SMOOTH",
"238 149 OFFCURVE",
"264 92 OFFCURVE",
"303 55 CURVE SMOOTH",
"352 9 OFFCURVE",
"405 0 OFFCURVE",
"497 0 CURVE SMOOTH",
"500 0 OFFCURVE",
"500 1 OFFCURVE",
"501 5 CURVE SMOOTH",
"528 133 LINE SMOOTH",
"529 135 OFFCURVE",
"524 137 OFFCURVE",
"521 137 CURVE SMOOTH",
"472 137 OFFCURVE",
"443 155 OFFCURVE",
"422 182 CURVE SMOOTH",
"388 223 OFFCURVE",
"367 285 OFFCURVE",
"378 337 CURVE SMOOTH",
"380 346 OFFCURVE",
"382 355 OFFCURVE",
"390 367 CURVE SMOOTH",
"458 473 OFFCURVE",
"513 542 OFFCURVE",
"591 634 CURVE",
"611 665 OFFCURVE",
"618 673 OFFCURVE",
"602 673 CURVE SMOOTH",
"593 673 OFFCURVE",
"472 673 OFFCURVE",
"463 673 CURVE SMOOTH",
"455 673 OFFCURVE",
"449 671 OFFCURVE",
"439 659 CURVE",
"364 557 OFFCURVE",
"344 535 OFFCURVE",
"269 433 CURVE",
"265 428 OFFCURVE",
"260 422 OFFCURVE",
"257 422 CURVE SMOOTH",
"255 422 LINE SMOOTH",
"252 422 OFFCURVE",
"253 426 OFFCURVE",
"253 430 CURVE SMOOTH",
"275 532 OFFCURVE",
"283 567 OFFCURVE",
"304 669 CURVE SMOOTH",
"305 671 OFFCURVE",
"304 673 OFFCURVE",
"301 673 CURVE SMOOTH",
"293 673 OFFCURVE",
"165 673 OFFCURVE",
"157 673 CURVE SMOOTH",
"154 673 OFFCURVE",
"153 671 OFFCURVE",
"152 669 CURVE SMOOTH",
"105 447 OFFCURVE",
"58 226 OFFCURVE",
"11 4 CURVE SMOOTH",
"10 1 OFFCURVE",
"11 0 OFFCURVE",
"14 0 CURVE SMOOTH"
);
}
);
};
layerId = "D1BC8BBB-1669-4C46-BC21-42BF6808B2B9";
paths = (
{
closed = 1;
nodes = (
"22 0 OFFCURVE",
"150 0 OFFCURVE",
"158 0 CURVE SMOOTH",
"161 0 OFFCURVE",
"162 1 OFFCURVE",
"163 4 CURVE SMOOTH",
"185 108 OFFCURVE",
"189 127 OFFCURVE",
"211 231 CURVE SMOOTH",
"213 238 OFFCURVE",
"216 238 OFFCURVE",
"216 238 CURVE",
"217 238 OFFCURVE",
"216 238 OFFCURVE",
"218 238 CURVE SMOOTH",
"219 238 OFFCURVE",
"225 233 OFFCURVE",
"226 223 CURVE SMOOTH",
"238 149 OFFCURVE",
"264 92 OFFCURVE",
"303 55 CURVE SMOOTH",
"352 9 OFFCURVE",
"405 0 OFFCURVE",
"497 0 CURVE SMOOTH",
"500 0 OFFCURVE",
"500 1 OFFCURVE",
"501 5 CURVE SMOOTH",
"528 133 LINE SMOOTH",
"529 135 OFFCURVE",
"524 137 OFFCURVE",
"521 137 CURVE SMOOTH",
"472 137 OFFCURVE",
"443 155 OFFCURVE",
"422 182 CURVE SMOOTH",
"388 223 OFFCURVE",
"367 285 OFFCURVE",
"378 337 CURVE SMOOTH",
"380 346 OFFCURVE",
"382 355 OFFCURVE",
"390 367 CURVE SMOOTH",
"458 473 OFFCURVE",
"513 542 OFFCURVE",
"591 634 CURVE",
"611 665 OFFCURVE",
"618 673 OFFCURVE",
"602 673 CURVE SMOOTH",
"593 673 OFFCURVE",
"472 673 OFFCURVE",
"463 673 CURVE SMOOTH",
"455 673 OFFCURVE",
"449 671 OFFCURVE",
"439 659 CURVE",
"364 557 OFFCURVE",
"344 535 OFFCURVE",
"269 433 CURVE",
"265 428 OFFCURVE",
"260 422 OFFCURVE",
"257 422 CURVE SMOOTH",
"255 422 LINE SMOOTH",
"252 422 OFFCURVE",
"253 426 OFFCURVE",
"253 430 CURVE SMOOTH",
"275 532 OFFCURVE",
"283 567 OFFCURVE",
"304 669 CURVE SMOOTH",
"305 671 OFFCURVE",
"304 673 OFFCURVE",
"301 673 CURVE SMOOTH",
"293 673 OFFCURVE",
"165 673 OFFCURVE",
"157 673 CURVE SMOOTH",
"154 673 OFFCURVE",
"153 671 OFFCURVE",
"152 669 CURVE SMOOTH",
"105 447 OFFCURVE",
"58 226 OFFCURVE",
"11 4 CURVE SMOOTH",
"10 1 OFFCURVE",
"11 0 OFFCURVE",
"14 0 CURVE SMOOTH"
);
}
);
width = 566;
}
);
leftKerningGroup = H;
leftMetricsKey = D;
note = K;
rightKerningGroup = K;
unicode = 004B;
},
{
glyphname = L;
lastChange = "2021-06-09 21:23:28 +0000";
layers = (
{
anchors = (
{
name = bottom;
position = "{198, 0}";
},
{
name = center;
position = "{229, 336}";
},
{
name = top;
position = "{200, 672}";
},
{
name = topright;
position = "{323, 672}";
}
);
background = {
paths = (
{
closed = 1;
nodes = (
"347 0 LINE SMOOTH",
"350 0 OFFCURVE",
"351 1 OFFCURVE",
"352 4 CURVE SMOOTH",
"357 26 LINE SMOOTH",
"357 28 OFFCURVE",
"356 29 OFFCURVE",
"353 29 CURVE SMOOTH",
"87 29 LINE SMOOTH",
"80 29 OFFCURVE",
"81 32 OFFCURVE",
"82 38 CURVE SMOOTH",
"216 669 LINE SMOOTH",
"217 671 OFFCURVE",
"215 673 OFFCURVE",
"213 673 CURVE SMOOTH",
"187 673 LINE SMOOTH",
"185 673 OFFCURVE",
"184 671 OFFCURVE",
"183 669 CURVE SMOOTH",
"42 4 LINE SMOOTH",
"41 1 OFFCURVE",
"42 0 OFFCURVE",
"44 0 CURVE SMOOTH"
);
}
);
};
layerId = "707362F1-A677-446A-8636-E10BE3A7FAFF";
paths = (
{
closed = 1;
nodes = (
"346 0 LINE SMOOTH",
"349 0 OFFCURVE",
"350 1 OFFCURVE",
"351 4 CURVE SMOOTH",
"356 26 LINE SMOOTH",
"356 28 OFFCURVE",
"355 29 OFFCURVE",
"352 29 CURVE SMOOTH",
"86 29 LINE SMOOTH",
"79 29 OFFCURVE",
"80 32 OFFCURVE",
"81 38 CURVE SMOOTH",
"215 669 LINE SMOOTH",
"215 671 OFFCURVE",
"214 673 OFFCURVE",
"212 673 CURVE SMOOTH",
"186 673 LINE SMOOTH",
"184 673 OFFCURVE",
"182 671 OFFCURVE",
"182 669 CURVE SMOOTH",
"41 4 LINE SMOOTH",
"40 1 OFFCURVE",
"41 0 OFFCURVE",
"43 0 CURVE SMOOTH"
);
}
);
width = 415;
},
{
anchors = (
{
name = bottom;
position = "{195, 0}";
},
{
name = center;
position = "{243, 337}";
},
{
name = top;
position = "{228, 673}";
},
{
name = topright;
position = "{400, 673}";
}
);
background = {
paths = (
{
closed = 1;
nodes = (
"361 0 LINE SMOOTH",
"382 0 OFFCURVE",
"383 0 OFFCURVE",
"388 22 CURVE SMOOTH",
"403 94 LINE SMOOTH",
"407 114 OFFCURVE",
"408 116 OFFCURVE",
"387 116 CURVE SMOOTH",
"195 116 LINE SMOOTH",
"186 116 OFFCURVE",
"186 117 OFFCURVE",
"188 125 CURVE SMOOTH",
"300 654 LINE SMOOTH",
"303 669 OFFCURVE",
"301 673 OFFCURVE",
"285 673 CURVE SMOOTH",
"169 673 LINE SMOOTH",
"159 673 OFFCURVE",
"152 667 OFFCURVE",
"150 658 CURVE SMOOTH",
"13 14 LINE SMOOTH",
"11 6 OFFCURVE",
"16 0 OFFCURVE",
"26 0 CURVE SMOOTH"
);
}
);
};
layerId = "D1BC8BBB-1669-4C46-BC21-42BF6808B2B9";
paths = (
{
closed = 1;
nodes = (
"361 0 LINE SMOOTH",
"382 0 OFFCURVE",
"383 0 OFFCURVE",
"388 22 CURVE SMOOTH",
"403 94 LINE SMOOTH",
"407 114 OFFCURVE",
"408 116 OFFCURVE",
"387 116 CURVE SMOOTH",
"195 116 LINE SMOOTH",
"186 116 OFFCURVE",
"186 117 OFFCURVE",
"188 125 CURVE SMOOTH",
"300 654 LINE SMOOTH",
"303 669 OFFCURVE",
"301 673 OFFCURVE",
"285 673 CURVE SMOOTH",
"169 673 LINE SMOOTH",
"159 673 OFFCURVE",
"152 667 OFFCURVE",
"150 658 CURVE SMOOTH",
"13 14 LINE SMOOTH",
"11 6 OFFCURVE",
"16 0 OFFCURVE",
"26 0 CURVE SMOOTH"
);
}
);
width = 443;
}
);
leftKerningGroup = H;
leftMetricsKey = D;
note = L;
rightKerningGroup = L;
unicode = 004C;
},
{
glyphname = M;
lastChange = "2021-06-09 21:23:28 +0000";
layers = (
{
background = {
paths = (
{
closed = 1;
nodes = (
"218 673 LINE SMOOTH",
"216 673 OFFCURVE",
"215 671 OFFCURVE",
"214 669 CURVE SMOOTH",
"170 533 OFFCURVE",
"90 257 OFFCURVE",
"36 4 CURVE SMOOTH",
"35 1 OFFCURVE",
"36 0 OFFCURVE",
"39 0 CURVE SMOOTH",
"64 0 LINE SMOOTH",
"66 0 OFFCURVE",
"68 1 OFFCURVE",
"69 4 CURVE SMOOTH",
"108 186 OFFCURVE",
"182 458 OFFCURVE",
"221 588 CURVE SMOOTH",
"224 595 OFFCURVE",
"233 595 OFFCURVE",
"236 588 CURVE SMOOTH",
"348 278 LINE SMOOTH",
"349 275 OFFCURVE",
"351 274 OFFCURVE",
"354 274 CURVE SMOOTH",
"376 274 LINE SMOOTH",
"380 274 OFFCURVE",
"383 276 OFFCURVE",
"386 280 CURVE SMOOTH",
"628 589 LINE SMOOTH",
"634 596 OFFCURVE",
"643 599 OFFCURVE",
"643 590 CURVE",
"630 464 OFFCURVE",
"580 160 OFFCURVE",
"548 8 CURVE SMOOTH",
"546 1 OFFCURVE",
"548 0 OFFCURVE",
"549 0 CURVE SMOOTH",
"575 0 LINE SMOOTH",
"578 0 OFFCURVE",
"579 1 OFFCURVE",
"580 4 CURVE SMOOTH",
"636 267 OFFCURVE",
"671 536 OFFCURVE",
"684 669 CURVE SMOOTH",
"685 671 OFFCURVE",
"684 673 OFFCURVE",
"682 673 CURVE SMOOTH",
"658 673 LINE SMOOTH",
"656 673 OFFCURVE",
"653 670 OFFCURVE",
"650 667 CURVE",
"381 321 LINE",
"377 314 OFFCURVE",
"372 315 OFFCURVE",
"370 321 CURVE SMOOTH",
"247 669 LINE",
"245 670 OFFCURVE",
"246 673 OFFCURVE",
"244 673 CURVE SMOOTH"
);
}
);
};
layerId = "707362F1-A677-446A-8636-E10BE3A7FAFF";
paths = (
{
closed = 1;
nodes = (
"64 0 LINE SMOOTH",
"66 0 OFFCURVE",
"68 1 OFFCURVE",
"69 4 CURVE SMOOTH",
"108 186 OFFCURVE",
"182 458 OFFCURVE",
"221 588 CURVE SMOOTH",
"224 595 OFFCURVE",
"233 595 OFFCURVE",
"236 588 CURVE SMOOTH",
"348 278 LINE SMOOTH",
"349 275 OFFCURVE",
"351 274 OFFCURVE",
"354 274 CURVE SMOOTH",
"376 274 LINE SMOOTH",
"380 274 OFFCURVE",
"383 276 OFFCURVE",
"386 280 CURVE SMOOTH",
"628 589 LINE SMOOTH",
"636 598 OFFCURVE",
"644 597 OFFCURVE",
"643 587 CURVE SMOOTH",
"630 464 OFFCURVE",
"580 161 OFFCURVE",
"547 6 CURVE SMOOTH",
"546 2 OFFCURVE",
"548 0 OFFCURVE",
"552 0 CURVE SMOOTH",
"574 0 LINE SMOOTH",
"578 0 OFFCURVE",
"579 1 OFFCURVE",
"580 5 CURVE SMOOTH",
"636 267 OFFCURVE",
"671 536 OFFCURVE",
"684 666 CURVE SMOOTH",
"685 671 OFFCURVE",
"684 673 OFFCURVE",
"679 673 CURVE SMOOTH",
"661 673 LINE SMOOTH",
"657 673 OFFCURVE",
"654 672 OFFCURVE",
"650 667 CURVE SMOOTH",
"381 321 LINE",
"377 314 OFFCURVE",
"372 315 OFFCURVE",
"370 321 CURVE SMOOTH",
"329 437 OFFCURVE",
"287 555 OFFCURVE",
"249 665 CURVE SMOOTH",
"248 669 OFFCURVE",
"245 673 OFFCURVE",
"241 673 CURVE SMOOTH",
"220 673 LINE SMOOTH",
"217 673 OFFCURVE",
"215 672 OFFCURVE",
"214 668 CURVE SMOOTH",
"169 533 OFFCURVE",
"90 257 OFFCURVE",
"36 5 CURVE SMOOTH",
"35 1 OFFCURVE",
"36 0 OFFCURVE",
"40 0 CURVE SMOOTH"
);
}
);
width = 714;
},
{
background = {
paths = (
{
closed = 1;
nodes = (
"203 673 LINE SMOOTH",
"192 673 OFFCURVE",
"189 668 OFFCURVE",
"185 658 CURVE SMOOTH",
"124 493 OFFCURVE",
"48 200 OFFCURVE",
"8 14 CURVE SMOOTH",
"5 1 OFFCURVE",
"16 0 OFFCURVE",
"24 0 CURVE SMOOTH",
"152 0 LINE SMOOTH",
"154 0 OFFCURVE",
"156 1 OFFCURVE",
"157 4 CURVE SMOOTH",
"196 186 OFFCURVE",
"212 247 OFFCURVE",
"246 362 CURVE",
"247 367 OFFCURVE",
"252 372 OFFCURVE",
"255 366 CURVE SMOOTH",
"319 215 LINE SMOOTH",
"320 212 OFFCURVE",
"322 211 OFFCURVE",
"325 211 CURVE SMOOTH",
"372 211 LINE SMOOTH",
"376 211 OFFCURVE",
"377 213 OFFCURVE",
"381 217 CURVE SMOOTH",
"511 367 LINE SMOOTH",
"516 373 OFFCURVE",
"521 376 OFFCURVE",
"521 367 CURVE",
"504 250 OFFCURVE",
"482 123 OFFCURVE",
"459 13 CURVE SMOOTH",
"457 6 OFFCURVE",
"462 0 OFFCURVE",
"463 0 CURVE SMOOTH",
"585 0 LINE SMOOTH",
"594 0 OFFCURVE",
"606 0 OFFCURVE",
"609 14 CURVE SMOOTH",
"648 197 OFFCURVE",
"694 493 OFFCURVE",
"704 658 CURVE SMOOTH",
"705 667 OFFCURVE",
"701 673 OFFCURVE",
"693 673 CURVE SMOOTH",
"623 673 LINE SMOOTH",
"609 673 OFFCURVE",
"606 673 OFFCURVE",
"598 662 CURVE",
"404 426 LINE",
"399 419 OFFCURVE",
"389 421 OFFCURVE",
"388 426 CURVE SMOOTH",
"296 662 LINE",
"293 671 OFFCURVE",
"288 673 OFFCURVE",
"274 673 CURVE SMOOTH"
);
}
);
};
layerId = "D1BC8BBB-1669-4C46-BC21-42BF6808B2B9";
paths = (
{
closed = 1;
nodes = (
"146 0 LINE SMOOTH",
"154 0 OFFCURVE",
"156 1 OFFCURVE",
"158 10 CURVE SMOOTH",
"196 186 OFFCURVE",
"212 247 OFFCURVE",
"246 362 CURVE SMOOTH",
"248 370 OFFCURVE",
"253 370 OFFCURVE",
"256 363 CURVE SMOOTH",
"318 217 LINE SMOOTH",
"320 212 OFFCURVE",
"322 211 OFFCURVE",
"327 211 CURVE SMOOTH",
"368 211 LINE SMOOTH",
"374 211 OFFCURVE",
"376 212 OFFCURVE",
"380 216 CURVE SMOOTH",
"511 367 LINE SMOOTH",
"516 373 OFFCURVE",
"521 376 OFFCURVE",
"521 367 CURVE",
"504 250 OFFCURVE",
"482 123 OFFCURVE",
"459 16 CURVE SMOOTH",
"457 6 OFFCURVE",
"462 0 OFFCURVE",
"470 0 CURVE SMOOTH",
"585 0 LINE SMOOTH",
"602 0 OFFCURVE",
"607 5 OFFCURVE",
"610 18 CURVE SMOOTH",
"648 197 OFFCURVE",
"694 493 OFFCURVE",
"704 658 CURVE SMOOTH",
"705 667 OFFCURVE",
"701 673 OFFCURVE",
"693 673 CURVE SMOOTH",
"623 673 LINE SMOOTH",
"609 673 OFFCURVE",
"605 672 OFFCURVE",
"598 662 CURVE SMOOTH",
"404 426 LINE SMOOTH",
"399 420 OFFCURVE",
"391 420 OFFCURVE",
"387 429 CURVE SMOOTH",
"357 507 OFFCURVE",
"326 584 OFFCURVE",
"296 662 CURVE SMOOTH",
"293 671 OFFCURVE",
"288 673 OFFCURVE",
"274 673 CURVE SMOOTH",
"203 673 LINE SMOOTH",
"192 673 OFFCURVE",
"189 668 OFFCURVE",
"185 658 CURVE SMOOTH",
"124 493 OFFCURVE",
"48 200 OFFCURVE",
"9 18 CURVE SMOOTH",
"6 6 OFFCURVE",
"9 0 OFFCURVE",
"21 0 CURVE SMOOTH"
);
}
);
width = 711;
}
);
leftKerningGroup = M;
leftMetricsKey = H;
note = M;
rightKerningGroup = M;
rightMetricsKey = H;
unicode = 004D;
},
{
glyphname = N;
lastChange = "2021-06-09 21:23:28 +0000";
layers = (
{
anchors = (
{
name = bottom;
position = "{270, 0}";
},
{
name = top;
position = "{413, 672}";
}
);
background = {
paths = (
{
closed = 1;
nodes = (
"236 668 LINE",
"235 671 OFFCURVE",
"234 673 OFFCURVE",
"232 673 CURVE SMOOTH",
"209 673 LINE SMOOTH",
"207 673 OFFCURVE",
"205 671 OFFCURVE",
"204 669 CURVE SMOOTH",
"160 540 OFFCURVE",
"72 139 OFFCURVE",
"61 4 CURVE SMOOTH",
"60 1 OFFCURVE",
"61 0 OFFCURVE",
"64 0 CURVE SMOOTH",
"89 0 LINE SMOOTH",
"92 0 OFFCURVE",
"93 1 OFFCURVE",
"94 6 CURVE",
"103 143 OFFCURVE",
"178 470 OFFCURVE",
"219 596 CURVE SMOOTH",
"221 602 OFFCURVE",
"227 602 OFFCURVE",
"228 597 CURVE",
"474 4 LINE",
"474 1 OFFCURVE",
"475 0 OFFCURVE",
"478 0 CURVE SMOOTH",
"498 0 LINE SMOOTH",
"501 0 OFFCURVE",
"504 1 OFFCURVE",
"505 4 CURVE SMOOTH",
"549 132 OFFCURVE",
"637 533 OFFCURVE",
"648 669 CURVE SMOOTH",
"649 671 OFFCURVE",
"648 673 OFFCURVE",
"645 673 CURVE SMOOTH",
"620 673 LINE SMOOTH",
"617 673 OFFCURVE",
"616 671 OFFCURVE",
"615 667 CURVE",
"606 531 OFFCURVE",
"533 208 OFFCURVE",
"492 80 CURVE SMOOTH",
"489 72 OFFCURVE",
"483 71 OFFCURVE",
"481 77 CURVE SMOOTH"
);
}
);
};
layerId = "707362F1-A677-446A-8636-E10BE3A7FAFF";
paths = (
{
closed = 1;
nodes = (
"223 668 LINE",
"222 671 OFFCURVE",
"221 673 OFFCURVE",
"219 673 CURVE SMOOTH",
"196 673 LINE SMOOTH",
"194 673 OFFCURVE",
"192 671 OFFCURVE",
"191 669 CURVE SMOOTH",
"147 540 OFFCURVE",
"59 139 OFFCURVE",
"48 4 CURVE SMOOTH",
"47 1 OFFCURVE",
"48 0 OFFCURVE",
"51 0 CURVE SMOOTH",
"76 0 LINE SMOOTH",
"79 0 OFFCURVE",
"80 1 OFFCURVE",
"81 6 CURVE",
"90 143 OFFCURVE",
"165 470 OFFCURVE",
"206 596 CURVE SMOOTH",
"208 602 OFFCURVE",
"214 602 OFFCURVE",
"215 597 CURVE",
"461 4 LINE",
"461 1 OFFCURVE",
"462 0 OFFCURVE",
"465 0 CURVE SMOOTH",
"485 0 LINE SMOOTH",
"488 0 OFFCURVE",
"491 1 OFFCURVE",
"492 4 CURVE SMOOTH",
"536 132 OFFCURVE",
"624 533 OFFCURVE",
"635 669 CURVE SMOOTH",
"636 671 OFFCURVE",
"635 673 OFFCURVE",
"632 673 CURVE SMOOTH",
"607 673 LINE SMOOTH",
"604 673 OFFCURVE",
"603 671 OFFCURVE",
"602 667 CURVE",
"593 531 OFFCURVE",
"520 208 OFFCURVE",
"479 80 CURVE SMOOTH",
"476 72 OFFCURVE",
"470 71 OFFCURVE",
"468 77 CURVE SMOOTH"
);
}
);
width = 640;
},
{
anchors = (
{
name = bottom;
position = "{290, 0}";
},
{
name = top;
position = "{393, 673}";
}
);
background = {
paths = (
{
closed = 1;
nodes = (
"274 663 LINE",
"272 669 OFFCURVE",
"266 673 OFFCURVE",
"261 673 CURVE SMOOTH",
"188 673 LINE SMOOTH",
"180 673 OFFCURVE",
"168 667 OFFCURVE",
"164 658 CURVE SMOOTH",
"101 509 OFFCURVE",
"38 150 OFFCURVE",
"24 14 CURVE SMOOTH",
"22 1 OFFCURVE",
"34 0 OFFCURVE",
"44 0 CURVE SMOOTH",
"164 0 LINE SMOOTH",
"172 0 OFFCURVE",
"174 4 OFFCURVE",
"175 14 CURVE",
"181 85 OFFCURVE",
"195 173 OFFCURVE",
"234 363 CURVE SMOOTH",
"235 369 OFFCURVE",
"242 369 OFFCURVE",
"243 364 CURVE",
"406 18 LINE",
"410 7 OFFCURVE",
"415 0 OFFCURVE",
"421 0 CURVE SMOOTH",
"498 0 LINE SMOOTH",
"509 0 OFFCURVE",
"518 1 OFFCURVE",
"523 14 CURVE SMOOTH",
"569 150 OFFCURVE",
"657 509 OFFCURVE",
"658 658 CURVE SMOOTH",
"658 667 OFFCURVE",
"649 673 OFFCURVE",
"640 673 CURVE SMOOTH",
"517 673 LINE SMOOTH",
"511 673 OFFCURVE",
"508 668 OFFCURVE",
"507 658 CURVE",
"494 526 OFFCURVE",
"473 412 OFFCURVE",
"453 317 CURVE SMOOTH",
"452 309 OFFCURVE",
"442 309 OFFCURVE",
"439 315 CURVE SMOOTH"
);
}
);
};
layerId = "D1BC8BBB-1669-4C46-BC21-42BF6808B2B9";
paths = (
{
closed = 1;
nodes = (
"274 663 LINE",
"272 669 OFFCURVE",
"266 673 OFFCURVE",
"261 673 CURVE SMOOTH",
"188 673 LINE SMOOTH",
"180 673 OFFCURVE",
"168 667 OFFCURVE",
"164 658 CURVE SMOOTH",
"101 509 OFFCURVE",
"38 150 OFFCURVE",
"24 14 CURVE SMOOTH",
"22 1 OFFCURVE",
"34 0 OFFCURVE",
"44 0 CURVE SMOOTH",
"164 0 LINE SMOOTH",
"172 0 OFFCURVE",
"174 4 OFFCURVE",
"175 14 CURVE",
"181 85 OFFCURVE",
"195 173 OFFCURVE",
"234 363 CURVE SMOOTH",
"235 369 OFFCURVE",
"242 369 OFFCURVE",
"243 364 CURVE",
"406 18 LINE",
"410 7 OFFCURVE",
"415 0 OFFCURVE",
"421 0 CURVE SMOOTH",
"498 0 LINE SMOOTH",
"509 0 OFFCURVE",
"518 1 OFFCURVE",
"523 14 CURVE SMOOTH",
"569 150 OFFCURVE",
"657 509 OFFCURVE",
"658 658 CURVE SMOOTH",
"658 667 OFFCURVE",
"649 673 OFFCURVE",
"640 673 CURVE SMOOTH",
"517 673 LINE SMOOTH",
"511 673 OFFCURVE",
"508 668 OFFCURVE",
"507 658 CURVE",
"494 526 OFFCURVE",
"473 412 OFFCURVE",
"453 317 CURVE SMOOTH",
"452 309 OFFCURVE",
"442 309 OFFCURVE",
"439 315 CURVE SMOOTH"
);
}
);
width = 642;
}
);
leftKerningGroup = H;
leftMetricsKey = H;
note = N;
rightKerningGroup = H;
rightMetricsKey = H;
unicode = 004E;
},
